<svg width="36" height="36" viewBox="0 0 36 36" fill="none" xmlns="http://www.w3.org/2000/svg">
<path d="M3.89795 7.09595V11.4059V33.3H30.1023V11.4059V7.09595H3.89795Z" fill="#FDFCFA"/>
<path d="M12.872 2.70001H9.31055V8.33977H12.872V2.70001Z" fill="#16404D"/>
<path d="M24.6894 2.70001H21.1279V8.33977H24.6894V2.70001Z" fill="#16404D"/>
<path d="M24.8163 17.077C24.6053 16.866 24.2637 16.866 24.0527 17.077L14.6463 26.4834L9.94717 21.7843C9.73621 21.5734 9.39457 21.5734 9.18361 21.7843C8.97265 21.9953 8.97265 22.3369 9.18361 22.5479L14.2643 27.6286C14.3698 27.7341 14.508 27.7866 14.6463 27.7866C14.7845 27.7866 14.9227 27.7341 15.0282 27.6286L24.8163 17.8405C25.0272 17.6296 25.0272 17.2879 24.8163 17.077Z" fill="#16404D"/>
<path d="M30.102 7.09595H3.89795V11.4059H30.102V7.09595Z" fill="#16404D"/>
</svg>
