<svg width="14" height="14" viewBox="0 0 14 14" fill="none" xmlns="http://www.w3.org/2000/svg">
<path d="M5.13919 1.16667L3.02753 3.28417" stroke="#9DB2CE" stroke-width="1.5" stroke-miterlimit="10" stroke-linecap="round" stroke-linejoin="round"/>
<path d="M8.86084 1.16667L10.9725 3.28417" stroke="#9DB2CE" stroke-width="1.5" stroke-miterlimit="10" stroke-linecap="round" stroke-linejoin="round"/>
<path d="M1.16669 4.57917C1.16669 3.50001 1.74419 3.41251 2.46169 3.41251H11.5384C12.2559 3.41251 12.8334 3.50001 12.8334 4.57917C12.8334 5.83334 12.2559 5.74584 11.5384 5.74584H2.46169C1.74419 5.74584 1.16669 5.83334 1.16669 4.57917Z" stroke="#9DB2CE" stroke-width="1.5"/>
<path d="M5.69336 8.16667V10.2375" stroke="#9DB2CE" stroke-width="1.5" stroke-linecap="round"/>
<path d="M8.37665 8.16667V10.2375" stroke="#9DB2CE" stroke-width="1.5" stroke-linecap="round"/>
<path d="M2.04169 5.83333L2.86419 10.8733C3.05085 12.005 3.50002 12.8333 5.16835 12.8333H8.68585C10.5 12.8333 10.7684 12.04 10.9784 10.9433L11.9584 5.83333" stroke="#9DB2CE" stroke-width="1.5" stroke-linecap="round"/>
</svg>
