<svg width="25" height="25" viewBox="0 0 25 25" fill="none" xmlns="http://www.w3.org/2000/svg">
<g clip-path="url(#clip0_450_885)">
<path d="M21.8535 24.5117V18.3741C21.8535 17.8255 21.6994 17.2879 21.4089 16.8226C21.1184 16.3572 20.703 15.9828 20.2101 15.7419L15.5011 13.4407C15.3368 13.3604 15.1983 13.2356 15.1015 13.0805C15.0046 12.9254 14.9533 12.7462 14.9533 12.5633V10.8466H10.0196V12.5765C10.0196 12.7594 9.96828 12.9386 9.87143 13.0937C9.77458 13.2488 9.63613 13.3736 9.47183 13.4539L4.78984 15.742C4.29696 15.9829 3.88161 16.3573 3.59107 16.8226C3.30054 17.288 3.1465 17.8255 3.14648 18.3741V24.5117C3.14648 24.6412 3.19793 24.7654 3.2895 24.857C3.38107 24.9486 3.50527 25 3.63477 25H21.3652C21.4947 25 21.6189 24.9486 21.7105 24.857C21.8021 24.7654 21.8535 24.6412 21.8535 24.5117L21.8535 24.5117Z" fill="#57AAFE"/>
<path d="M8.44385 20.5475H6.91748V14.5732C6.91749 14.5305 6.9287 14.4886 6.95 14.4515C6.9713 14.4145 7.00195 14.3837 7.03887 14.3623L8.07695 13.7583C8.11405 13.7367 8.15619 13.7253 8.19911 13.7252C8.24204 13.725 8.28423 13.7363 8.32143 13.7577C8.35864 13.7791 8.38955 13.8099 8.41104 13.847C8.43253 13.8842 8.44385 13.9264 8.44385 13.9693V20.5475ZM16.5562 20.5475H18.0826V14.5732C18.0826 14.5305 18.0714 14.4886 18.0501 14.4515C18.0288 14.4145 17.9982 14.3837 17.9612 14.3623L16.9231 13.7583C16.886 13.7367 16.8439 13.7253 16.801 13.7252C16.7581 13.725 16.7159 13.7363 16.6787 13.7577C16.6415 13.7791 16.6105 13.8099 16.5891 13.847C16.5676 13.8842 16.5562 13.9264 16.5562 13.9693V20.5475Z" fill="#D34342"/>
<path d="M12.4999 14.8681C13.7173 14.8697 14.8897 14.4079 15.779 13.5765L15.501 13.4407C15.3367 13.3604 15.1982 13.2356 15.1014 13.0804C15.0045 12.9253 14.9532 12.7461 14.9532 12.5632V10.8466H10.0195V12.5765C10.0195 12.7593 9.96815 12.9385 9.8713 13.0937C9.77445 13.2488 9.63599 13.3736 9.47168 13.4539L9.2207 13.5765C10.11 14.408 11.2824 14.8698 12.4999 14.8682V14.8681Z" fill="#F9BEAC"/>
<path d="M6.25586 25V19.6197C6.25586 19.2312 6.41019 18.8586 6.6849 18.5839C6.95961 18.3092 7.3322 18.1549 7.7207 18.1549H17.2793C17.6678 18.1549 18.0404 18.3092 18.3151 18.5839C18.5898 18.8586 18.7441 19.2312 18.7441 19.6197V25L6.25586 25Z" fill="#F96263"/>
<path d="M6.25586 22.6515H3.14648V24.5117C3.14648 24.6412 3.19793 24.7654 3.2895 24.857C3.38107 24.9486 3.50527 25 3.63477 25H6.25586V22.6515ZM18.7441 22.6515H21.8535V24.5117C21.8535 24.6412 21.8021 24.7654 21.7105 24.857C21.6189 24.9486 21.4947 25 21.3652 25H18.7441V22.6515Z" fill="#F9BEAC"/>
<path d="M12.9026 13.4354C13.3347 13.4354 13.7545 13.2909 14.095 13.0248L14.9533 12.3542V10.8466H10.0195V11.7627C10.1053 11.8534 10.1976 11.9376 10.2957 12.0147L11.5884 13.0249C11.9289 13.2909 12.3487 13.4355 12.7808 13.4355L12.9026 13.4354Z" fill="#E58A7B"/>
<path d="M9.95395 11.2086C9.64998 10.9711 9.40411 10.6674 9.23501 10.3207C9.06591 9.97396 8.97802 9.59325 8.97803 9.20747V5.67251C8.97803 5.25975 9.14199 4.8639 9.43386 4.57204C9.72572 4.28018 10.1216 4.11621 10.5343 4.11621H14.4656C14.8784 4.11621 15.2742 4.28018 15.5661 4.57204C15.858 4.8639 16.0219 5.25975 16.0219 5.67251V9.20747C16.0219 9.59325 15.934 9.97397 15.7649 10.3207C15.5958 10.6675 15.3499 10.9711 15.0459 11.2086L13.7532 12.2187C13.4127 12.4848 12.993 12.6294 12.5608 12.6294H12.4391C12.0069 12.6294 11.5872 12.4848 11.2467 12.2187L9.95395 11.2086Z" fill="#F9BEAC"/>
<path d="M14.216 10.6446C14.216 10.4713 14.1819 10.2997 14.1155 10.1395C14.0492 9.97941 13.952 9.83391 13.8294 9.71135C13.7068 9.5888 13.5613 9.49158 13.4012 9.42526C13.2411 9.35893 13.0694 9.3248 12.8961 9.32481H12.1041C11.9308 9.3248 11.7591 9.35893 11.599 9.42526C11.4389 9.49158 11.2934 9.5888 11.1708 9.71135C11.0482 9.83391 10.951 9.97941 10.8847 10.1395C10.8183 10.2997 10.7842 10.4713 10.7842 10.6446V11.8573L11.2468 12.2188C11.5873 12.4848 12.0071 12.6294 12.4392 12.6294H12.561C12.9931 12.6294 13.4129 12.4848 13.7534 12.2188L14.216 11.8573V10.6446Z" fill="#343C4A"/>
<path d="M16.022 8.23272V6.0417C16.1627 6.0417 16.3017 6.07269 16.4291 6.13246C16.5565 6.19222 16.6691 6.27931 16.7591 6.38752C16.849 6.49574 16.914 6.62244 16.9495 6.75861C16.985 6.89478 16.99 7.0371 16.9643 7.17544L16.904 7.49956C16.8657 7.70553 16.7566 7.8916 16.5954 8.02551C16.4343 8.15942 16.2314 8.23273 16.0219 8.23272H16.022ZM8.97802 8.23272V6.0417C8.8373 6.0417 8.69831 6.07269 8.57092 6.13246C8.44353 6.19222 8.33085 6.27931 8.24091 6.38752C8.15096 6.49574 8.08594 6.62244 8.05048 6.75861C8.01501 6.89478 8.00996 7.0371 8.03569 7.17544L8.09594 7.49956C8.13425 7.70553 8.24343 7.8916 8.40455 8.02551C8.56567 8.15942 8.76857 8.23273 8.97807 8.23272H8.97802ZM12.5006 10.9944C12.4859 10.9944 12.4711 10.9942 12.4564 10.9938C12.2468 10.9886 12.0399 10.945 11.8459 10.8651C11.8252 10.8566 11.8063 10.8441 11.7904 10.8283C11.7745 10.8125 11.7618 10.7937 11.7532 10.7729C11.7357 10.7311 11.7355 10.6841 11.7527 10.6421C11.7699 10.6002 11.8031 10.5668 11.8449 10.5494C11.8867 10.5319 11.9338 10.5317 11.9757 10.5489C12.1312 10.6129 12.297 10.6479 12.465 10.6521C12.6566 10.6566 12.847 10.6215 13.0243 10.5489C13.0662 10.5317 13.1133 10.5318 13.1551 10.5493C13.1969 10.5668 13.2301 10.6002 13.2473 10.6422C13.2645 10.6841 13.2643 10.7312 13.2468 10.773C13.2293 10.8148 13.1959 10.8479 13.154 10.8651C12.9467 10.9505 12.7247 10.9945 12.5006 10.9944Z" fill="#E58A7B"/>
<path d="M14.631 7.32446C14.6088 7.32446 14.5868 7.32012 14.5662 7.31167C14.3889 7.2391 14.1985 7.20395 14.0069 7.20844C13.8389 7.21265 13.6731 7.24762 13.5177 7.31162C13.4969 7.32038 13.4745 7.32494 13.452 7.32503C13.4294 7.32511 13.407 7.32073 13.3862 7.31212C13.3653 7.30351 13.3463 7.29086 13.3304 7.27488C13.3144 7.25891 13.3018 7.23993 13.2932 7.21905C13.2846 7.19817 13.2803 7.17579 13.2804 7.15322C13.2805 7.13065 13.2851 7.10832 13.2939 7.08753C13.3027 7.06674 13.3155 7.0479 13.3317 7.0321C13.3478 7.01629 13.3669 7.00384 13.3878 6.99546C13.8068 6.82316 14.2769 6.82316 14.6959 6.99546C14.7325 7.01049 14.7628 7.03777 14.7815 7.07264C14.8003 7.10751 14.8063 7.14781 14.7987 7.18666C14.791 7.2255 14.7701 7.26047 14.7395 7.28561C14.7089 7.31074 14.6705 7.32447 14.631 7.32446H14.631ZM14.0419 8.21757C13.9966 8.21757 13.9531 8.19957 13.921 8.16752C13.889 8.13547 13.871 8.092 13.871 8.04668V7.67177C13.871 7.62645 13.889 7.58298 13.921 7.55093C13.9531 7.51888 13.9966 7.50088 14.0419 7.50088C14.0872 7.50088 14.1307 7.51888 14.1627 7.55093C14.1948 7.58298 14.2128 7.62645 14.2128 7.67177V8.04668C14.2128 8.092 14.1948 8.13547 14.1627 8.16752C14.1307 8.19957 14.0872 8.21757 14.0419 8.21757ZM11.4556 7.32451C11.4333 7.32449 11.4114 7.32013 11.3908 7.31167C11.2135 7.23909 11.0231 7.20395 10.8315 7.20844C10.6635 7.21264 10.4977 7.24761 10.3423 7.31162C10.3004 7.32835 10.2537 7.32789 10.2122 7.31033C10.1707 7.29277 10.1378 7.25954 10.1207 7.21786C10.1036 7.17619 10.1036 7.12944 10.1208 7.08778C10.138 7.04613 10.1709 7.01295 10.2124 6.99546C10.6314 6.82317 11.1015 6.82317 11.5205 6.99546C11.5571 7.01048 11.5874 7.03776 11.6061 7.07263C11.6248 7.1075 11.6309 7.14779 11.6232 7.18663C11.6156 7.22547 11.5947 7.26045 11.5641 7.28558C11.5335 7.31072 11.4952 7.32451 11.4556 7.32451ZM10.8665 8.21757C10.8212 8.21757 10.7777 8.19957 10.7457 8.16752C10.7136 8.13547 10.6956 8.092 10.6956 8.04668V7.67177C10.6956 7.62645 10.7136 7.58298 10.7457 7.55093C10.7777 7.51888 10.8212 7.50088 10.8665 7.50088C10.9118 7.50088 10.9553 7.51888 10.9873 7.55093C11.0194 7.58298 11.0374 7.62645 11.0374 7.67177V8.04668C11.0374 8.092 11.0194 8.13547 10.9873 8.16752C10.9553 8.19957 10.9118 8.21757 10.8665 8.21757Z" fill="#343C4A"/>
<path d="M13.0812 8.84536V9.07768C13.0812 9.23181 13.02 9.37963 12.911 9.48862C12.802 9.59761 12.6542 9.65884 12.5001 9.65884C12.346 9.65884 12.1981 9.59761 12.0892 9.48862C11.9802 9.37963 11.9189 9.23181 11.9189 9.07768V8.84536C11.9189 8.80651 11.9344 8.76925 11.9618 8.74178C11.9893 8.71431 12.0266 8.69888 12.0654 8.69888H12.9348C12.9736 8.69888 13.0109 8.71431 13.0383 8.74178C13.0658 8.76925 13.0812 8.80651 13.0812 8.84536Z" fill="#E58A7B"/>
<path d="M11.6246 0.170853H13.3761C14.0984 0.170866 14.7912 0.457835 15.302 0.968632C15.8128 1.47943 16.0998 2.17221 16.0998 2.89458V5.33096H8.90088V2.89458C8.90088 2.1722 9.18784 1.47941 9.69864 0.968615C10.2094 0.457816 10.9022 0.170853 11.6246 0.170853Z" fill="#F96263"/>
<path d="M14.9247 6.43598L13.4916 6.12749C12.8382 5.98685 12.1624 5.98685 11.509 6.12749L10.0759 6.43598C9.87514 6.47919 9.66564 6.45207 9.48251 6.35917C9.29938 6.26627 9.15375 6.11324 9.07004 5.92573L8.88151 5.50337C8.85699 5.4486 8.84429 5.38929 8.84424 5.32929C8.84418 5.26929 8.85678 5.20995 8.88119 5.15515C8.90561 5.10034 8.94131 5.0513 8.98595 5.01121C9.0306 4.97113 9.08319 4.9409 9.1403 4.92251C10.2515 4.56561 11.4125 4.3879 12.5797 4.39604C13.7245 4.40429 15.1157 4.74175 15.832 4.93862C15.8914 4.95489 15.9466 4.98381 15.9938 5.0234C16.041 5.063 16.0791 5.11233 16.1055 5.16802C16.1318 5.22371 16.1458 5.28444 16.1465 5.34605C16.1472 5.40765 16.1346 5.46868 16.1095 5.52495L15.9306 5.92568C15.8469 6.1132 15.7012 6.26624 15.5181 6.35914C15.3349 6.45204 15.1254 6.47915 14.9247 6.43594V6.43598Z" fill="#57AAFE"/>
<path d="M12.8498 0.901463C12.8765 0.899829 12.9033 0.904852 12.9275 0.916081C12.9518 0.927309 12.973 0.944392 12.989 0.965797C13.0051 0.987203 13.0156 1.01226 13.0196 1.03873C13.0236 1.06519 13.021 1.09223 13.0119 1.11743C12.9035 1.39717 12.7837 1.67339 12.6667 1.94966C12.6596 1.9664 12.6647 1.97339 12.6785 1.98139C12.8975 2.10781 13.116 2.23506 13.3352 2.36108C13.3599 2.37302 13.3812 2.39093 13.3972 2.41319C13.4133 2.43545 13.4235 2.46135 13.427 2.48855C13.4304 2.51575 13.4271 2.54339 13.4172 2.56896C13.4073 2.59453 13.3912 2.61723 13.3703 2.63501C12.9733 3.01164 12.5759 3.38786 12.1782 3.76367C12.1115 3.82676 12.0458 3.84106 11.9775 3.80801C11.9413 3.79119 11.9128 3.76125 11.8978 3.72425C11.8829 3.68724 11.8826 3.64594 11.8969 3.60869C11.9384 3.50151 11.9838 3.3959 12.028 3.28974C12.0991 3.11852 12.1707 2.94746 12.2425 2.77656C12.2498 2.75908 12.2437 2.75288 12.2303 2.74516C12.0086 2.61767 11.7846 2.49272 11.5658 2.36059C11.5424 2.34779 11.5225 2.32948 11.5078 2.30726C11.493 2.28504 11.484 2.25958 11.4813 2.23306C11.4786 2.20654 11.4825 2.17978 11.4924 2.15507C11.5024 2.13036 11.5183 2.10846 11.5387 2.09126C11.9359 1.71489 12.3333 1.33862 12.7308 0.962449C12.7618 0.928345 12.8041 0.906668 12.8498 0.901463Z" fill="#FFBC5B"/>
<path d="M16.9922 20.8496C17.4641 20.8496 17.8467 20.467 17.8467 19.9951C17.8467 19.5231 17.4641 19.1406 16.9922 19.1406C16.5203 19.1406 16.1377 19.5231 16.1377 19.9951C16.1377 20.467 16.5203 20.8496 16.9922 20.8496Z" fill="#FFBC5B"/>
<path d="M8.10547 20.8496C8.57739 20.8496 8.95996 20.467 8.95996 19.9951C8.95996 19.5231 8.57739 19.1406 8.10547 19.1406C7.63355 19.1406 7.25098 19.5231 7.25098 19.9951C7.25098 20.467 7.63355 20.8496 8.10547 20.8496Z" fill="#FFBC5B"/>
<path d="M12.9919 19.8618C13.0251 19.8597 13.0583 19.866 13.0885 19.8799C13.1187 19.8939 13.145 19.9151 13.165 19.9418C13.185 19.9684 13.198 19.9995 13.203 20.0325C13.208 20.0654 13.2047 20.099 13.1934 20.1303C13.0587 20.4782 12.9096 20.8217 12.7641 21.1652C12.7554 21.186 12.7617 21.1947 12.7789 21.2046C13.0512 21.3619 13.3228 21.5201 13.5954 21.6768C13.6261 21.6916 13.6527 21.7139 13.6726 21.7416C13.6925 21.7693 13.7052 21.8015 13.7095 21.8353C13.7139 21.8692 13.7097 21.9035 13.6974 21.9353C13.6851 21.9671 13.665 21.9954 13.639 22.0175C13.1454 22.4858 12.6512 22.9536 12.1566 23.4209C12.0737 23.4994 11.9921 23.5172 11.9071 23.4761C11.8621 23.4552 11.8267 23.4179 11.8081 23.3719C11.7895 23.3259 11.789 23.2745 11.8069 23.2282C11.8584 23.0949 11.915 22.9636 11.9698 22.8316C12.0583 22.6187 12.1473 22.406 12.2367 22.1934C12.2458 22.1717 12.2381 22.164 12.2214 22.1544C11.9457 21.9959 11.6673 21.8405 11.3951 21.6762C11.366 21.6602 11.3413 21.6375 11.323 21.6099C11.3047 21.5822 11.2934 21.5506 11.2901 21.5176C11.2868 21.4846 11.2915 21.4514 11.3039 21.4206C11.3164 21.3899 11.3361 21.3627 11.3614 21.3413C11.8554 20.8732 12.3495 20.4054 12.8438 19.9376C12.8823 19.8952 12.9349 19.8682 12.9919 19.8618Z" fill="#FFBC5B"/>
<path d="M23.3387 11.2647L22.1023 12.8263C22.0751 12.8608 22.0576 12.902 22.0518 12.9456C22.0459 12.9891 22.052 13.0335 22.0693 13.0739L22.2327 13.4557C22.2476 13.4906 22.2542 13.5284 22.2519 13.5663C22.2496 13.6041 22.2386 13.6409 22.2196 13.6738L19.002 19.247L20.0672 19.862L23.2849 14.2888C23.3038 14.256 23.3302 14.228 23.3618 14.2071C23.3935 14.1862 23.4296 14.173 23.4672 14.1685L23.8795 14.119C23.9232 14.1138 23.9646 14.0969 23.9995 14.0701C24.0343 14.0432 24.0612 14.0075 24.0774 13.9666L24.8116 12.1151C24.8332 12.0606 24.8345 12.0002 24.8152 11.9449C24.796 11.8895 24.7575 11.843 24.7067 11.8137L23.6522 11.2048C23.6015 11.1755 23.5419 11.1655 23.4843 11.1765C23.4268 11.1875 23.3751 11.2188 23.3387 11.2647Z" fill="#EDEDED"/>
<path d="M19.5775 19.4805C19.8598 19.6434 20.0657 19.9118 20.1501 20.2266C20.2344 20.5414 20.1903 20.8768 20.0273 21.1591L18.2634 24.2144C18.1827 24.3542 18.0752 24.4767 17.9472 24.5749C17.8192 24.6732 17.673 24.7452 17.5172 24.787C17.3613 24.8288 17.1987 24.8394 17.0387 24.8184C16.8787 24.7973 16.7244 24.7449 16.5846 24.6642C16.4449 24.5835 16.3224 24.4761 16.2241 24.3481C16.1259 24.22 16.0538 24.0739 16.0121 23.918C15.9703 23.7621 15.9597 23.5995 15.9807 23.4395C16.0018 23.2795 16.0542 23.1253 16.1349 22.9855L17.8989 19.9302C17.9795 19.7905 18.087 19.668 18.215 19.5697C18.343 19.4715 18.4892 19.3994 18.645 19.3576C18.8009 19.3159 18.9635 19.3052 19.1235 19.3263C19.2835 19.3473 19.4378 19.3997 19.5776 19.4804L19.5775 19.4805Z" fill="#343C4A"/>
</g>
<defs>
<clipPath id="clip0_450_885">
<rect width="25" height="25" fill="white"/>
</clipPath>
</defs>
</svg>
