<svg width="20" height="20" viewBox="0 0 20 20" fill="none" xmlns="http://www.w3.org/2000/svg">
<g clip-path="url(#clip0_17_35)">
<path fill-rule="evenodd" clip-rule="evenodd" d="M14.6872 5H13.1253C12.7798 5 12.5003 5.27953 12.5003 5.625V6.87516C12.5003 7.22 12.7798 7.49953 13.1253 7.49953H14.9206C15.8056 7.49953 16.3818 8.25496 16.2121 9.16027L15.8612 11.0321C15.7077 11.8527 14.9304 12.5003 14.1211 12.5003H13.1253C12.7798 12.5003 12.5003 12.7798 12.5003 13.1246V18.4377C12.5003 19.3005 11.8002 19.9996 10.9375 19.9996C10.9256 20.0005 9.90537 19.9996 9.37498 19.9996C9.03013 19.9996 8.74967 19.7201 8.74967 19.3746C8.74967 19.0298 9.03013 18.7496 9.37498 18.7496H10.625C10.9704 18.7496 11.25 18.4701 11.25 18.1252V12.8128C11.25 11.9494 11.9494 11.25 12.8128 11.25H13.9422C14.2676 11.25 14.6005 10.9903 14.6872 10.6628L15.0186 9.41465C15.1153 9.05102 14.9087 8.74969 14.5556 8.74969H12.8128C11.9494 8.74969 11.2499 8.05039 11.2499 7.18707V5.3125C11.2499 4.44914 11.9494 3.74988 12.8128 3.74988H14.3746C14.7201 3.74988 14.9996 3.4702 14.9996 3.12473V1.87453C14.9996 1.52984 14.7201 1.25016 14.3746 1.25016H11.8753C10.1492 1.25016 8.74963 2.64895 8.74963 4.37484V7.18703C8.74963 8.05035 8.05049 8.74965 7.18775 8.74965H6.2649C5.91181 8.74965 5.62494 9.05102 5.62494 9.41461V10.6628C5.62494 10.9902 5.88861 11.2499 6.21361 11.2499H7.18775C8.05049 11.2499 8.74963 11.9494 8.74963 12.8127V14.3746C8.74963 14.72 8.4701 14.9999 8.12525 14.9999C7.77978 14.9999 7.50025 14.72 7.50025 14.3746V13.1246C7.50025 12.7798 7.2201 12.5002 6.87525 12.5002H5.8401C5.03076 12.5002 4.37494 11.8527 4.37494 11.032V9.16023C4.37494 8.25492 5.0924 7.49949 5.9774 7.49949H6.87521C7.22006 7.49949 7.50021 7.21996 7.50021 6.87512V4.0623C7.50029 1.81855 9.31881 0 11.5625 0H14.6872C15.5505 0 16.25 0.699297 16.25 1.56203V3.43719C16.25 4.30051 15.5505 5 14.6872 5ZM8.12529 16.2499C8.47013 16.2499 8.74967 16.5295 8.74967 16.8749C8.74967 17.2198 8.47013 17.5002 8.12529 17.5002C7.77982 17.5002 7.50029 17.2198 7.50029 16.8749C7.50029 16.5295 7.77982 16.2499 8.12529 16.2499Z" fill="#3B5998"/>
</g>
<defs>
<clipPath id="clip0_17_35">
<rect width="20" height="20" fill="white"/>
</clipPath>
</defs>
</svg>
