<svg width="25" height="25" viewBox="0 0 25 25" fill="none" xmlns="http://www.w3.org/2000/svg">
<path d="M19.7266 24.2169C18.8767 24.2169 18.046 23.9649 17.3393 23.4927C16.6327 23.0206 16.082 22.3495 15.7568 21.5643C15.4315 20.7792 15.3465 19.9152 15.5123 19.0817C15.678 18.2482 16.0873 17.4826 16.6882 16.8816C17.2891 16.2807 18.0548 15.8715 18.8883 15.7057C19.7218 15.5399 20.5858 15.625 21.3709 15.9502C22.1561 16.2754 22.8271 16.8262 23.2993 17.5328C23.7714 18.2394 24.0234 19.0701 24.0234 19.92C24.0222 21.0592 23.569 22.1514 22.7635 22.9569C21.958 23.7625 20.8658 24.2156 19.7266 24.2169ZM19.7266 16.4044C19.0312 16.4044 18.3515 16.6105 17.7734 16.9969C17.1952 17.3832 16.7446 17.9322 16.4786 18.5746C16.2125 19.217 16.1428 19.9239 16.2785 20.6059C16.4141 21.2878 16.749 21.9142 17.2406 22.4059C17.7323 22.8976 18.3587 23.2324 19.0407 23.3681C19.7227 23.5037 20.4295 23.4341 21.0719 23.168C21.7143 22.9019 22.2634 22.4513 22.6497 21.8732C23.036 21.295 23.2422 20.6153 23.2422 19.92C23.2412 18.9879 22.8705 18.0943 22.2114 17.4352C21.5523 16.7761 20.6587 16.4054 19.7266 16.4044Z" fill="black"/>
<path d="M19.7266 22.6544C19.6599 22.6544 19.5944 22.6373 19.5362 22.6047C19.1215 22.3821 18.7749 22.0512 18.5333 21.6472C18.2917 21.2432 18.1641 20.7813 18.1641 20.3106C18.1641 19.8399 18.2917 19.378 18.5333 18.974C18.7749 18.57 19.1215 18.2391 19.5362 18.0164C19.5943 17.9838 19.6599 17.9666 19.7266 17.9666C19.7932 17.9666 19.8588 17.9838 19.9169 18.0164C20.3316 18.2391 20.6782 18.57 20.9198 18.974C21.1615 19.378 21.2891 19.8399 21.2891 20.3106C21.2891 20.7813 21.1615 21.2432 20.9198 21.6472C20.6782 22.0512 20.3316 22.3821 19.9169 22.6047C19.8588 22.6373 19.7932 22.6544 19.7266 22.6544ZM19.7266 18.8198C19.4855 18.9867 19.2885 19.2095 19.1525 19.4692C19.0164 19.7288 18.9453 20.0176 18.9453 20.3108C18.9453 20.604 19.0164 20.8927 19.1525 21.1524C19.2885 21.4121 19.4855 21.6349 19.7266 21.8018C19.9676 21.6349 20.1646 21.4121 20.3007 21.1524C20.4367 20.8927 20.5078 20.604 20.5078 20.3108C20.5078 20.0176 20.4367 19.7288 20.3007 19.4692C20.1646 19.2095 19.9676 18.9867 19.7266 18.8198Z" fill="black"/>
<path d="M20.7538 19.92H18.6992C18.5956 19.92 18.4963 19.8788 18.423 19.8056C18.3497 19.7323 18.3086 19.633 18.3086 19.5294C18.3086 19.4258 18.3497 19.3264 18.423 19.2532C18.4963 19.1799 18.5956 19.1387 18.6992 19.1387H20.7538C20.8574 19.1387 20.9568 19.1799 21.03 19.2532C21.1033 19.3264 21.1444 19.4258 21.1444 19.5294C21.1444 19.633 21.1033 19.7323 21.03 19.8056C20.9568 19.8788 20.8574 19.92 20.7538 19.92ZM19.9642 18.9003C19.8955 18.9003 19.8281 18.8821 19.7687 18.8477C19.7093 18.8133 19.66 18.7638 19.6259 18.7043C19.5917 18.6447 19.5738 18.5773 19.574 18.5086C19.5741 18.44 19.5924 18.3726 19.627 18.3132L20.1702 17.3798C20.2223 17.2902 20.3078 17.2251 20.408 17.1986C20.5081 17.1721 20.6147 17.1865 20.7042 17.2386C20.7938 17.2907 20.8589 17.3763 20.8854 17.4764C20.9119 17.5766 20.8975 17.6832 20.8454 17.7727L20.3022 18.7062C20.2678 18.7653 20.2185 18.8144 20.1592 18.8485C20.0998 18.8826 20.0326 18.9004 19.9642 18.9003Z" fill="black"/>
<path d="M19.4889 18.9003C19.4205 18.9004 19.3532 18.8826 19.2939 18.8485C19.2346 18.8144 19.1853 18.7653 19.1509 18.7061L18.6077 17.7727C18.5556 17.6831 18.5412 17.5766 18.5677 17.4764C18.5941 17.3763 18.6593 17.2907 18.7489 17.2386C18.8384 17.1865 18.945 17.1721 19.0451 17.1986C19.1453 17.2251 19.2308 17.2902 19.2829 17.3798L19.8261 18.3132C19.8606 18.3726 19.8789 18.4399 19.8791 18.5086C19.8793 18.5772 19.8614 18.6447 19.8272 18.7042C19.793 18.7638 19.7438 18.8132 19.6844 18.8477C19.625 18.8821 19.5576 18.9002 19.4889 18.9003ZM22.0703 20.7012H20.8984C20.7948 20.7012 20.6955 20.6601 20.6222 20.5868C20.549 20.5136 20.5078 20.4142 20.5078 20.3106C20.5078 20.207 20.549 20.1076 20.6222 20.0344C20.6955 19.9611 20.7948 19.92 20.8984 19.92H22.0703C22.1739 19.92 22.2733 19.9611 22.3465 20.0344C22.4198 20.1076 22.4609 20.207 22.4609 20.3106C22.4609 20.4142 22.4198 20.5136 22.3465 20.5868C22.2733 20.6601 22.1739 20.7012 22.0703 20.7012ZM18.5547 20.7012H17.3828C17.2792 20.7012 17.1799 20.6601 17.1066 20.5868C17.0333 20.5136 16.9922 20.4142 16.9922 20.3106C16.9922 20.207 17.0333 20.1076 17.1066 20.0344C17.1799 19.9611 17.2792 19.92 17.3828 19.92H18.5547C18.6583 19.92 18.7576 19.9611 18.8309 20.0344C18.9042 20.1076 18.9453 20.207 18.9453 20.3106C18.9453 20.4142 18.9042 20.5136 18.8309 20.5868C18.7576 20.6601 18.6583 20.7012 18.5547 20.7012ZM17.1669 23.2613C17.0897 23.2612 17.0141 23.2383 16.9499 23.1954C16.8857 23.1525 16.8357 23.0915 16.8061 23.0201C16.7765 22.9487 16.7688 22.8702 16.7839 22.7945C16.7989 22.7187 16.8361 22.6491 16.8907 22.5945L22.4007 17.0841C22.4739 17.0109 22.5733 16.9697 22.6768 16.9697C22.7804 16.9697 22.8798 17.0109 22.953 17.0841C23.0263 17.1574 23.0674 17.2567 23.0674 17.3603C23.0674 17.4639 23.0263 17.5632 22.953 17.6365L17.4431 23.1468C17.4069 23.1832 17.3638 23.212 17.3164 23.2316C17.269 23.2512 17.2182 23.2613 17.1669 23.2613ZM21.6797 22.6543C21.6284 22.6544 21.5776 22.6443 21.5302 22.6247C21.4828 22.605 21.4397 22.5762 21.4035 22.5399L20.4033 21.5397C20.367 21.5034 20.3382 21.4604 20.3186 21.413C20.299 21.3656 20.2889 21.3148 20.2889 21.2635C20.2889 21.2122 20.299 21.1614 20.3186 21.114C20.3382 21.0667 20.367 21.0236 20.4033 20.9873C20.4396 20.9511 20.4826 20.9223 20.53 20.9027C20.5774 20.883 20.6282 20.8729 20.6795 20.8729C20.7308 20.8729 20.7816 20.883 20.8289 20.9027C20.8763 20.9223 20.9194 20.9511 20.9557 20.9873L21.9559 21.9875C22.0105 22.0422 22.0477 22.1118 22.0627 22.1875C22.0778 22.2633 22.0701 22.3418 22.0405 22.4132C22.0109 22.4846 21.9609 22.5456 21.8967 22.5885C21.8324 22.6314 21.7569 22.6543 21.6797 22.6543ZM18.7737 19.7487C18.7223 19.7488 18.6715 19.7387 18.6241 19.719C18.5767 19.6994 18.5337 19.6706 18.4975 19.6342L17.4973 18.6337C17.4248 18.5603 17.3843 18.4612 17.3846 18.358C17.3849 18.2548 17.426 18.156 17.499 18.083C17.5719 18.0101 17.6708 17.969 17.7739 17.9686C17.8771 17.9683 17.9762 18.0088 18.0496 18.0813L19.0498 19.0819C19.1044 19.1365 19.1416 19.2061 19.1567 19.2819C19.1718 19.3576 19.164 19.4362 19.1345 19.5075C19.1049 19.5789 19.0549 19.6399 18.9906 19.6828C18.9264 19.7257 18.8509 19.7487 18.7737 19.7487ZM1.36719 21.0934C1.31588 21.0934 1.26507 21.0833 1.21767 21.0637C1.17026 21.0441 1.12719 21.0153 1.09091 20.979C1.05463 20.9427 1.02586 20.8997 1.00624 20.8523C0.986616 20.8049 0.976533 20.754 0.976563 20.7027C0.977589 19.7704 1.3484 18.8766 2.00763 18.2174C2.66686 17.5582 3.56067 17.1874 4.49297 17.1863C4.59657 17.1863 4.69593 17.2275 4.76918 17.3007C4.84244 17.374 4.88359 17.4734 4.88359 17.577C4.88359 17.6806 4.84244 17.7799 4.76918 17.8532C4.69593 17.9264 4.59657 17.9676 4.49297 17.9676C3.76779 17.9683 3.07254 18.2568 2.55976 18.7695C2.04698 19.2823 1.75857 19.9776 1.75781 20.7027C1.75784 20.754 1.74776 20.8049 1.72814 20.8523C1.70852 20.8997 1.67975 20.9427 1.64347 20.979C1.60719 21.0153 1.56411 21.0441 1.51671 21.0637C1.4693 21.0833 1.41849 21.0934 1.36719 21.0934ZM16.4742 18.1461C16.4297 18.1461 16.3856 18.1385 16.3437 18.1236C16.0501 18.02 15.741 17.9672 15.4297 17.9676C15.3261 17.9676 15.2267 17.9265 15.1535 17.8532C15.0802 17.7799 15.0391 17.6806 15.0391 17.577C15.0391 17.4734 15.0802 17.374 15.1535 17.3008C15.2267 17.2275 15.3261 17.1864 15.4297 17.1864C15.8299 17.1859 16.2273 17.2539 16.6046 17.3874C16.6914 17.4182 16.7646 17.4786 16.8111 17.5581C16.8577 17.6376 16.8746 17.731 16.859 17.8217C16.8434 17.9125 16.7962 17.9948 16.7258 18.0542C16.6554 18.1136 16.5663 18.1461 16.4742 18.1461Z" fill="black"/>
<path d="M7.22656 17.9676H4.49297C4.38937 17.9676 4.29001 17.9265 4.21676 17.8532C4.1435 17.78 4.10234 17.6806 4.10234 17.577C4.10234 17.4734 4.1435 17.374 4.21676 17.3008C4.29001 17.2275 4.38937 17.1864 4.49297 17.1864H7.22656C7.33016 17.1864 7.42952 17.2275 7.50278 17.3008C7.57603 17.374 7.61719 17.4734 7.61719 17.577C7.61719 17.6806 7.57603 17.78 7.50278 17.8532C7.42952 17.9265 7.33016 17.9676 7.22656 17.9676ZM15.4297 17.9676H12.6953C12.5917 17.9676 12.4924 17.9265 12.4191 17.8532C12.3458 17.78 12.3047 17.6806 12.3047 17.577C12.3047 17.4734 12.3458 17.374 12.4191 17.3008C12.4924 17.2275 12.5917 17.1864 12.6953 17.1864H15.4297C15.5333 17.1864 15.6326 17.2275 15.7059 17.3008C15.7792 17.374 15.8203 17.4734 15.8203 17.577C15.8203 17.6806 15.7792 17.78 15.7059 17.8532C15.6326 17.9265 15.5333 17.9676 15.4297 17.9676ZM1.36797 24.2169C1.26437 24.2169 1.16502 24.1757 1.09176 24.1024C1.01851 24.0292 0.97735 23.9298 0.977344 23.8262L0.976562 20.7028C0.976562 20.5991 1.01772 20.4998 1.09097 20.4265C1.16423 20.3533 1.26359 20.3121 1.36719 20.3121C1.47079 20.3121 1.57014 20.3533 1.6434 20.4265C1.71666 20.4998 1.75781 20.5991 1.75781 20.7028L1.75857 23.8262C1.75858 23.9298 1.71742 24.0292 1.64417 24.1024C1.57092 24.1757 1.47157 24.2169 1.36797 24.2169ZM18.5547 24.2169C18.5034 24.2169 18.4526 24.2068 18.4052 24.1872C18.3578 24.1676 18.3147 24.1388 18.2784 24.1025C18.2421 24.0662 18.2134 24.0232 18.1937 23.9758C18.1741 23.9283 18.164 23.8775 18.1641 23.8262V23.6465C18.1641 23.5429 18.2052 23.4436 18.2785 23.3703C18.3517 23.2971 18.4511 23.2559 18.5547 23.2559C18.6583 23.2559 18.7576 23.2971 18.8309 23.3703C18.9042 23.4436 18.9453 23.5429 18.9453 23.6465V23.8262C18.9453 23.8775 18.9353 23.9283 18.9156 23.9758C18.896 24.0232 18.8672 24.0662 18.831 24.1025C18.7947 24.1388 18.7516 24.1676 18.7042 24.1872C18.6568 24.2068 18.606 24.2169 18.5547 24.2169Z" fill="black"/>
<path d="M7.22656 17.9676C7.17526 17.9677 7.12445 17.9576 7.07704 17.9379C7.02964 17.9183 6.98656 17.8896 6.95028 17.8533C6.91401 17.817 6.88523 17.7739 6.86561 17.7265C6.84599 17.6791 6.83591 17.6283 6.83594 17.577V15.3385C6.83594 15.2349 6.87709 15.1356 6.95035 15.0623C7.02361 14.9891 7.12296 14.9479 7.22656 14.9479C7.33016 14.9479 7.42952 14.9891 7.50278 15.0623C7.57603 15.1356 7.61719 15.2349 7.61719 15.3385V17.577C7.61722 17.6283 7.60713 17.6791 7.58751 17.7265C7.56789 17.7739 7.53912 17.817 7.50284 17.8533C7.46656 17.8896 7.42349 17.9183 7.37608 17.9379C7.32868 17.9576 7.27787 17.9677 7.22656 17.9676ZM12.6953 17.9676C12.644 17.9677 12.5932 17.9576 12.5458 17.9379C12.4984 17.9183 12.4553 17.8896 12.419 17.8533C12.3828 17.817 12.354 17.7739 12.3344 17.7265C12.3147 17.6791 12.3047 17.6283 12.3047 17.577V15.3385C12.3047 15.2349 12.3458 15.1356 12.4191 15.0623C12.4924 14.9891 12.5917 14.9479 12.6953 14.9479C12.7989 14.9479 12.8983 14.9891 12.9715 15.0623C13.0448 15.1356 13.0859 15.2349 13.0859 15.3385V17.577C13.086 17.6283 13.0759 17.6791 13.0563 17.7265C13.0366 17.7739 13.0079 17.817 12.9716 17.8533C12.9353 17.8896 12.8922 17.9183 12.8448 17.9379C12.7974 17.9576 12.7466 17.9677 12.6953 17.9676Z" fill="black"/>
<path d="M9.96094 16.4051C8.30392 16.4032 6.7153 15.7441 5.54361 14.5724C4.37192 13.4008 3.71283 11.8121 3.71094 10.1551C3.71094 10.0515 3.75209 9.95216 3.82535 9.87891C3.89861 9.80565 3.99796 9.76449 4.10156 9.76449C4.20516 9.76449 4.30452 9.80565 4.37778 9.87891C4.45103 9.95216 4.49219 10.0515 4.49219 10.1551C4.49219 11.6055 5.06836 12.9965 6.09395 14.0221C7.11954 15.0477 8.51053 15.6239 9.96094 15.6239C11.4113 15.6239 12.8023 15.0477 13.8279 14.0221C14.8535 12.9965 15.4297 11.6055 15.4297 10.1551C15.4297 10.0515 15.4708 9.95216 15.5441 9.87891C15.6174 9.80565 15.7167 9.76449 15.8203 9.76449C15.9239 9.76449 16.0233 9.80565 16.0965 9.87891C16.1698 9.95216 16.2109 10.0515 16.2109 10.1551C16.209 11.8121 15.55 13.4008 14.3783 14.5724C13.2066 15.7441 11.618 16.4032 9.96094 16.4051ZM15.8203 7.41998C15.769 7.42001 15.7182 7.40993 15.6708 7.39031C15.6234 7.37069 15.5803 7.34192 15.544 7.30564C15.5078 7.26936 15.479 7.22628 15.4594 7.17888C15.4397 7.13147 15.4297 7.08066 15.4297 7.02936C15.4297 5.57895 14.8535 4.18796 13.8279 3.16237C12.8023 2.13678 11.4113 1.56061 9.96094 1.56061C8.51053 1.56061 7.11954 2.13678 6.09395 3.16237C5.06836 4.18796 4.49219 5.57895 4.49219 7.02936C4.49219 7.13296 4.45103 7.23232 4.37778 7.30557C4.30452 7.37883 4.20516 7.41998 4.10156 7.41998C3.99796 7.41998 3.89861 7.37883 3.82535 7.30557C3.75209 7.23232 3.71094 7.13296 3.71094 7.02936C3.71094 5.37175 4.36942 3.78204 5.54152 2.60994C6.71362 1.43784 8.30333 0.779358 9.96094 0.779358C11.6185 0.779358 13.2083 1.43784 14.3804 2.60994C15.5525 3.78204 16.2109 5.37175 16.2109 7.02936C16.211 7.08066 16.2009 7.13147 16.1813 7.17888C16.1616 7.22628 16.1329 7.26936 16.0966 7.30564C16.0603 7.34192 16.0172 7.37069 15.9698 7.39031C15.9224 7.40993 15.8716 7.42001 15.8203 7.41998Z" fill="black"/>
<path d="M14.6484 8.98248C14.5971 8.98251 14.5463 8.97243 14.4989 8.95281C14.4515 8.93319 14.4084 8.90442 14.3722 8.86814C14.3359 8.83186 14.3071 8.78878 14.2875 8.74138C14.2679 8.69397 14.2578 8.64316 14.2578 8.59186C14.2578 7.45226 13.8051 6.35933 12.9993 5.55351C12.1935 4.74769 11.1005 4.29498 9.96094 4.29498C8.82134 4.29498 7.72841 4.74769 6.92259 5.55351C6.11677 6.35933 5.66406 7.45226 5.66406 8.59186C5.66406 8.69546 5.62291 8.79482 5.54965 8.86807C5.47639 8.94133 5.37704 8.98248 5.27344 8.98248C5.16984 8.98248 5.07048 8.94133 4.99722 8.86807C4.92397 8.79482 4.88281 8.69546 4.88281 8.59186C4.88281 7.24505 5.41783 5.95341 6.37016 5.00108C7.32249 4.04875 8.61413 3.51373 9.96094 3.51373C11.3077 3.51373 12.5994 4.04875 13.5517 5.00108C14.504 5.95341 15.0391 7.24505 15.0391 8.59186C15.0391 8.64316 15.029 8.69397 15.0094 8.74138C14.9898 8.78878 14.961 8.83186 14.9247 8.86814C14.8884 8.90442 14.8454 8.93319 14.798 8.95281C14.7506 8.97243 14.6997 8.98251 14.6484 8.98248ZM9.96094 15.2386C8.61299 15.237 7.32069 14.7009 6.36754 13.7478C5.4144 12.7946 4.87825 11.5023 4.87671 10.1544C4.87671 10.0508 4.91787 9.9514 4.99112 9.87814C5.06438 9.80489 5.16374 9.76373 5.26734 9.76373C5.37094 9.76373 5.47029 9.80489 5.54355 9.87814C5.61681 9.9514 5.65796 10.0508 5.65796 10.1544C5.65905 11.2949 6.11288 12.3883 6.91972 13.1944C7.72657 14.0005 8.82043 14.4532 9.96094 14.4532C11.1015 14.4532 12.1953 14.0005 13.0022 13.1944C13.809 12.3883 14.2628 11.2949 14.2639 10.1544C14.2639 10.0508 14.3051 9.9514 14.3783 9.87814C14.4516 9.80489 14.5509 9.76373 14.6545 9.76373C14.7581 9.76373 14.8575 9.80489 14.9308 9.87814C15.004 9.9514 15.0452 10.0508 15.0452 10.1544C15.0436 11.5023 14.5075 12.7946 13.5543 13.7478C12.6012 14.7009 11.3089 15.237 9.96094 15.2386ZM15.8203 10.5457C15.769 10.5458 15.7182 10.5357 15.6708 10.5161C15.6234 10.4964 15.5803 10.4677 15.544 10.4314C15.5078 10.3951 15.479 10.352 15.4594 10.3046C15.4397 10.2572 15.4297 10.2064 15.4297 10.1551V7.02934C15.4297 6.92574 15.4708 6.82638 15.5441 6.75312C15.6174 6.67987 15.7167 6.63871 15.8203 6.63871C15.9239 6.63871 16.0233 6.67987 16.0965 6.75312C16.1698 6.82638 16.2109 6.92574 16.2109 7.02934V10.1551C16.211 10.2064 16.2009 10.2572 16.1813 10.3046C16.1616 10.352 16.1329 10.3951 16.0966 10.4314C16.0603 10.4677 16.0172 10.4964 15.9698 10.5161C15.9224 10.5357 15.8716 10.5458 15.8203 10.5457ZM4.10156 10.5457C4.05026 10.5458 3.99945 10.5357 3.95204 10.5161C3.90464 10.4964 3.86156 10.4677 3.82528 10.4314C3.78901 10.3951 3.76023 10.352 3.74061 10.3046C3.72099 10.2572 3.71091 10.2064 3.71094 10.1551V7.02934C3.71094 6.92574 3.75209 6.82638 3.82535 6.75312C3.89861 6.67987 3.99796 6.63871 4.10156 6.63871C4.20516 6.63871 4.30452 6.67987 4.37778 6.75312C4.45103 6.82638 4.49219 6.92574 4.49219 7.02934V10.1551C4.49222 10.2064 4.48213 10.2572 4.46251 10.3046C4.44289 10.352 4.41412 10.3951 4.37784 10.4314C4.34156 10.4677 4.29849 10.4964 4.25108 10.5161C4.20368 10.5357 4.15287 10.5458 4.10156 10.5457ZM9.96018 18.7527C7.86857 18.7527 6.98586 17.8936 6.94963 17.857C6.87711 17.7839 6.83639 17.6851 6.8363 17.5822C6.83622 17.4792 6.87679 17.3804 6.94919 17.3072C7.02158 17.234 7.11995 17.1923 7.2229 17.1913C7.32585 17.1902 7.42505 17.2299 7.49893 17.3016C7.51648 17.318 8.23441 17.9714 9.96018 17.9714C11.6985 17.9714 12.4146 17.3081 12.4214 17.3016C12.496 17.2305 12.5955 17.1915 12.6985 17.193C12.8015 17.1945 12.8998 17.2364 12.9723 17.3096C13.0443 17.3825 13.0847 17.481 13.0844 17.5836C13.0841 17.6862 13.0432 17.7844 12.9707 17.857C12.9345 17.8936 12.0518 18.7527 9.96018 18.7527Z" fill="black"/>
<path d="M9.96018 24.2207C9.90887 24.2207 9.85806 24.2106 9.81066 24.191C9.76325 24.1714 9.72018 24.1426 9.6839 24.1063C9.64762 24.0701 9.61884 24.027 9.59923 23.9796C9.5796 23.9322 9.56952 23.8814 9.56955 23.8301V16.0183C9.56955 15.9147 9.61071 15.8154 9.68396 15.7421C9.75722 15.6689 9.85658 15.6277 9.96018 15.6277C10.0638 15.6277 10.1631 15.6689 10.2364 15.7421C10.3096 15.8154 10.3508 15.9147 10.3508 16.0183V23.8301C10.3508 23.8814 10.3407 23.9322 10.3211 23.9796C10.3015 24.027 10.2727 24.0701 10.2365 24.1063C10.2002 24.1426 10.1571 24.1714 10.1097 24.191C10.0623 24.2106 10.0115 24.2207 9.96018 24.2207ZM8.00781 24.2207C7.95651 24.2207 7.9057 24.2106 7.85829 24.191C7.81089 24.1714 7.76781 24.1426 7.73153 24.1063C7.69525 24.0701 7.66648 24.027 7.64686 23.9796C7.62724 23.9322 7.61716 23.8814 7.61719 23.8301V21.4863H3.71094V23.8301C3.71094 23.9337 3.66978 24.033 3.59653 24.1063C3.52327 24.1795 3.42391 24.2207 3.32031 24.2207C3.21671 24.2207 3.11736 24.1795 3.0441 24.1063C2.97084 24.033 2.92969 23.9337 2.92969 23.8301V21.0957C2.92966 21.0444 2.93974 20.9936 2.95936 20.9462C2.97898 20.8988 3.00775 20.8557 3.04403 20.8194C3.08031 20.7831 3.12339 20.7544 3.17079 20.7347C3.2182 20.7151 3.26901 20.705 3.32031 20.7051H8.00781C8.05912 20.705 8.10993 20.7151 8.15733 20.7347C8.20474 20.7544 8.24781 20.7831 8.28409 20.8194C8.32037 20.8557 8.34914 20.8988 8.36876 20.9462C8.38838 20.9936 8.39847 21.0444 8.39844 21.0957V23.8301C8.39847 23.8814 8.38838 23.9322 8.36876 23.9796C8.34914 24.027 8.32037 24.0701 8.28409 24.1063C8.24781 24.1426 8.20474 24.1714 8.15733 24.191C8.10993 24.2106 8.05912 24.2207 8.00781 24.2207Z" fill="black"/>
<path d="M8.00781 23.0488H3.32031C3.21671 23.0488 3.11736 23.0076 3.0441 22.9344C2.97084 22.8611 2.92969 22.7618 2.92969 22.6582C2.92969 22.5546 2.97084 22.4552 3.0441 22.382C3.11736 22.3087 3.21671 22.2675 3.32031 22.2675H8.00781C8.11141 22.2675 8.21077 22.3087 8.28403 22.382C8.35728 22.4552 8.39844 22.5546 8.39844 22.6582C8.39844 22.7618 8.35728 22.8611 8.28403 22.9344C8.21077 23.0076 8.11141 23.0488 8.00781 23.0488Z" fill="black"/>
<path d="M5.66406 23.4394C5.61276 23.4395 5.56195 23.4294 5.51454 23.4097C5.46714 23.3901 5.42406 23.3614 5.38778 23.3251C5.3515 23.2888 5.32273 23.2457 5.30311 23.1983C5.28349 23.1509 5.27341 23.1001 5.27344 23.0488V22.2679C5.27344 22.1643 5.31459 22.065 5.38785 21.9917C5.46111 21.9185 5.56046 21.8773 5.66406 21.8773C5.76766 21.8773 5.86702 21.9185 5.94028 21.9917C6.01353 22.065 6.05469 22.1643 6.05469 22.2679V23.0488C6.05472 23.1001 6.04463 23.1509 6.02501 23.1983C6.00539 23.2457 5.97662 23.2888 5.94034 23.3251C5.90406 23.3614 5.86099 23.3901 5.81358 23.4097C5.76618 23.4294 5.71537 23.4395 5.66406 23.4394ZM11.9141 24.2207C11.8628 24.2207 11.8119 24.2106 11.7645 24.191C11.7171 24.1714 11.6741 24.1426 11.6378 24.1063C11.6015 24.07 11.5727 24.027 11.5531 23.9796C11.5335 23.9322 11.5234 23.8814 11.5234 23.83V21.0957C11.5234 21.0444 11.5335 20.9936 11.5531 20.9462C11.5727 20.8987 11.6015 20.8557 11.6378 20.8194C11.6741 20.7831 11.7171 20.7543 11.7645 20.7347C11.8119 20.7151 11.8628 20.705 11.9141 20.705H16.0004C16.104 20.705 16.2033 20.7462 16.2766 20.8195C16.3498 20.8927 16.391 20.9921 16.391 21.0957C16.391 21.1993 16.3498 21.2986 16.2766 21.3719C16.2033 21.4451 16.104 21.4863 16.0004 21.4863H12.3047V23.83C12.3047 23.8814 12.2946 23.9322 12.275 23.9796C12.2554 24.027 12.2266 24.07 12.1903 24.1063C12.1541 24.1426 12.111 24.1714 12.0636 24.191C12.0162 24.2106 11.9654 24.2207 11.9141 24.2207ZM16.6016 24.2207C16.5503 24.2207 16.4994 24.2106 16.452 24.191C16.4046 24.1714 16.3616 24.1426 16.3253 24.1063C16.289 24.07 16.2602 24.027 16.2406 23.9796C16.221 23.9322 16.2109 23.8814 16.2109 23.83V22.2637C16.2109 22.1601 16.2521 22.0608 16.3253 21.9875C16.3986 21.9143 16.498 21.8731 16.6016 21.8731C16.7052 21.8731 16.8045 21.9143 16.8778 21.9875C16.951 22.0608 16.9922 22.1601 16.9922 22.2637V23.83C16.9922 23.8814 16.9821 23.9322 16.9625 23.9796C16.9429 24.027 16.9141 24.07 16.8778 24.1063C16.8416 24.1426 16.7985 24.1714 16.7511 24.191C16.7037 24.2106 16.6529 24.2207 16.6016 24.2207Z" fill="black"/>
<path d="M16.6016 23.0488H11.9141C11.8105 23.0488 11.7111 23.0076 11.6378 22.9344C11.5646 22.8611 11.5234 22.7618 11.5234 22.6582C11.5234 22.5546 11.5646 22.4552 11.6378 22.382C11.7111 22.3087 11.8105 22.2675 11.9141 22.2675H16.6016C16.7052 22.2675 16.8045 22.3087 16.8778 22.382C16.951 22.4552 16.9922 22.5546 16.9922 22.6582C16.9922 22.7618 16.951 22.8611 16.8778 22.9344C16.8045 23.0076 16.7052 23.0488 16.6016 23.0488Z" fill="black"/>
<path d="M14.2578 23.4394C14.2065 23.4394 14.1557 23.4294 14.1083 23.4097C14.0609 23.3901 14.0178 23.3614 13.9815 23.3251C13.9453 23.2888 13.9165 23.2457 13.8969 23.1983C13.8772 23.1509 13.8672 23.1001 13.8672 23.0488V22.2679C13.8672 22.1643 13.9083 22.065 13.9816 21.9917C14.0549 21.9185 14.1542 21.8773 14.2578 21.8773C14.3614 21.8773 14.4608 21.9185 14.534 21.9917C14.6073 22.065 14.6484 22.1643 14.6484 22.2679V23.0488C14.6485 23.1001 14.6384 23.1509 14.6188 23.1983C14.5991 23.2457 14.5704 23.2888 14.5341 23.3251C14.4978 23.3614 14.4547 23.3901 14.4073 23.4097C14.3599 23.4294 14.3091 23.4394 14.2578 23.4394ZM5.27344 10.545C5.22213 10.545 5.17132 10.5349 5.12392 10.5153C5.07651 10.4957 5.03344 10.4669 4.99716 10.4306C4.96088 10.3944 4.93211 10.3513 4.91249 10.3039C4.89287 10.2565 4.88278 10.2057 4.88281 10.1544V8.59186C4.88281 8.48826 4.92397 8.3889 4.99722 8.31564C5.07048 8.24239 5.16984 8.20123 5.27344 8.20123C5.37704 8.20123 5.47639 8.24239 5.54965 8.31564C5.62291 8.3889 5.66406 8.48826 5.66406 8.59186V10.1544C5.66409 10.2057 5.65401 10.2565 5.63439 10.3039C5.61477 10.3513 5.58599 10.3944 5.54972 10.4306C5.51344 10.4669 5.47036 10.4957 5.42296 10.5153C5.37555 10.5349 5.32474 10.545 5.27344 10.545ZM14.6545 10.545C14.6032 10.545 14.5524 10.5349 14.505 10.5153C14.4576 10.4957 14.4145 10.4669 14.3783 10.4306C14.342 10.3944 14.3132 10.3513 14.2936 10.3039C14.274 10.2565 14.2639 10.2057 14.2639 10.1544V8.59186C14.2639 8.48826 14.3051 8.3889 14.3783 8.31564C14.4516 8.24239 14.5509 8.20123 14.6545 8.20123C14.7581 8.20123 14.8575 8.24239 14.9308 8.31564C15.004 8.3889 15.0452 8.48826 15.0452 8.59186V10.1544C15.0452 10.2057 15.0351 10.2565 15.0155 10.3039C14.9959 10.3513 14.9671 10.3944 14.9308 10.4306C14.8945 10.4669 14.8515 10.4957 14.8041 10.5153C14.7567 10.5349 14.7058 10.545 14.6545 10.545Z" fill="black"/>
<path d="M7.61719 12.1075C6.89199 12.1075 6.19649 11.8194 5.68369 11.3066C5.1709 10.7938 4.88281 10.0983 4.88281 9.37311C4.88281 8.64791 5.1709 7.95241 5.68369 7.43961C6.19649 6.92682 6.89199 6.63873 7.61719 6.63873C7.72079 6.63873 7.82014 6.67989 7.8934 6.75314C7.96666 6.8264 8.00781 6.92576 8.00781 7.02936C8.00781 7.13296 7.96666 7.23232 7.8934 7.30557C7.82014 7.37883 7.72079 7.41998 7.61719 7.41998C7.2309 7.41998 6.85328 7.53453 6.53209 7.74914C6.2109 7.96376 5.96056 8.26879 5.81274 8.62568C5.66491 8.98257 5.62623 9.37527 5.70159 9.75414C5.77695 10.133 5.96297 10.481 6.23612 10.7542C6.50927 11.0273 6.85728 11.2133 7.23615 11.2887C7.61502 11.3641 8.00773 11.3254 8.36462 11.1776C8.7215 11.0297 9.02654 10.7794 9.24115 10.4582C9.45576 10.137 9.57031 9.7594 9.57031 9.37311C9.57031 9.26951 9.61147 9.17015 9.68472 9.09689C9.75798 9.02364 9.85734 8.98248 9.96094 8.98248C10.0645 8.98248 10.1639 9.02364 10.2372 9.09689C10.3104 9.17015 10.3516 9.26951 10.3516 9.37311C10.3507 10.098 10.0623 10.793 9.54971 11.3056C9.03711 11.8182 8.34212 12.1066 7.61719 12.1075Z" fill="black"/>
<path d="M12.3047 12.1075C11.5798 12.1066 10.8848 11.8182 10.3722 11.3056C9.85956 10.793 9.57119 10.098 9.57031 9.37311C9.57031 9.26951 9.61147 9.17015 9.68472 9.09689C9.75798 9.02364 9.85734 8.98248 9.96094 8.98248C10.0645 8.98248 10.1639 9.02364 10.2372 9.09689C10.3104 9.17015 10.3516 9.26951 10.3516 9.37311C10.3516 9.7594 10.4661 10.137 10.6807 10.4582C10.8953 10.7794 11.2004 11.0297 11.5573 11.1776C11.9141 11.3254 12.3069 11.3641 12.6857 11.2887C13.0646 11.2133 13.4126 11.0273 13.6858 10.7542C13.9589 10.481 14.1449 10.133 14.2203 9.75414C14.2956 9.37527 14.257 8.98257 14.1091 8.62568C13.9613 8.26879 13.711 7.96376 13.3898 7.74914C13.0686 7.53453 12.691 7.41998 12.3047 7.41998C12.2011 7.41998 12.1017 7.37883 12.0285 7.30557C11.9552 7.23232 11.9141 7.13296 11.9141 7.02936C11.9141 6.92576 11.9552 6.8264 12.0285 6.75314C12.1017 6.67989 12.2011 6.63873 12.3047 6.63873C13.0299 6.63873 13.7254 6.92682 14.2382 7.43961C14.751 7.95241 15.0391 8.64791 15.0391 9.37311C15.0391 10.0983 14.751 10.7938 14.2382 11.3066C13.7254 11.8194 13.0299 12.1075 12.3047 12.1075Z" fill="black"/>
<path d="M12.3047 7.41998H7.61719C7.51359 7.41998 7.41423 7.37883 7.34097 7.30557C7.26772 7.23232 7.22656 7.13296 7.22656 7.02936C7.22656 6.92576 7.26772 6.8264 7.34097 6.75314C7.41423 6.67989 7.51359 6.63873 7.61719 6.63873H12.3047C12.4083 6.63873 12.5076 6.67989 12.5809 6.75314C12.6542 6.8264 12.6953 6.92576 12.6953 7.02936C12.6953 7.13296 12.6542 7.23232 12.5809 7.30557C12.5076 7.37883 12.4083 7.41998 12.3047 7.41998Z" fill="black"/>
<path d="M11.1328 12.8887H8.78906C8.68546 12.8887 8.58611 12.8476 8.51285 12.7743C8.43959 12.7011 8.39844 12.6017 8.39844 12.4981C8.39844 12.3945 8.43959 12.2952 8.51285 12.2219C8.58611 12.1486 8.68546 12.1075 8.78906 12.1075H11.1328C11.2364 12.1075 11.3358 12.1486 11.409 12.2219C11.4823 12.2952 11.5234 12.3945 11.5234 12.4981C11.5234 12.6017 11.4823 12.7011 11.409 12.7743C11.3358 12.8476 11.2364 12.8887 11.1328 12.8887ZM11.1328 14.0606H8.78906C8.68546 14.0606 8.58611 14.0195 8.51285 13.9462C8.43959 13.8729 8.39844 13.7736 8.39844 13.67C8.39844 13.5664 8.43959 13.467 8.51285 13.3938C8.58611 13.3205 8.68546 13.2794 8.78906 13.2794H11.1328C11.2364 13.2794 11.3358 13.3205 11.409 13.3938C11.4823 13.467 11.5234 13.5664 11.5234 13.67C11.5234 13.7736 11.4823 13.8729 11.409 13.9462C11.3358 14.0195 11.2364 14.0606 11.1328 14.0606Z" fill="black"/>
</svg>
