<svg width="11" height="14" viewBox="0 0 11 14" fill="none" xmlns="http://www.w3.org/2000/svg">
<g clip-path="url(#clip0_39_47)">
<path d="M10.4521 6.39544C10.4117 6.31819 10.3566 6.24995 10.2899 6.19475C10.2233 6.13956 10.1464 6.09854 10.0639 6.07411C9.98138 6.04968 9.89489 6.04234 9.80954 6.05252C9.7242 6.0627 9.64172 6.0902 9.56699 6.13338L6.50298 7.90884C6.44447 7.77569 6.35023 7.66206 6.23112 7.58101C6.112 7.49996 5.97283 7.45479 5.82962 7.45069H5.02906C4.99377 7.30633 4.91326 7.17761 4.7997 7.08401C4.68615 6.99041 4.54574 6.93702 4.39972 6.93192H3.2998C3.15378 6.93702 3.01337 6.99041 2.89982 7.08401C2.78626 7.17761 2.70575 7.30633 2.67046 7.45069H2.19988C2.20822 7.3865 2.20312 7.32124 2.18491 7.25921C2.1667 7.19718 2.1358 7.13977 2.09424 7.09077C2.05268 7.04176 2.0014 7.00228 1.94377 6.9749C1.88615 6.94752 1.82349 6.93288 1.7599 6.93193H0.879974C0.763318 6.93205 0.651475 6.97929 0.568989 7.06328C0.486503 7.14727 0.440114 7.26115 0.440002 7.37992V10.3039C0.440113 10.4227 0.486501 10.5366 0.568987 10.6206C0.651472 10.7046 0.763316 10.7518 0.879972 10.7519H1.75991C1.87656 10.7518 1.98841 10.7046 2.07089 10.6206C2.15338 10.5366 2.19977 10.4227 2.19988 10.3039V9.97374H2.84877L5.76431 10.6978C6.08809 10.7753 6.42608 10.7659 6.74522 10.6705C7.06436 10.5751 7.35372 10.397 7.58498 10.1537L10.338 7.3621C10.458 7.23571 10.5341 7.07283 10.5547 6.8983C10.5753 6.72377 10.5393 6.54718 10.4521 6.39544ZM1.75991 10.3039H0.879972V7.37992H1.75991V10.3039ZM10.0274 7.04469L7.27434 9.83625C7.09575 10.0243 6.87256 10.1624 6.62631 10.237C6.38005 10.3117 6.11905 10.3205 5.8685 10.2625L2.92729 9.53209C2.94507 9.51964 2.2129 9.52803 2.19988 9.52575V7.89869H2.85983C2.91818 7.89868 2.97413 7.87508 3.01538 7.83307C3.05664 7.79106 3.07982 7.73409 3.07982 7.67469C3.07982 7.51489 3.18058 7.37992 3.2998 7.37992H4.39972C4.51895 7.37992 4.61971 7.51489 4.61971 7.67469C4.61971 7.73409 4.64288 7.79106 4.68414 7.83307C4.72539 7.87508 4.78135 7.89868 4.83969 7.89869H5.82962C5.92354 7.92124 6.00723 7.97542 6.06712 8.05246C6.12701 8.12949 6.1596 8.22486 6.1596 8.32311C6.1596 8.42136 6.12701 8.51674 6.06712 8.59377C6.00723 8.67081 5.92354 8.72499 5.82962 8.74754H4.83969C4.78207 8.74866 4.72717 8.77275 4.68681 8.81464C4.64644 8.85652 4.62383 8.91286 4.62383 8.97155C4.62383 9.03023 4.64645 9.08657 4.68682 9.12846C4.72718 9.17034 4.78208 9.19443 4.8397 9.19554H5.82962C6.03665 9.18385 6.23141 9.09183 6.37384 8.9384C6.51626 8.78497 6.59553 8.5818 6.59532 8.37068L9.7844 6.52276C10.0694 6.37537 10.2293 6.87443 10.0274 7.04469ZM4.83969 1.59052V1.12C4.83951 0.941838 4.76992 0.771028 4.64619 0.645046C4.52247 0.519063 4.35472 0.448198 4.17974 0.447998H1.09996C0.924978 0.448198 0.757223 0.519063 0.633499 0.645046C0.509775 0.771028 0.440186 0.941838 0.440002 1.12V4.25597C0.440186 4.43413 0.509775 4.60494 0.633499 4.73093C0.757223 4.85691 0.924978 4.92777 1.09996 4.92797H1.75991C1.81825 4.92797 1.87421 4.90437 1.91546 4.86236C1.95672 4.82035 1.97989 4.76338 1.97989 4.70397C1.97973 4.61563 1.99669 4.52812 2.02978 4.44645C2.06288 4.36478 2.11146 4.29057 2.17276 4.22804C2.23406 4.16551 2.30687 4.11591 2.38701 4.08206C2.46716 4.04822 2.55308 4.03079 2.63985 4.03079C2.72661 4.03079 2.81253 4.04822 2.89268 4.08206C2.97282 4.11591 3.04563 4.16551 3.10693 4.22804C3.16823 4.29057 3.21681 4.36478 3.24991 4.44645C3.283 4.52812 3.29996 4.61563 3.2998 4.70397C3.2998 4.76338 3.32297 4.82035 3.36423 4.86236C3.40548 4.90437 3.46144 4.92797 3.51978 4.92797H4.17974C4.35472 4.92777 4.52247 4.85691 4.64619 4.73093C4.76992 4.60494 4.83951 4.43413 4.83969 4.25597V3.78545C5.08624 3.73152 5.30718 3.59316 5.46566 3.39345C5.62415 3.19374 5.7106 2.94474 5.7106 2.68798C5.7106 2.43123 5.62415 2.18223 5.46566 1.98252C5.30718 1.7828 5.08624 1.64445 4.83969 1.59052ZM4.61971 3.35998C4.56136 3.35998 4.50541 3.38359 4.46415 3.42559C4.4229 3.4676 4.39972 3.52457 4.39972 3.58398V4.25598C4.39965 4.31536 4.37645 4.37229 4.33521 4.41428C4.29397 4.45627 4.23806 4.4799 4.17974 4.47998H3.71764C3.66471 4.22894 3.52884 4.00397 3.33271 3.84259C3.13657 3.68121 2.89202 3.59318 2.63985 3.59318C2.38767 3.59318 2.14312 3.68121 1.94698 3.84259C1.75085 4.00397 1.61498 4.22894 1.56205 4.47998H1.09996C1.04163 4.4799 0.985723 4.45627 0.944484 4.41428C0.903246 4.37229 0.880046 4.31536 0.879972 4.25598V1.12C0.880046 1.06062 0.903246 1.00369 0.944484 0.961695C0.985723 0.919703 1.04163 0.896077 1.09996 0.895998H4.17974C4.23806 0.896077 4.29397 0.919703 4.33521 0.961695C4.37645 1.00369 4.39965 1.06062 4.39972 1.12V1.792C4.39972 1.8514 4.4229 1.90838 4.46415 1.95038C4.50541 1.99239 4.56136 2.01599 4.61971 2.016C4.79339 2.01809 4.95927 2.08981 5.08137 2.21561C5.20346 2.3414 5.27193 2.51113 5.27193 2.68799C5.27193 2.86485 5.20346 3.03458 5.08137 3.16037C4.95927 3.28617 4.79339 3.35789 4.61971 3.35998ZM2.41986 1.792H1.75991V2.23997C1.7588 2.29863 1.73514 2.35451 1.69401 2.39559C1.65288 2.43668 1.59756 2.4597 1.53994 2.4597C1.48232 2.4597 1.42699 2.43669 1.38586 2.39561C1.34472 2.35453 1.32105 2.29866 1.31994 2.24V1.568C1.31994 1.50859 1.34312 1.45162 1.38437 1.40961C1.42563 1.3676 1.48158 1.344 1.53992 1.344H2.41986C2.47747 1.34514 2.53233 1.36924 2.57267 1.41113C2.61302 1.45301 2.63561 1.50933 2.63561 1.568C2.63561 1.62666 2.61302 1.68298 2.57267 1.72487C2.53233 1.76675 2.47747 1.79085 2.41986 1.792ZM9.67934 1.568V2.23997C9.67821 2.29861 9.65454 2.35446 9.61341 2.39552C9.57228 2.43658 9.51697 2.45959 9.45937 2.45959C9.40177 2.45959 9.34646 2.4366 9.30533 2.39554C9.2642 2.35448 9.24052 2.29864 9.23938 2.24V1.792H8.57944C8.52181 1.79089 8.46692 1.7668 8.42655 1.72491C8.38618 1.68303 8.36357 1.62669 8.36357 1.568C8.36356 1.50932 8.38618 1.45298 8.42654 1.41109C8.4669 1.3692 8.5218 1.34511 8.57942 1.344H9.45936C9.48825 1.34399 9.51686 1.34978 9.54356 1.36104C9.57025 1.37229 9.5945 1.38879 9.61493 1.40959C9.63536 1.43039 9.65156 1.45509 9.66262 1.48227C9.67367 1.50945 9.67935 1.53858 9.67934 1.568ZM9.89933 0.447998H6.81955C6.64457 0.448198 6.47681 0.519063 6.35309 0.645046C6.22937 0.771028 6.15978 0.941838 6.15959 1.12V1.792C6.15958 1.82142 6.16527 1.85055 6.17632 1.87773C6.18737 1.90491 6.20358 1.9296 6.22401 1.9504C6.24443 1.97121 6.26869 1.98771 6.29538 1.99896C6.32208 2.01022 6.35069 2.016 6.37958 2.016C6.55462 2.016 6.72249 2.0868 6.84627 2.21282C6.97004 2.33885 7.03958 2.50977 7.03958 2.688C7.03958 2.86622 6.97004 3.03715 6.84627 3.16317C6.72249 3.2892 6.55462 3.36 6.37958 3.36C6.35069 3.35999 6.32208 3.36578 6.29538 3.37703C6.26869 3.38829 6.24443 3.40479 6.224 3.42559C6.20358 3.44639 6.18737 3.47109 6.17632 3.49827C6.16527 3.52545 6.15958 3.55458 6.15959 3.584V4.256C6.15978 4.43416 6.22937 4.60497 6.35309 4.73095C6.47681 4.85693 6.64457 4.9278 6.81955 4.928H7.28164C7.33457 5.17904 7.47044 5.40401 7.66657 5.56539C7.86271 5.72678 8.10726 5.81481 8.35944 5.81481C8.61161 5.81481 8.85616 5.72678 9.0523 5.56539C9.24844 5.40401 9.3843 5.17904 9.43723 4.928H9.89933C10.0743 4.9278 10.2421 4.85693 10.3658 4.73095C10.4895 4.60497 10.5591 4.43416 10.5593 4.256V1.12C10.5591 0.941839 10.4895 0.771029 10.3658 0.645047C10.2421 0.519064 10.0743 0.448198 9.89933 0.447998ZM10.1193 4.25597C10.1193 4.31536 10.0961 4.3723 10.0548 4.41429C10.0136 4.45629 9.95765 4.47991 9.89933 4.47997H9.23938C9.21048 4.47997 9.18187 4.48576 9.15518 4.49701C9.12849 4.50827 9.10423 4.52477 9.0838 4.54557C9.06337 4.56637 9.04717 4.59107 9.03612 4.61825C9.02507 4.64543 9.01938 4.67456 9.01939 4.70397C9.01955 4.79232 9.0026 4.87983 8.9695 4.96149C8.93641 5.04316 8.88782 5.11738 8.82652 5.17991C8.76522 5.24244 8.69242 5.29204 8.61227 5.32589C8.53212 5.35973 8.44621 5.37715 8.35944 5.37715C8.27267 5.37715 8.18676 5.35973 8.10661 5.32589C8.02646 5.29204 7.95365 5.24244 7.89235 5.17991C7.83106 5.11738 7.78247 5.04316 7.74938 4.96149C7.71628 4.87983 7.69933 4.79232 7.69949 4.70397C7.69949 4.67456 7.69381 4.64543 7.68276 4.61825C7.67171 4.59106 7.6555 4.56637 7.63507 4.54557C7.61465 4.52477 7.59039 4.50827 7.5637 4.49701C7.537 4.48576 7.50839 4.47997 7.4795 4.47997H6.81955C6.76122 4.47991 6.7053 4.45629 6.66406 4.41429C6.62282 4.3723 6.59962 4.31536 6.59957 4.25597V3.78545C6.84611 3.73152 7.06705 3.59316 7.22554 3.39345C7.38402 3.19374 7.47047 2.94474 7.47047 2.68798C7.47047 2.43123 7.38402 2.18223 7.22554 1.98252C7.06705 1.7828 6.84611 1.64445 6.59957 1.59052V1.12C6.59962 1.06061 6.62282 1.00367 6.66406 0.961677C6.7053 0.919682 6.76122 0.896062 6.81955 0.895998H9.89933C9.95766 0.896062 10.0136 0.919682 10.0548 0.961677C10.0961 1.00367 10.1193 1.06061 10.1193 1.12L10.1193 4.25597Z" fill="#16404D"/>
</g>
<defs>
<clipPath id="clip0_39_47">
<rect width="11" height="14" fill="white"/>
</clipPath>
</defs>
</svg>
