<svg width="20" height="20" viewBox="0 0 20 20" fill="none" xmlns="http://www.w3.org/2000/svg">
<g clip-path="url(#clip0_18_37)">
<path fill-rule="evenodd" clip-rule="evenodd" d="M3.33331 2.49999C2.87308 2.49999 2.49998 2.8731 2.49998 3.33333C2.49998 3.79356 2.87308 4.16666 3.33331 4.16666C3.79355 4.16666 4.16665 3.79356 4.16665 3.33333C4.16665 2.8731 3.79355 2.49999 3.33331 2.49999ZM0.833313 3.33333C0.833313 1.95262 1.9526 0.833328 3.33331 0.833328C4.71402 0.833328 5.83331 1.95262 5.83331 3.33333C5.83331 4.71404 4.71402 5.83333 3.33331 5.83333C1.9526 5.83333 0.833313 4.71404 0.833313 3.33333ZM0.833313 7.5C0.833313 7.03976 1.20641 6.66666 1.66665 6.66666H4.99998C5.46021 6.66666 5.83331 7.03976 5.83331 7.5V18.3333C5.83331 18.7936 5.46021 19.1667 4.99998 19.1667H1.66665C1.20641 19.1667 0.833313 18.7936 0.833313 18.3333V7.5ZM2.49998 8.33333V17.5H4.16665V8.33333H2.49998ZM7.49998 6.66666C7.03975 6.66666 6.66665 7.03976 6.66665 7.5V18.3333C6.66665 18.7936 7.03975 19.1667 7.49998 19.1667H10.8333C11.2936 19.1667 11.6666 18.7936 11.6666 18.3333V13.3333C11.6666 12.643 12.2263 12.0833 12.9166 12.0833C13.607 12.0833 14.1666 12.643 14.1666 13.3333V18.3333C14.1666 18.7936 14.5397 19.1667 15 19.1667H18.3333C18.7936 19.1667 19.1666 18.7936 19.1666 18.3333V11.25C19.1666 8.71866 17.1146 6.66666 14.5833 6.66666H14.3915C13.5125 6.66666 12.6615 6.97543 11.987 7.53905L11.6686 7.80509L11.6666 7.49477C11.6637 7.03659 11.2915 6.66666 10.8333 6.66666H7.49998ZM8.33331 17.5V8.33333H10.0051L10.013 9.58333C10.0151 9.90591 10.2031 10.1984 10.4957 10.3341C10.7884 10.4698 11.1331 10.4244 11.3806 10.2176L13.0556 8.818C13.4304 8.50483 13.9031 8.33333 14.3915 8.33333H14.5833C16.1941 8.33333 17.5 9.63916 17.5 11.25V17.5H15.8333V13.3333C15.8333 11.7225 14.5275 10.4167 12.9166 10.4167C11.3058 10.4167 9.99998 11.7225 9.99998 13.3333V17.5H8.33331Z" fill="url(#paint0_linear_18_37)"/>
</g>
<defs>
<linearGradient id="paint0_linear_18_37" x1="9.99998" y1="0.833328" x2="9.99998" y2="19.1667" gradientUnits="userSpaceOnUse">
<stop stop-color="#57EAEA"/>
<stop offset="1" stop-color="#2BC9FF"/>
</linearGradient>
<clipPath id="clip0_18_37">
<rect width="20" height="20" fill="white"/>
</clipPath>
</defs>
</svg>
