<svg width="23" height="23" viewBox="0 0 23 23" fill="none" xmlns="http://www.w3.org/2000/svg">
<g clip-path="url(#clip0_62_23)">
<path d="M11.5018 0C5.15554 0 0 5.152 0 11.4982C0 17.8445 5.15554 23 11.5018 23C17.848 23 23 17.8445 23 11.4982C23 5.152 17.848 0 11.5018 0ZM11.5018 0.884615C12.8958 0.883685 14.2764 1.15758 15.5645 1.69063C16.8526 2.22369 18.0231 3.00545 19.0088 3.9912C19.9946 4.97695 20.7763 6.14735 21.3094 7.43548C21.8424 8.7236 22.1163 10.1042 22.1154 11.4982C22.1154 17.3659 17.3694 22.1136 11.5018 22.1136C5.63412 22.1136 0.884615 17.3659 0.884615 11.4982C0.884615 5.63058 5.63412 0.884615 11.5018 0.884615ZM14.9553 5.31477V5.31831C14.8757 5.30946 14.7961 5.30946 14.7156 5.31831C14.1507 5.40085 13.6276 5.66365 13.2241 6.06758C12.9772 6.31349 12.7813 6.60575 12.6476 6.92758C12.5139 7.24941 12.4451 7.59447 12.4451 7.94296C12.4451 8.29145 12.5139 8.63652 12.6476 8.95834C12.7813 9.28017 12.9772 9.57243 13.2241 9.81835C13.4699 10.0655 13.7621 10.2616 14.084 10.3954C14.4058 10.5293 14.7509 10.5981 15.0995 10.5981C15.4481 10.5981 15.7932 10.5293 16.115 10.3954C16.4369 10.2616 16.7291 10.0655 16.9749 9.81835C17.6339 9.16019 17.756 8.23842 17.5543 7.36354L15.724 9.19381C15.6411 9.27673 15.5286 9.32331 15.4113 9.32331C15.294 9.32331 15.1816 9.27673 15.0986 9.19381L13.8495 7.94296C13.8083 7.90188 13.7757 7.85307 13.7534 7.79933C13.7311 7.74559 13.7196 7.68799 13.7196 7.62981C13.7196 7.57163 13.7311 7.51402 13.7534 7.46029C13.7757 7.40655 13.8083 7.35774 13.8495 7.31665L15.6763 5.48904C15.4348 5.43331 15.195 5.33865 14.9553 5.31477ZM12.2307 9.54058L5.62704 16.1442C5.54198 16.2271 5.47437 16.3261 5.4282 16.4355C5.38204 16.5449 5.35826 16.6624 5.35826 16.7812C5.35826 16.8999 5.38204 17.0174 5.4282 17.1268C5.47437 17.2362 5.54198 17.3352 5.62704 17.4181C5.70988 17.5031 5.80891 17.5707 5.9183 17.6169C6.0277 17.6631 6.14523 17.6869 6.26396 17.6869C6.3827 17.6869 6.50023 17.6631 6.60962 17.6169C6.71901 17.5707 6.81805 17.5031 6.90088 17.4181L13.5045 10.8144C13.2386 10.666 12.9932 10.4834 12.7747 10.2713C12.5622 10.0525 12.3793 9.80687 12.2307 9.54058ZM6.32146 16.269C6.43874 16.2669 6.55213 16.311 6.63724 16.3917C6.72235 16.4724 6.77239 16.5833 6.77657 16.7005C6.78076 16.8178 6.73876 16.9319 6.65962 17.0185C6.58048 17.1051 6.47052 17.1571 6.3534 17.1635C6.23628 17.1698 6.12135 17.1299 6.03334 17.0524C5.94533 16.9748 5.89127 16.8658 5.88279 16.7488C5.87432 16.6319 5.9121 16.5162 5.98802 16.4268C6.06394 16.3374 6.17192 16.2813 6.28873 16.2707H6.32146V16.269Z" fill="black"/>
</g>
<defs>
<clipPath id="clip0_62_23">
<rect width="23" height="23" fill="white"/>
</clipPath>
</defs>
</svg>
