<svg width="17" height="17" viewBox="0 0 17 17" fill="none" xmlns="http://www.w3.org/2000/svg">
<g clip-path="url(#clip0_39_21)">
<path d="M8.49998 2.70938C5.31248 2.70938 2.70935 5.31251 2.70935 8.50001C2.70935 10.2797 3.50623 11.9266 4.88748 13.0156C5.02029 13.1219 5.1531 13.2281 5.31248 13.3344L5.33904 13.3609C5.3656 13.3609 5.39216 13.3875 5.39216 13.3875C6.32185 13.9984 7.41091 14.2906 8.52654 14.2906C9.64216 14.2906 10.7047 13.9719 11.6343 13.3875C11.6609 13.3875 11.6875 13.3609 11.714 13.3344L11.7406 13.3078C11.8734 13.2281 12.0328 13.0953 12.1656 12.9891C13.5469 11.8734 14.3437 10.2266 14.3437 8.47344C14.2906 5.31251 11.6875 2.70938 8.49998 2.70938ZM11.3422 12.9359C10.4922 13.4938 9.50935 13.7594 8.49998 13.7594C7.4906 13.7594 6.50779 13.4672 5.63123 12.9094C5.60466 12.9094 5.60466 12.9094 5.60466 12.8828L5.5781 12.9094C5.44529 12.8297 5.33904 12.7234 5.20623 12.6438C3.93123 11.6344 3.21404 10.1203 3.21404 8.52657C3.21404 5.60469 5.5781 3.24063 8.49998 3.24063C11.4219 3.24063 13.7859 5.57813 13.7859 8.50001C13.7859 10.1203 13.0687 11.6078 11.7937 12.6172C11.6609 12.7234 11.5547 12.8031 11.4219 12.8828L11.3422 12.9359Z" fill="#16404D"/>
<path d="M8.49998 5.52499C7.51716 5.52499 6.69373 6.32187 6.69373 7.33124C6.69373 8.34062 7.4906 9.13749 8.49998 9.13749C9.50935 9.13749 10.3062 8.34062 10.3062 7.33124C10.3062 6.32187 9.48279 5.52499 8.49998 5.52499ZM8.49998 8.60624C7.78279 8.60624 7.19841 8.02187 7.19841 7.30468C7.19841 6.58749 7.78279 6.00312 8.49998 6.00312C9.21716 6.00312 9.77498 6.58749 9.77498 7.30468C9.77498 8.02187 9.21716 8.60624 8.49998 8.60624Z" fill="#16404D"/>
<path d="M11.9797 12.75C11.9531 12.75 11.9531 12.75 11.9797 12.75C11.8469 12.8563 11.714 12.9625 11.5812 13.0422C11.5812 13.0422 11.5547 13.0422 11.5547 13.0688C11.5281 13.0688 11.5281 13.0953 11.5016 13.0953C10.6515 13.6531 9.61561 13.9719 8.52655 13.9719C7.43749 13.9719 6.40155 13.6531 5.55155 13.0953C5.52499 13.0953 5.52499 13.0688 5.49843 13.0688L5.47186 13.0422C5.33905 12.9625 5.20624 12.8563 5.07343 12.75L6.5078 9.90782C6.5078 9.77501 6.64061 9.72188 6.69374 9.80157C6.98593 10.1469 7.70311 10.5188 8.52655 10.5188C9.34999 10.5188 10.0672 10.1734 10.3594 9.80157C10.4391 9.72188 10.5453 9.77501 10.5453 9.90782L11.9797 12.75Z" fill="#16404D"/>
<path d="M11.9797 12.7766C11.9531 12.7766 11.9531 12.7766 11.9797 12.7766C11.8469 12.8828 11.7141 12.9891 11.5812 13.0688C11.5812 13.0688 11.5547 13.0688 11.5547 13.0953C11.5281 13.0953 11.5281 13.1219 11.5016 13.1219C10.6516 13.6797 9.61562 13.9984 8.5 13.9984C7.41094 13.9984 6.375 13.6797 5.525 13.1219C5.49844 13.1219 5.49844 13.0953 5.47188 13.0953L5.44531 13.0688C5.3125 12.9891 5.17969 12.8828 5.07344 12.7766C5.07344 12.7766 5.07344 12.7766 5.04688 12.7766L5.36563 12.1391C5.39219 12.1656 5.41875 12.1656 5.44531 12.1922C5.44531 12.1922 5.47188 12.1922 5.47188 12.2188C5.49844 12.2188 5.49844 12.2453 5.525 12.2453C6.40156 12.8031 7.41094 13.1219 8.5 13.1219C9.61562 13.1219 10.625 12.8031 11.5016 12.2453C11.5281 12.2453 11.5281 12.2188 11.5547 12.2188C11.5547 12.2188 11.5812 12.2188 11.5812 12.1922C11.6078 12.1656 11.6344 12.1656 11.6609 12.1391L11.9797 12.7766Z" fill="#16404D"/>
<path d="M8.50003 14.2375C7.3844 14.2375 6.29534 13.9187 5.36565 13.3344L5.33909 13.3078L5.31253 13.2812C5.15315 13.175 5.02034 13.0687 4.88753 12.9625C4.86096 12.9625 4.86096 12.9359 4.8344 12.9094C4.75471 12.8297 4.75471 12.7234 4.80784 12.6172L6.21565 9.82812C6.24221 9.66875 6.34846 9.5625 6.48128 9.53594C6.61409 9.48281 6.77346 9.53594 6.85315 9.66875C7.11878 9.9875 7.75628 10.2797 8.47346 10.2797C9.21721 10.2797 9.85471 9.96094 10.0938 9.66875C10.2 9.5625 10.3328 9.50937 10.4657 9.53594C10.5985 9.58906 10.7047 9.69531 10.7313 9.82812L12.1656 12.6172C12.2188 12.7234 12.1922 12.8297 12.1125 12.9094L12.086 12.9359C11.9532 13.0422 11.8203 13.1484 11.661 13.2547C11.661 13.2547 11.6344 13.2547 11.6344 13.2812C11.6078 13.2812 11.5813 13.3078 11.5813 13.3078C10.7047 13.9187 9.61565 14.2375 8.50003 14.2375ZM5.60471 12.8562C5.63128 12.8828 5.65784 12.8828 5.65784 12.8828C6.50784 13.4141 7.49065 13.7062 8.50003 13.7062C9.5094 13.7062 10.4922 13.4141 11.3422 12.8828C11.3422 12.8828 11.3688 12.8828 11.3688 12.8562C11.3688 12.8562 11.3953 12.8562 11.3953 12.8297C11.3953 12.8297 11.4219 12.8297 11.4219 12.8031C11.5016 12.75 11.5547 12.6969 11.6344 12.6437L10.3594 10.1469C9.98753 10.4922 9.2969 10.7844 8.50003 10.7844C7.70315 10.7844 7.01253 10.4922 6.64065 10.1469L5.36565 12.6703C5.44534 12.7234 5.49846 12.7766 5.57815 12.8297L5.60471 12.8562Z" fill="#16404D"/>
<path d="M16.9734 6.87969L15.4594 6.34844L15.3266 6.29531C15.2203 5.95 15.0875 5.63125 14.9281 5.28594L14.9813 5.15312L15.6984 3.71875V3.69219L15.6187 3.6125L13.4141 1.35469L13.3344 1.275H13.3078L11.8469 1.99219L11.7938 2.125C11.475 1.96563 11.1297 1.80625 10.8109 1.7L10.7844 1.56719L10.2797 0.0265625V0H10.1734L6.98594 0H6.90625V0.0265625L6.375 1.54063L6.32187 1.67344C5.97656 1.77969 5.65781 1.9125 5.3125 2.07188L5.20625 2.01875L3.77187 1.30156H3.74531L3.66563 1.35469L1.40781 3.58594L1.32812 3.66563V3.69219L2.01875 5.12656L2.125 5.20625C1.96563 5.525 1.80625 5.87031 1.7 6.18906L1.56719 6.24219L0.0265625 6.74687H0V6.82656L0 10.0141V10.1203H0.0265625L1.54063 10.6516L1.67344 10.7047C1.77969 11.05 1.9125 11.3687 2.07188 11.7141L2.01875 11.8469L1.30156 13.2812V13.3078H1.32812L3.55937 15.5656L3.6125 15.6187H3.63906L5.07344 14.9016L5.20625 14.8484C5.525 15.0078 5.87031 15.1672 6.18906 15.2734L6.24219 15.4062L6.74687 16.9469V16.9734H6.82656L10.0141 17H10.1203V16.9734L10.6516 15.4594L10.7047 15.3266C11.05 15.2203 11.3687 15.0875 11.7141 14.9281L11.8203 14.9813L13.2547 15.725H13.2812L13.3344 15.6719L15.5922 13.4406L15.6453 13.3875V13.3609L14.9281 11.9L14.875 11.7938C15.0344 11.475 15.1937 11.1297 15.3 10.8109L15.4328 10.7578L16.9734 10.2531H17V10.1469V6.98594L16.9734 6.87969ZM16.4688 9.85469L15.5922 10.1469L14.875 10.3859L14.8219 10.5187C14.6891 10.9172 14.5297 11.2891 14.3438 11.6609L14.2906 11.7672L14.6094 12.4312L15.0078 13.2547L13.1484 15.0875L12.325 14.6625L11.6875 14.3438L11.5812 14.3969C11.2094 14.5828 10.8109 14.7422 10.4391 14.875L10.3062 14.9016L10.0672 15.5922L9.74844 16.4688H7.14531L6.85312 15.5922L6.61406 14.875L6.48125 14.8484C6.08281 14.7156 5.71094 14.5562 5.33906 14.3703L5.23281 14.3172L4.56875 14.6094L3.74531 15.0078L1.9125 13.1484L2.31094 12.325L2.65625 11.6875L2.60313 11.5812C2.39062 11.1828 2.23125 10.8109 2.125 10.4125L2.09844 10.2797L1.40781 10.0406L0.53125 9.74844V7.14531L1.40781 6.85312L2.125 6.61406L2.15156 6.48125C2.28438 6.08281 2.44375 5.71094 2.62969 5.33906L2.68281 5.23281L2.39062 4.56875L1.99219 3.74531L3.85156 1.9125L4.675 2.3375L5.3125 2.65625L5.41875 2.60313C5.81719 2.39062 6.18906 2.23125 6.5875 2.125L6.72031 2.09844L6.95938 1.40781L7.25156 0.53125H9.85469L10.1469 1.40781L10.3859 2.09844L10.5187 2.15156C10.9172 2.28438 11.2891 2.44375 11.6609 2.62969L11.7672 2.68281L12.4312 2.39062L13.2547 1.99219L15.0875 3.85156L14.6625 4.675L14.3438 5.3125L14.3969 5.41875C14.5828 5.79063 14.7422 6.18906 14.875 6.56094L14.9281 6.69375L15.6187 6.93281L16.4953 7.225L16.4688 9.85469Z" fill="#16404D"/>
<ellipse cx="8.5" cy="7.30469" rx="1.59375" ry="1.46094" fill="#16404D"/>
</g>
<defs>
<clipPath id="clip0_39_21">
<rect width="17" height="17" fill="white"/>
</clipPath>
</defs>
</svg>
