<svg width="43" height="43" viewBox="0 0 43 43" fill="none" xmlns="http://www.w3.org/2000/svg">
<path d="M27.314 31.9472H15.686V11.051H27.314V31.9472Z" fill="#FF5F00"/>
<path d="M16.4242 21.5001C16.4225 19.4877 16.8785 17.5014 17.7579 15.6914C18.6373 13.8814 19.917 12.2952 21.5 11.0529C19.5397 9.51224 17.1854 8.55421 14.7064 8.28824C12.2273 8.02227 9.72345 8.45909 7.48091 9.54878C5.23836 10.6385 3.34761 12.3371 2.02473 14.4505C0.701853 16.5639 0.00021441 19.0068 0 21.5001C0.000478456 23.993 0.7022 26.4356 2.02499 28.5487C3.34778 30.6617 5.23829 32.3601 7.48052 33.4497C9.72275 34.5394 12.2263 34.9763 14.705 34.7106C17.1838 34.4449 19.5378 33.4873 21.4982 31.9473C19.9157 30.7046 18.6365 29.1182 17.7575 27.3083C16.8784 25.4983 16.4225 23.5122 16.4242 21.5001Z" fill="#EB001B"/>
<path d="M43 21.5001C42.9998 23.9933 42.2981 26.4363 40.9753 28.5497C39.6524 30.6631 37.7616 32.3616 35.5191 33.4513C33.2765 34.541 30.7727 34.9779 28.2936 34.7119C25.8146 34.4459 23.4603 33.4879 21.5 31.9473C24.5906 29.5142 26.5758 25.7391 26.5758 21.5001C26.5758 17.261 24.5906 13.4859 21.5 11.0529C23.4603 9.51224 25.8146 8.55421 28.2936 8.28824C30.7727 8.02227 33.2765 8.45909 35.5191 9.54878C37.7616 10.6385 39.6524 12.3371 40.9753 14.4505C42.2981 16.5639 42.9998 19.0068 43 21.5001Z" fill="#F79E1B"/>
</svg>
