<svg width="24" height="24" viewBox="0 0 24 24" fill="none" xmlns="http://www.w3.org/2000/svg">
<path d="M20.376 8.9952L17.016 7.8888L15.9096 4.5288L18.42 2.0088C17.5467 1.90598 16.6617 2.0307 15.8508 2.37085C15.04 2.711 14.3308 3.25502 13.7923 3.9501C13.2537 4.64517 12.904 5.46769 12.7771 6.3378C12.6502 7.20791 12.7504 8.09605 13.068 8.916L11.1048 10.8816L13.0248 12.8016L13.3824 12.4464C13.5281 12.3069 13.7219 12.229 13.9236 12.229C14.1253 12.229 14.3192 12.3069 14.4648 12.4464L14.9088 12.8904L15.9744 11.8248C16.7942 12.1435 17.6825 12.2448 18.553 12.1189C19.4236 11.993 20.2468 11.6443 20.9428 11.1065C21.6388 10.5687 22.1839 9.86005 22.5253 9.04943C22.8667 8.23881 22.9928 7.3537 22.8912 6.48L20.376 8.9952ZM11.0136 14.8272L11.3712 14.472L9.45122 12.552L3.42722 18.5592C3.04085 18.9456 2.82379 19.4696 2.82379 20.016C2.82379 20.5624 3.04085 21.0864 3.42722 21.4728C3.81359 21.8592 4.33761 22.0762 4.88402 22.0762C5.43042 22.0762 5.95445 21.8592 6.34082 21.4728L11.46 16.3536L11.0136 15.9096C10.8707 15.7657 10.7905 15.5712 10.7905 15.3684C10.7905 15.1656 10.8707 14.9711 11.0136 14.8272ZM5.83202 20.4C5.70105 20.5307 5.53427 20.6197 5.35275 20.6557C5.17122 20.6917 4.98311 20.6731 4.81216 20.6022C4.64122 20.5313 4.49513 20.4113 4.39235 20.2575C4.28957 20.1036 4.23471 19.9227 4.23471 19.7376C4.23471 19.5525 4.28957 19.3716 4.39235 19.2177C4.49513 19.0639 4.64122 18.9439 4.81216 18.873C4.98311 18.8021 5.17122 18.7835 5.35275 18.8195C5.53427 18.8555 5.70105 18.9445 5.83202 19.0752C6.0073 19.2511 6.10572 19.4893 6.10572 19.7376C6.10572 19.9859 6.0073 20.2241 5.83202 20.4Z" fill="black"/>
<path d="M13.92 12.48C13.8513 12.48 13.7833 12.4935 13.7199 12.5199C13.6564 12.5462 13.5988 12.5849 13.5504 12.6336L11.1744 15.0096C11.0764 15.1081 11.0213 15.2414 11.0213 15.3804C11.0213 15.5194 11.0764 15.6527 11.1744 15.7512L11.6184 16.1976L17.1168 21.6936C17.2728 21.8496 17.458 21.9734 17.6619 22.0578C17.8657 22.1423 18.0842 22.1857 18.3048 22.1857C18.5254 22.1857 18.7439 22.1423 18.9478 22.0578C19.1516 21.9734 19.3368 21.8496 19.4928 21.6936L20.2344 20.952C20.3904 20.796 20.5142 20.6108 20.5986 20.4069C20.6831 20.2031 20.7265 19.9846 20.7265 19.764C20.7265 19.5434 20.6831 19.3249 20.5986 19.121C20.5142 18.9172 20.3904 18.732 20.2344 18.576L14.7384 13.08L14.292 12.6336C14.2432 12.5847 14.1852 12.546 14.1214 12.5196C14.0575 12.4932 13.9891 12.4798 13.92 12.48ZM12.8616 12.9792L10.9416 11.0592L6.3816 6.4992C6.36716 6.48622 6.3564 6.46966 6.3504 6.4512L5.8368 4.8288L2.8128 2.9088L1.44 4.2432L3.36 7.2696L4.9848 7.7832C5.00265 7.78932 5.019 7.79914 5.0328 7.812L9.5928 12.372L11.5128 14.292L12.8616 12.9792Z" fill="black"/>
</svg>
