<svg width="26" height="26" viewBox="0 0 26 26" fill="none" xmlns="http://www.w3.org/2000/svg">
<g clip-path="url(#clip0_62_31)">
<path d="M5.02724 24.0163C4.89355 23.9417 4.76465 23.8589 4.6413 23.7682C4.60103 23.7382 4.55523 23.7164 4.50652 23.7042C4.45781 23.692 4.40716 23.6895 4.35748 23.6969C4.30781 23.7043 4.26009 23.7215 4.21708 23.7474C4.17407 23.7733 4.13661 23.8075 4.10686 23.848C4.07711 23.8885 4.05566 23.9344 4.04373 23.9832C4.03181 24.032 4.02966 24.0826 4.0374 24.1323C4.04514 24.1819 4.06261 24.2295 4.08882 24.2723C4.11503 24.3152 4.14946 24.3524 4.19011 24.3819C4.33913 24.4914 4.49486 24.5915 4.65639 24.6816C4.74458 24.7303 4.84847 24.7421 4.94532 24.7143C5.04216 24.6866 5.12407 24.6216 5.17312 24.5336C5.22217 24.4456 5.23435 24.3418 5.20701 24.2448C5.17967 24.1479 5.11503 24.0657 5.02724 24.0163ZM3.48827 22.3619C3.44563 22.2704 3.36837 22.1995 3.27347 22.1649C3.17857 22.1302 3.07381 22.1348 2.98223 22.1774C2.89065 22.22 2.81977 22.2973 2.78516 22.3922C2.75055 22.4871 2.75506 22.5919 2.79769 22.6834C2.8759 22.8512 2.96457 23.014 3.06318 23.1707C3.11748 23.2551 3.20289 23.3146 3.30086 23.3364C3.39882 23.3582 3.50142 23.3404 3.58635 23.2869C3.67128 23.2335 3.73168 23.1486 3.75442 23.0509C3.77716 22.9532 3.7604 22.8504 3.70779 22.7649C3.62625 22.6353 3.55293 22.5007 3.48827 22.3619ZM8.84686 16.4023H8.45574C8.36121 15.9897 8.17884 15.6024 7.92106 15.2666C7.66328 14.9309 7.33614 14.6547 6.96195 14.4568C6.58775 14.2589 6.1753 14.144 5.75269 14.12C5.33008 14.0959 4.90726 14.1633 4.51303 14.3174C4.1188 14.4716 3.76245 14.7089 3.46824 15.0132C3.17404 15.3176 2.9489 15.6818 2.80818 16.081C2.66746 16.4802 2.61446 16.9051 2.6528 17.3266C2.69113 17.7482 2.8199 18.1565 3.03032 18.5238C2.95146 18.6529 2.87928 18.786 2.81404 18.9225C2.79254 18.9676 2.78013 19.0166 2.77755 19.0665C2.77496 19.1165 2.78223 19.1664 2.79896 19.2136C2.81568 19.2607 2.84152 19.3041 2.87501 19.3413C2.9085 19.3784 2.94898 19.4086 2.99414 19.4301C3.0393 19.4516 3.08825 19.464 3.1382 19.4666C3.18815 19.4692 3.23812 19.4619 3.28525 19.4452C3.33239 19.4285 3.37578 19.4026 3.41293 19.3691C3.45008 19.3356 3.48027 19.2952 3.50177 19.25C3.51345 19.2254 3.52589 19.201 3.53823 19.1766C3.9471 19.5735 4.46243 19.8432 5.02164 19.9528C5.58084 20.0625 6.15985 20.0074 6.68835 19.7943C7.21685 19.5812 7.67209 19.2192 7.99878 18.7522C8.32546 18.2853 8.50955 17.7336 8.52866 17.1641H8.84686C8.94787 17.1641 9.04474 17.1239 9.11616 17.0525C9.18759 16.9811 9.22771 16.8842 9.22771 16.7832C9.22771 16.6822 9.18759 16.5853 9.11616 16.5139C9.04474 16.4425 8.94787 16.4023 8.84686 16.4023ZM5.58594 19.2461C5.15406 19.2461 4.73189 19.118 4.3728 18.8781C4.01371 18.6382 3.73383 18.2971 3.56856 17.8981C3.40329 17.4991 3.36005 17.0601 3.4443 16.6365C3.52856 16.2129 3.73652 15.8238 4.0419 15.5185C4.34728 15.2131 4.73636 15.0051 5.15994 14.9209C5.58352 14.8366 6.02256 14.8799 6.42156 15.0451C6.82056 15.2104 7.16159 15.4903 7.40153 15.8494C7.64147 16.2085 7.76953 16.6306 7.76953 17.0625C7.76889 17.6414 7.53862 18.1965 7.12926 18.6058C6.7199 19.0152 6.16486 19.2454 5.58594 19.2461ZM6.78498 24.4765C6.63176 24.4757 6.47873 24.4654 6.32679 24.4456C6.27715 24.4391 6.22671 24.4424 6.17836 24.4553C6.13 24.4683 6.08467 24.4907 6.04497 24.5212C6.00526 24.5517 5.97196 24.5897 5.94696 24.6331C5.92196 24.6764 5.90577 24.7243 5.89929 24.774C5.89282 24.8236 5.89619 24.874 5.90923 24.9224C5.92226 24.9707 5.9447 25.016 5.97525 25.0557C6.00581 25.0953 6.04388 25.1286 6.0873 25.1535C6.13071 25.1784 6.17862 25.1946 6.22827 25.201C6.41157 25.2248 6.59618 25.2372 6.78102 25.2382H6.78305C6.88407 25.2385 6.98104 25.1986 7.05265 25.1274C7.12425 25.0561 7.16462 24.9593 7.16488 24.8583C7.16513 24.7573 7.12525 24.6604 7.05401 24.5887C6.98277 24.5171 6.88599 24.4768 6.78498 24.4765ZM8.81171 24.4766H8.30456C8.20355 24.4766 8.10668 24.5167 8.03525 24.5881C7.96383 24.6595 7.9237 24.7564 7.9237 24.8574C7.9237 24.9584 7.96383 25.0553 8.03525 25.1267C8.10668 25.1982 8.20355 25.2383 8.30456 25.2383H8.81171C8.91272 25.2383 9.0096 25.1982 9.08102 25.1267C9.15245 25.0553 9.19257 24.9584 9.19257 24.8574C9.19257 24.7564 9.15245 24.6595 9.08102 24.5881C9.0096 24.5167 8.91272 24.4766 8.81171 24.4766ZM2.79622 21.4363C2.89706 21.4305 2.99147 21.3849 3.05867 21.3095C3.12588 21.2341 3.16038 21.135 3.15458 21.0342C3.14578 20.8811 3.14644 20.7275 3.15656 20.5745C3.16323 20.4737 3.12958 20.3744 3.06302 20.2984C2.99647 20.2224 2.90245 20.176 2.80165 20.1693C2.70086 20.1626 2.60154 20.1963 2.52556 20.2628C2.44957 20.3294 2.40314 20.4234 2.39647 20.5242C2.38437 20.7086 2.38359 20.8935 2.39413 21.0779C2.3997 21.1749 2.44214 21.2661 2.51275 21.3329C2.58336 21.3996 2.67681 21.4368 2.77398 21.4369C2.78136 21.4369 2.78877 21.4367 2.79622 21.4363ZM21.5695 12.0645C21.5978 12.215 21.6166 12.3671 21.626 12.5199C21.6318 12.6167 21.6744 12.7076 21.745 12.774C21.8155 12.8405 21.9088 12.8776 22.0057 12.8777C22.0135 12.8777 22.0214 12.8774 22.0293 12.877C22.1301 12.8708 22.2243 12.8249 22.2913 12.7492C22.3582 12.6736 22.3924 12.5745 22.3863 12.4737C22.375 12.289 22.3522 12.1052 22.318 11.9234C22.2986 11.8249 22.241 11.738 22.1578 11.6816C22.0746 11.6253 21.9725 11.6042 21.8738 11.6228C21.7751 11.6414 21.6877 11.6982 21.6307 11.781C21.5737 11.8637 21.5517 11.9656 21.5695 12.0645ZM7.33347 9.08984H7.84068C7.94169 9.08984 8.03856 9.04972 8.10998 8.97829C8.18141 8.90687 8.22153 8.80999 8.22153 8.70898C8.22153 8.60797 8.18141 8.5111 8.10998 8.43968C8.03856 8.36825 7.94169 8.32812 7.84068 8.32812H7.33352C7.23251 8.32812 7.13564 8.36825 7.06422 8.43968C6.99279 8.5111 6.95266 8.60797 6.95266 8.70898C6.95266 8.80999 6.99279 8.90687 7.06422 8.97829C7.13564 9.04972 7.23251 9.08984 7.33352 9.08984H7.33347ZM3.48136 9.08649C3.49725 9.08861 3.51326 9.08973 3.5293 9.08984H3.7832C3.85975 9.0898 3.93451 9.06669 3.99773 9.02351C4.06094 8.98034 4.10967 8.91911 4.13755 8.84782C4.15998 8.82685 4.1813 8.80473 4.20144 8.78155C5.2685 7.54731 7.05859 5.22366 7.05859 3.5293C7.05859 2.59327 6.68676 1.69558 6.02489 1.03371C5.36302 0.371836 4.46532 0 3.5293 0C2.59327 0 1.69558 0.371836 1.03371 1.03371C0.371836 1.69558 0 2.59327 0 3.5293C0 5.22366 1.79009 7.54731 2.85716 8.7816C2.93533 8.87181 3.03091 8.94531 3.13817 8.9977C3.24542 9.05009 3.36215 9.08029 3.48136 9.08649ZM3.5293 0.761719C4.26305 0.762552 4.96651 1.0544 5.48535 1.57324C6.00419 2.09209 6.29604 2.79555 6.29688 3.5293C6.29688 5.07305 4.25191 7.55843 3.62517 8.28344C3.61329 8.29723 3.59858 8.30829 3.58203 8.31588C3.56549 8.32346 3.5475 8.32739 3.5293 8.32739C3.5111 8.32739 3.49311 8.32346 3.47656 8.31588C3.46002 8.30829 3.4453 8.29723 3.43342 8.28344C2.80668 7.55843 0.761719 5.07305 0.761719 3.5293C0.762552 2.79555 1.0544 2.09209 1.57324 1.57324C2.09209 1.0544 2.79555 0.762552 3.5293 0.761719ZM5.30476 8.32812C5.20375 8.32812 5.10688 8.36825 5.03545 8.43968C4.96403 8.5111 4.9239 8.60797 4.9239 8.70898C4.9239 8.80999 4.96403 8.90687 5.03545 8.97829C5.10688 9.04972 5.20375 9.08984 5.30476 9.08984H5.81196C5.91297 9.08984 6.00985 9.04972 6.08127 8.97829C6.1527 8.90687 6.19282 8.80999 6.19282 8.70898C6.19282 8.60797 6.1527 8.5111 6.08127 8.43968C6.00985 8.36825 5.91297 8.32812 5.81196 8.32812H5.30476ZM4.79883 3.55469C4.79883 3.3036 4.72437 3.05815 4.58487 2.84937C4.44538 2.6406 4.2471 2.47788 4.01513 2.38179C3.78315 2.28571 3.52789 2.26056 3.28162 2.30955C3.03536 2.35854 2.80915 2.47945 2.6316 2.65699C2.45406 2.83454 2.33314 3.06075 2.28416 3.30701C2.23517 3.55328 2.26032 3.80854 2.3564 4.04052C2.45249 4.27249 2.61521 4.47077 2.82398 4.61026C3.03276 4.74976 3.27821 4.82422 3.5293 4.82422C3.86588 4.82384 4.18857 4.68997 4.42658 4.45197C4.66458 4.21396 4.79845 3.89127 4.79883 3.55469ZM3.02148 3.55469C3.02148 3.45425 3.05127 3.35607 3.10707 3.27256C3.16287 3.18905 3.24217 3.12397 3.33497 3.08553C3.42776 3.04709 3.52986 3.03704 3.62837 3.05663C3.72687 3.07623 3.81736 3.12459 3.88837 3.19561C3.95939 3.26663 4.00776 3.35711 4.02735 3.45562C4.04695 3.55412 4.03689 3.65623 3.99845 3.74902C3.96002 3.84181 3.89493 3.92112 3.81142 3.97692C3.72791 4.03272 3.62973 4.0625 3.5293 4.0625C3.39466 4.06235 3.26558 4.0088 3.17038 3.9136C3.07518 3.8184 3.02163 3.68932 3.02148 3.55469ZM21.454 13.8792C21.4065 14.0248 21.3499 14.1672 21.2846 14.3057C21.2628 14.351 21.2503 14.4001 21.2476 14.4502C21.245 14.5003 21.2522 14.5505 21.269 14.5978C21.2858 14.6451 21.3118 14.6887 21.3455 14.7259C21.3792 14.7631 21.4199 14.7934 21.4653 14.8148C21.5107 14.8362 21.5599 14.8485 21.61 14.8509C21.6602 14.8532 21.7103 14.8456 21.7575 14.8286C21.8047 14.8115 21.8481 14.7852 21.8851 14.7513C21.9222 14.7174 21.9521 14.6765 21.9733 14.631C22.0524 14.4635 22.1208 14.2912 22.1782 14.1151C22.1943 14.0673 22.2008 14.0169 22.1974 13.9666C22.1939 13.9164 22.1804 13.8673 22.1578 13.8223C22.1353 13.7773 22.104 13.7372 22.0658 13.7043C22.0276 13.6715 21.9832 13.6465 21.9353 13.6309C21.8874 13.6153 21.8369 13.6094 21.7867 13.6134C21.7365 13.6175 21.6876 13.6315 21.6428 13.6546C21.598 13.6777 21.5583 13.7094 21.5259 13.748C21.4935 13.7865 21.469 13.8312 21.454 13.8792ZM18.7891 11.6289C19.2015 11.629 19.6093 11.5424 19.986 11.3745C20.3626 11.2067 20.6998 10.9614 20.9754 10.6547C21.0069 10.6997 21.0378 10.7452 21.067 10.7914C21.0938 10.8336 21.1286 10.8702 21.1695 10.899C21.2104 10.9277 21.2566 10.9482 21.3054 10.9591C21.3542 10.9701 21.4047 10.9713 21.454 10.9627C21.5033 10.9541 21.5504 10.9359 21.5926 10.9092C21.6349 10.8824 21.6714 10.8475 21.7002 10.8066C21.729 10.7657 21.7494 10.7196 21.7604 10.6707C21.7713 10.6219 21.7725 10.5715 21.764 10.5222C21.7554 10.4729 21.7372 10.4258 21.7104 10.3835C21.6236 10.247 21.5294 10.1154 21.4282 9.98913C21.6184 9.6049 21.7224 9.18378 21.7329 8.75518C21.7434 8.32659 21.6603 7.90087 21.4892 7.50777C21.3181 7.11467 21.0632 6.76366 20.7424 6.47928C20.4216 6.19491 20.0425 5.98401 19.6317 5.86134C19.2209 5.73867 18.7883 5.70718 18.3641 5.76907C17.9398 5.83096 17.5342 5.98473 17.1756 6.21966C16.817 6.45458 16.514 6.76497 16.2878 7.12916C16.0616 7.49334 15.9176 7.90253 15.8659 8.32812H15.4485C15.3475 8.32812 15.2506 8.36825 15.1792 8.43968C15.1078 8.5111 15.0677 8.60797 15.0677 8.70898C15.0677 8.80999 15.1078 8.90687 15.1792 8.97829C15.2506 9.04972 15.3475 9.08984 15.4485 9.08984H15.8724C15.9713 9.79338 16.3207 10.4376 16.8566 10.9041C17.3924 11.3706 18.0786 11.6279 18.7891 11.6289ZM18.7891 6.5C19.2209 6.5 19.6431 6.62807 20.0022 6.868C20.3613 7.10794 20.6412 7.44897 20.8064 7.84797C20.9717 8.24697 21.015 8.68602 20.9307 9.10959C20.8464 9.53317 20.6385 9.92225 20.3331 10.2276C20.0277 10.533 19.6386 10.741 19.2151 10.8252C18.7915 10.9095 18.3524 10.8662 17.9534 10.701C17.5544 10.5357 17.2134 10.2558 16.9735 9.89673C16.7335 9.53764 16.6055 9.11547 16.6055 8.68359C16.6061 8.10467 16.8364 7.54964 17.2457 7.14027C17.6551 6.73091 18.2101 6.50065 18.7891 6.5ZM14.9331 16.4023H14.4259C14.3249 16.4023 14.2281 16.4425 14.1566 16.5139C14.0852 16.5853 14.0451 16.6822 14.0451 16.7832C14.0451 16.8842 14.0852 16.9811 14.1566 17.0525C14.2281 17.1239 14.3249 17.1641 14.4259 17.1641H14.9331C15.0341 17.1641 15.131 17.1239 15.2024 17.0525C15.2738 16.9811 15.3139 16.8842 15.3139 16.7832C15.3139 16.6822 15.2738 16.5853 15.2024 16.5139C15.131 16.4425 15.0341 16.4023 14.9331 16.4023ZM20.4778 15.413C20.3661 15.5178 20.2479 15.6155 20.1241 15.7056C20.0836 15.735 20.0493 15.7721 20.0232 15.8147C19.9971 15.8574 19.9796 15.9047 19.9718 15.9541C19.964 16.0035 19.966 16.054 19.9776 16.1026C19.9893 16.1513 20.0105 16.1971 20.0399 16.2376C20.0693 16.278 20.1064 16.3123 20.149 16.3384C20.1917 16.3646 20.2391 16.382 20.2885 16.3899C20.3379 16.3977 20.3883 16.3957 20.4369 16.384C20.4856 16.3723 20.5314 16.3512 20.5719 16.3218C20.7214 16.213 20.8641 16.095 20.999 15.9685C21.0726 15.8994 21.1158 15.8038 21.1191 15.7028C21.1223 15.6019 21.0853 15.5038 21.0162 15.4301C20.947 15.3564 20.8515 15.3132 20.7505 15.31C20.6496 15.3068 20.5515 15.3438 20.4778 15.4129V15.413ZM18.8854 16.2886C18.7371 16.3264 18.5866 16.3549 18.4347 16.3739C18.3384 16.3857 18.2503 16.4339 18.1883 16.5085C18.1263 16.5831 18.0951 16.6785 18.101 16.7753C18.107 16.8721 18.1497 16.963 18.2204 17.0295C18.291 17.0959 18.3844 17.1328 18.4814 17.1328C18.4974 17.1328 18.5133 17.1318 18.5291 17.1298C18.7128 17.1068 18.8948 17.0724 19.0741 17.0265C19.1229 17.0145 19.1688 16.9928 19.2092 16.9629C19.2495 16.933 19.2836 16.8954 19.3094 16.8523C19.3352 16.8091 19.3522 16.7613 19.3594 16.7116C19.3666 16.6619 19.3639 16.6112 19.3515 16.5625C19.339 16.5138 19.3171 16.4681 19.2868 16.4279C19.2566 16.3878 19.2188 16.354 19.1755 16.3285C19.1321 16.3031 19.0842 16.2864 19.0344 16.2796C18.9846 16.2727 18.934 16.2758 18.8854 16.2886ZM25.1875 23.7636V23.1309C25.1864 22.3416 24.9052 21.5784 24.3938 20.9772C23.8825 20.376 23.1742 19.9759 22.3954 19.8482C22.4888 19.6546 22.5315 19.4406 22.5195 19.226C22.5076 19.0115 22.4414 18.8035 22.3271 18.6215C22.2129 18.4395 22.0543 18.2895 21.8662 18.1855C21.6782 18.0816 21.4668 18.027 21.252 18.027C21.0371 18.027 20.8257 18.0816 20.6377 18.1855C20.4496 18.2895 20.291 18.4395 20.1768 18.6215C20.0625 18.8035 19.9963 19.0115 19.9844 19.226C19.9724 19.4406 20.0152 19.6546 20.1085 19.8482C19.3297 19.9759 18.6214 20.376 18.1101 20.9772C17.5987 21.5784 17.3175 22.3416 17.3164 23.1309V23.7636C17.1449 23.8159 16.988 23.9076 16.8583 24.0314C16.7287 24.1552 16.6298 24.3077 16.5697 24.4766H16.4277C16.3267 24.4766 16.2299 24.5167 16.1584 24.5881C16.087 24.6595 16.0469 24.7564 16.0469 24.8574C16.0469 24.9584 16.087 25.0553 16.1584 25.1267C16.2299 25.1982 16.3267 25.2383 16.4277 25.2383H16.5694C16.6484 25.4609 16.7943 25.6536 16.9871 25.79C17.18 25.9263 17.4103 25.9997 17.6465 26H24.8574C25.1315 26 25.3965 25.9015 25.604 25.7224C25.8116 25.5432 25.9477 25.2955 25.9878 25.0243C26.0278 24.7531 25.969 24.4766 25.8221 24.2451C25.6752 24.0137 25.4499 23.8428 25.1875 23.7636V23.7636ZM21.252 18.7891C21.3524 18.7891 21.4506 18.8188 21.5341 18.8746C21.6176 18.9304 21.6827 19.0098 21.7211 19.1025C21.7595 19.1953 21.7696 19.2974 21.75 19.3959C21.7304 19.4944 21.6821 19.5849 21.611 19.656C21.54 19.727 21.4495 19.7753 21.351 19.7949C21.2525 19.8145 21.1504 19.8045 21.0576 19.766C20.9648 19.7276 20.8855 19.6625 20.8297 19.579C20.7739 19.4955 20.7441 19.3973 20.7441 19.2969C20.7443 19.1622 20.7978 19.0332 20.893 18.938C20.9882 18.8428 21.1173 18.7892 21.252 18.7891ZM18.0781 23.1309C18.0789 22.451 18.3493 21.7991 18.8301 21.3184C19.3108 20.8376 19.9627 20.5672 20.6426 20.5664H21.8613C22.5412 20.5672 23.1931 20.8376 23.6738 21.3184C24.1546 21.7991 24.425 22.451 24.4258 23.1309V23.7148H18.0781V23.1309ZM24.8574 25.2383H17.6465C17.5455 25.2383 17.4486 25.1982 17.3772 25.1267C17.3057 25.0553 17.2656 24.9584 17.2656 24.8574C17.2656 24.7564 17.3057 24.6595 17.3772 24.5881C17.4486 24.5167 17.5455 24.4766 17.6465 24.4766H24.8574C24.9584 24.4766 25.0553 24.5167 25.1267 24.5881C25.1982 24.6595 25.2383 24.7564 25.2383 24.8574C25.2383 24.9584 25.1982 25.0553 25.1267 25.1267C25.0553 25.1982 24.9584 25.2383 24.8574 25.2383ZM16.4546 16.4023C16.3536 16.4023 16.2568 16.4425 16.1853 16.5139C16.1139 16.5853 16.0738 16.6822 16.0738 16.7832C16.0738 16.8842 16.1139 16.9811 16.1853 17.0525C16.2568 17.1239 16.3536 17.1641 16.4546 17.1641H16.9619C17.0629 17.1641 17.1597 17.1239 17.2312 17.0525C17.3026 16.9811 17.3427 16.8842 17.3427 16.7832C17.3427 16.6822 17.3026 16.5853 17.2312 16.5139C17.1597 16.4425 17.0629 16.4023 16.9619 16.4023H16.4546ZM14.8979 24.4766H14.3908C14.2898 24.4766 14.1929 24.5167 14.1215 24.5881C14.0501 24.6595 14.0099 24.7564 14.0099 24.8574C14.0099 24.9584 14.0501 25.0553 14.1215 25.1267C14.1929 25.1982 14.2898 25.2383 14.3908 25.2383H14.8979C14.999 25.2383 15.0958 25.1982 15.1673 25.1267C15.2387 25.0553 15.2788 24.9584 15.2788 24.8574C15.2788 24.7564 15.2387 24.6595 15.1673 24.5881C15.0958 24.5167 14.999 24.4766 14.8979 24.4766ZM14.3078 8.70898C14.3078 8.60797 14.2676 8.5111 14.1962 8.43968C14.1248 8.36825 14.0279 8.32812 13.9269 8.32812H13.4198C13.3187 8.32812 13.2219 8.36825 13.1504 8.43968C13.079 8.5111 13.0389 8.60797 13.0389 8.70898C13.0389 8.80999 13.079 8.90687 13.1504 8.97829C13.2219 9.04972 13.3187 9.08984 13.4198 9.08984H13.9269C14.0279 9.08984 14.1248 9.04972 14.1962 8.97829C14.2676 8.90687 14.3078 8.80999 14.3078 8.70898ZM10.2503 8.70898C10.2503 8.60797 10.2102 8.5111 10.1388 8.43968C10.0674 8.36825 9.9705 8.32812 9.86949 8.32812H9.36223C9.26122 8.32812 9.16435 8.36825 9.09293 8.43968C9.0215 8.5111 8.98137 8.60797 8.98137 8.70898C8.98137 8.80999 9.0215 8.90687 9.09293 8.97829C9.16435 9.04972 9.26122 9.08984 9.36223 9.08984H9.86944C9.97045 9.08984 10.0673 9.04972 10.1387 8.97829C10.2102 8.90687 10.2503 8.80999 10.2503 8.70898ZM10.8756 16.4023H10.3684C10.2674 16.4023 10.1705 16.4425 10.0991 16.5139C10.0276 16.5853 9.9875 16.6822 9.9875 16.7832C9.9875 16.8842 10.0276 16.9811 10.0991 17.0525C10.1705 17.1239 10.2674 17.1641 10.3684 17.1641H10.8756C10.9766 17.1641 11.0735 17.1239 11.1449 17.0525C11.2163 16.9811 11.2564 16.8842 11.2564 16.7832C11.2564 16.6822 11.2163 16.5853 11.1449 16.5139C11.0735 16.4425 10.9766 16.4023 10.8756 16.4023ZM10.8404 24.4766H10.3332C10.2322 24.4766 10.1353 24.5167 10.0639 24.5881C9.99249 24.6595 9.95236 24.7564 9.95236 24.8574C9.95236 24.9584 9.99249 25.0553 10.0639 25.1267C10.1353 25.1982 10.2322 25.2383 10.3332 25.2383H10.8404C10.9414 25.2383 11.0383 25.1982 11.1097 25.1267C11.1812 25.0553 11.2213 24.9584 11.2213 24.8574C11.2213 24.7564 11.1812 24.6595 11.1097 24.5881C11.0383 24.5167 10.9414 24.4766 10.8404 24.4766ZM12.279 8.70898C12.279 8.60797 12.2389 8.5111 12.1675 8.43968C12.096 8.36825 11.9992 8.32812 11.8981 8.32812H11.3909C11.2899 8.32812 11.1931 8.36825 11.1216 8.43968C11.0502 8.5111 11.0101 8.60797 11.0101 8.70898C11.0101 8.80999 11.0502 8.90687 11.1216 8.97829C11.1931 9.04972 11.2899 9.08984 11.3909 9.08984H11.8981C11.9992 9.08984 12.096 9.04972 12.1675 8.97829C12.2389 8.90687 12.279 8.80999 12.279 8.70898ZM12.8692 24.4766H12.362C12.261 24.4766 12.1642 24.5167 12.0927 24.5881C12.0213 24.6595 11.9812 24.7564 11.9812 24.8574C11.9812 24.9584 12.0213 25.0553 12.0927 25.1267C12.1642 25.1982 12.261 25.2383 12.362 25.2383H12.8692C12.9702 25.2383 13.0671 25.1982 13.1385 25.1267C13.21 25.0553 13.2501 24.9584 13.2501 24.8574C13.2501 24.7564 13.21 24.6595 13.1385 24.5881C13.0671 24.5167 12.9702 24.4766 12.8692 24.4766ZM12.9044 16.4023H12.3972C12.2962 16.4023 12.1993 16.4425 12.1279 16.5139C12.0564 16.5853 12.0163 16.6822 12.0163 16.7832C12.0163 16.8842 12.0564 16.9811 12.1279 17.0525C12.1993 17.1239 12.2962 17.1641 12.3972 17.1641H12.9044C13.0054 17.1641 13.1023 17.1239 13.1737 17.0525C13.2451 16.9811 13.2852 16.8842 13.2852 16.7832C13.2852 16.6822 13.2451 16.5853 13.1737 16.5139C13.1023 16.4425 13.0054 16.4023 12.9044 16.4023Z" fill="black"/>
</g>
<defs>
<clipPath id="clip0_62_31">
<rect width="26" height="26" fill="white"/>
</clipPath>
</defs>
</svg>
