<svg width="36" height="36" viewBox="0 0 36 36" fill="none" xmlns="http://www.w3.org/2000/svg">
<path d="M11.071 9H32.93C33.0707 9 33.21 9.02774 33.3399 9.08164C33.4699 9.13554 33.5879 9.21453 33.6873 9.3141C33.7867 9.41367 33.8655 9.53187 33.9191 9.66192C33.9728 9.79196 34.0003 9.93132 34 10.072V22.929C34.0001 23.0697 33.9725 23.209 33.9187 23.339C33.865 23.469 33.7861 23.5871 33.6866 23.6866C33.5871 23.7861 33.469 23.865 33.339 23.9187C33.209 23.9725 33.0697 24.0001 32.929 24H11.07C10.7862 24 10.5141 23.8873 10.3134 23.6866C10.1127 23.4859 10 23.2138 10 22.93V10.072C9.99974 9.93123 10.0273 9.7918 10.081 9.66168C10.1347 9.53157 10.2136 9.41333 10.313 9.31375C10.4125 9.21417 10.5307 9.13519 10.6608 9.08135C10.7908 9.02751 10.9302 8.99987 11.071 9Z" fill="#E9EDED"/>
<path d="M10 11V14H34V11H10Z" fill="#34485C"/>
<path d="M15 21H12V22H15V21Z" fill="#CAD1D8"/>
<path d="M29.6 18C29.6 18.5304 29.3893 19.0391 29.0142 19.4142C28.6391 19.7893 28.1304 20 27.6 20C27.0695 20 26.5608 19.7893 26.1858 19.4142C25.8107 19.0391 25.6 18.5304 25.6 18C25.6 17.4696 25.8107 16.9609 26.1858 16.5858C26.5608 16.2107 27.0695 16 27.6 16C28.1304 16 28.6391 16.2107 29.0142 16.5858C29.3893 16.9609 29.6 17.4696 29.6 18Z" fill="#F8B84E"/>
<path d="M19 21H16V22H19V21ZM23 21H20V22H23V21ZM27 21H24V22H27V21ZM23 17H12V19H23V17Z" fill="#CAD1D8"/>
<path d="M32 18C32 18.5304 31.7893 19.0391 31.4142 19.4142C31.0391 19.7893 30.5304 20 30 20C29.4696 20 28.9609 19.7893 28.5858 19.4142C28.2107 19.0391 28 18.5304 28 18C28 17.4696 28.2107 16.9609 28.5858 16.5858C28.9609 16.2107 29.4696 16 30 16C30.5304 16 31.0391 16.2107 31.4142 16.5858C31.7893 16.9609 32 17.4696 32 18Z" fill="#F05542"/>
<path d="M3.071 12H24.93C25.0707 12 25.21 12.0277 25.3399 12.0816C25.4699 12.1355 25.5879 12.2145 25.6873 12.3141C25.7867 12.4137 25.8655 12.5319 25.9191 12.6619C25.9728 12.792 26.0003 12.9313 26 13.072V25.929C26.0001 26.0697 25.9725 26.209 25.9187 26.339C25.865 26.469 25.7861 26.5871 25.6866 26.6866C25.5871 26.7861 25.469 26.865 25.339 26.9187C25.209 26.9725 25.0697 27.0001 24.929 27H3.07C2.78622 27 2.51406 26.8873 2.3134 26.6866C2.11273 26.4859 2 26.2138 2 25.93V13.072C1.99974 12.9312 2.02725 12.7918 2.08097 12.6617C2.13469 12.5316 2.21355 12.4133 2.31304 12.3137C2.41253 12.2142 2.5307 12.1352 2.66076 12.0814C2.79083 12.0275 2.93024 11.9999 3.071 12Z" fill="#4BBFEB"/>
<path d="M14 23C15.933 23 17.5 21.433 17.5 19.5C17.5 17.567 15.933 16 14 16C12.067 16 10.5 17.567 10.5 19.5C10.5 21.433 12.067 23 14 23Z" stroke="#78C8F0" stroke-miterlimit="8.78" stroke-linecap="square"/>
<path d="M19 17H21M20 19.5H23M19 22H21M9 17H7M8 19.5H5M9 22H7" stroke="#78C8F0"/>
<path d="M11.072 8C10.5239 8.0047 9.99963 8.22451 9.61207 8.61207C9.22451 8.99963 9.0047 9.52393 9 10.072V11H3.072C2.52393 11.0047 1.99963 11.2245 1.61207 11.6121C1.22451 11.9996 1.0047 12.5239 1 13.072V25.928C1.0047 26.4761 1.22451 27.0004 1.61207 27.3879C1.99963 27.7755 2.52393 27.9953 3.072 28H24.928C25.4761 27.9953 26.0004 27.7755 26.3879 27.3879C26.7755 27.0004 26.9953 26.4761 27 25.928V25H32.928C33.4761 24.9953 34.0004 24.7755 34.3879 24.3879C34.7755 24.0004 34.9953 23.4761 35 22.928V10.072C34.9953 9.52393 34.7755 8.99963 34.3879 8.61207C34.0004 8.22451 33.4761 8.0047 32.928 8H11.072ZM11.072 9H32.928C33.0689 8.99974 33.2084 9.02728 33.3385 9.08106C33.4687 9.13484 33.587 9.2138 33.6866 9.31339C33.7862 9.41299 33.8652 9.53127 33.9189 9.66145C33.9727 9.79163 34.0003 9.93115 34 10.072V22.928C34.0003 23.0689 33.9727 23.2084 33.9189 23.3385C33.8652 23.4687 33.7862 23.587 33.6866 23.6866C33.587 23.7862 33.4687 23.8652 33.3385 23.9189C33.2084 23.9727 33.0689 24.0003 32.928 24H26V25.928C26.0003 26.0689 25.9727 26.2084 25.9189 26.3385C25.8652 26.4687 25.7862 26.587 25.6866 26.6866C25.587 26.7862 25.4687 26.8652 25.3385 26.9189C25.2084 26.9727 25.0689 27.0003 24.928 27H3.072C2.93115 27.0003 2.79163 26.9727 2.66145 26.9189C2.53127 26.8652 2.41299 26.7862 2.31339 26.6866C2.2138 26.587 2.13484 26.4687 2.08106 26.3385C2.02728 26.2084 1.99974 26.0689 2 25.928V13.072C1.99974 12.9311 2.02728 12.7916 2.08106 12.6615C2.13484 12.5313 2.2138 12.413 2.31339 12.3134C2.41299 12.2138 2.53127 12.1348 2.66145 12.0811C2.79163 12.0273 2.93115 11.9997 3.072 12H10V10.072C9.99974 9.93115 10.0273 9.79163 10.0811 9.66145C10.1348 9.53127 10.2138 9.41299 10.3134 9.31339C10.413 9.2138 10.5313 9.13484 10.6615 9.08106C10.7916 9.02728 10.9311 8.99974 11.072 9Z" fill="#E9EDED" fill-opacity="0.444"/>
</svg>
