<svg width="10" height="10" viewBox="0 0 10 10" fill="none" xmlns="http://www.w3.org/2000/svg">
<path d="M1.90002 5.41667C1.99169 5.41667 2.08752 5.3875 2.17919 5.36667C2.36482 5.32576 2.54724 5.27145 2.72502 5.20417C2.91832 5.13385 3.13079 5.1375 3.32156 5.21442C3.51232 5.29134 3.6679 5.4361 3.75835 5.62083L3.85002 5.80833C4.25585 5.58258 4.62878 5.30218 4.95835 4.975C5.28553 4.64542 5.56593 4.2725 5.79169 3.86667L5.61669 3.75C5.43195 3.65955 5.28719 3.50397 5.21027 3.31321C5.13335 3.12244 5.1297 2.90996 5.20002 2.71667C5.26618 2.53851 5.32046 2.35617 5.36252 2.17083C5.38335 2.07917 5.40002 1.98333 5.41252 1.8875C5.46312 1.59401 5.61684 1.32823 5.84601 1.13802C6.07518 0.947808 6.36473 0.845671 6.66252 0.850001H7.91252C8.09209 0.848315 8.26991 0.88534 8.43389 0.958555C8.59787 1.03177 8.74414 1.13946 8.86276 1.27429C8.98137 1.40911 9.06955 1.56792 9.12127 1.73988C9.173 1.91185 9.18707 2.09294 9.16252 2.27083C8.94054 4.01641 8.14334 5.63828 6.89683 6.88027C5.65032 8.12225 4.02556 8.91355 2.27919 9.12917H2.12085C1.8136 9.12962 1.51694 9.01689 1.28752 8.8125C1.1557 8.6946 1.0504 8.55008 0.978575 8.38847C0.906749 8.22686 0.870033 8.05185 0.870852 7.875V6.625C0.875957 6.33558 0.98135 6.0569 1.16904 5.83653C1.35674 5.61616 1.6151 5.46776 1.90002 5.41667ZM1.69169 7.91667C1.69176 7.97583 1.70443 8.03429 1.72886 8.08818C1.75329 8.14206 1.78891 8.19012 1.83335 8.22917C1.87991 8.26937 1.93435 8.29939 1.99319 8.31733C2.05202 8.33527 2.11395 8.34072 2.17502 8.33333C3.73548 8.13325 5.18492 7.41937 6.29472 6.30429C7.40452 5.18921 8.11151 3.73639 8.30419 2.175C8.31082 2.11397 8.30501 2.05222 8.2871 1.9935C8.2692 1.93477 8.23957 1.88029 8.20002 1.83333C8.16097 1.78889 8.11291 1.75327 8.05903 1.72884C8.00515 1.70441 7.94668 1.69174 7.88752 1.69167H6.63752C6.54062 1.68951 6.44601 1.7212 6.36996 1.78128C6.29391 1.84136 6.24118 1.92607 6.22085 2.02083C6.20419 2.13472 6.18335 2.24722 6.15835 2.35833C6.11022 2.57798 6.04616 2.79383 5.96669 3.00417L6.55002 3.275C6.5999 3.29788 6.64476 3.3304 6.68204 3.37067C6.71931 3.41094 6.74827 3.45817 6.76724 3.50967C6.78621 3.56116 6.79482 3.61589 6.79258 3.67072C6.79034 3.72555 6.77729 3.77939 6.75419 3.82917C6.15452 5.11365 5.122 6.14617 3.83752 6.74583C3.73608 6.78751 3.62229 6.78751 3.52085 6.74583C3.46889 6.72725 3.42114 6.69852 3.38036 6.66133C3.33959 6.62413 3.30662 6.57921 3.28335 6.52917L3.02502 5.94584C2.80962 6.02287 2.58978 6.08687 2.36669 6.1375C2.25557 6.1625 2.14307 6.18333 2.02919 6.2C1.93442 6.22033 1.84971 6.27306 1.78963 6.34911C1.72955 6.42516 1.69786 6.51977 1.70002 6.61667L1.69169 7.91667Z" fill="black"/>
</svg>
