<svg width="33" height="33" viewBox="0 0 33 33" fill="none" xmlns="http://www.w3.org/2000/svg">
<path fill-rule="evenodd" clip-rule="evenodd" d="M14.0746 6.875C13.5538 6.875 13.0777 7.16925 12.8448 7.63509L12.3024 8.71976C11.6037 10.1172 10.1753 11 8.6129 11H6.875C6.11561 11 5.5 11.6156 5.5 12.375V24.75C5.5 25.5094 6.11561 26.125 6.875 26.125H26.125C26.8844 26.125 27.5 25.5094 27.5 24.75V12.375C27.5 11.6156 26.8844 11 26.125 11H24.3871C22.8247 11 21.3964 10.1172 20.6976 8.71976L20.1553 7.63509C19.9224 7.16925 19.4462 6.875 18.9254 6.875H14.0746ZM10.3851 6.40525C11.0838 5.00776 12.5122 4.125 14.0746 4.125H18.9254C20.4878 4.125 21.9161 5.00776 22.6149 6.40525L23.1572 7.48991C23.3901 7.95575 23.8663 8.25 24.3871 8.25H26.125C28.4032 8.25 30.25 10.0968 30.25 12.375V24.75C30.25 27.0282 28.4032 28.875 26.125 28.875H6.875C4.59683 28.875 2.75 27.0282 2.75 24.75V12.375C2.75 10.0968 4.59683 8.25 6.875 8.25H8.6129C9.13371 8.25 9.60983 7.95575 9.84274 7.48991L10.3851 6.40525ZM16.5 9.625C17.2594 9.625 17.875 10.2406 17.875 11V15.125H22C22.7594 15.125 23.375 15.7406 23.375 16.5C23.375 17.2594 22.7594 17.875 22 17.875H17.875V22C17.875 22.7594 17.2594 23.375 16.5 23.375C15.7406 23.375 15.125 22.7594 15.125 22V17.875H11C10.2406 17.875 9.625 17.2594 9.625 16.5C9.625 15.7406 10.2406 15.125 11 15.125H15.125V11C15.125 10.2406 15.7406 9.625 16.5 9.625Z" fill="url(#paint0_linear_72_31)" fill-opacity="0.39"/>
<defs>
<linearGradient id="paint0_linear_72_31" x1="16.5" y1="4.125" x2="16.5" y2="28.875" gradientUnits="userSpaceOnUse">
<stop stop-color="#57EAEA"/>
<stop offset="1" stop-color="#2BC9FF"/>
</linearGradient>
</defs>
</svg>
