<svg width="20" height="20" viewBox="0 0 20 20" fill="none" xmlns="http://www.w3.org/2000/svg">
<path d="M7.02041 9.89046C7.02041 9.89046 5.96687 14.1424 5.57357 16.0676C5.17968 17.9927 5.44247 19.3179 5.85821 19.3705C6.27455 19.423 7.28733 18.7699 7.89737 16.4957C8.50681 14.2215 8.63141 13.6009 8.63141 13.6009C8.63141 13.6009 11.0367 16.8223 15.1345 13.6009C19.2323 10.38 17.7642 4.9163 15.9093 2.89781C14.0538 0.879328 9.93593 -0.364361 6.00112 1.65353C2.06691 3.6732 2.20923 7.64816 2.24998 8.5452C2.29132 9.44224 2.75962 10.9712 3.96256 11.8068C5.1655 12.6424 5.5529 10.7674 5.34857 10.4615C5.14483 10.1556 2.84112 8.36154 4.83893 5.16078C6.83734 1.96003 11.3834 2.04152 13.2383 3.46887C15.0938 4.89563 15.7463 8.1578 14.4005 10.7468C13.0552 13.3357 9.54853 13.2135 9.38554 10.9712C9.22255 8.72827 10.853 7.72906 10.3027 6.05782C9.75227 4.38599 7.34698 5.07929 6.87749 6.79187C6.40919 8.50445 7.02041 9.89046 7.02041 9.89046Z" fill="url(#paint0_linear_18_39)"/>
<path d="M7.49582 10.2696L7.34346 10.2365L7.27614 10.5412L7.42791 10.5749L7.49582 10.2696ZM7.32634 11.0326L7.17457 10.9989L7.10665 11.3036L7.25842 11.3373L7.32634 11.0326ZM7.15685 11.7956L7.00508 11.7619L6.93717 12.0672L7.08894 12.1009L7.15685 11.7956ZM6.98736 12.5579L6.83559 12.5243L6.76768 12.8296L6.91945 12.8633L6.98736 12.5579ZM6.81847 13.3203L6.66611 13.2867L6.59878 13.5914L6.75055 13.6257L6.81847 13.3203ZM6.64839 14.0833L6.49662 14.0497L6.42871 14.355L6.58107 14.3886L6.64839 14.0833ZM6.47949 14.8457L6.32772 14.8121L6.25981 15.1174L6.41158 15.151L6.47949 14.8457ZM6.31001 15.6081L6.15824 15.5745L6.09032 15.8798L6.24209 15.9134L6.31001 15.6081ZM6.14052 16.3717L5.98875 16.338L5.92084 16.6427L6.07261 16.6764L6.14052 16.3717Z" fill="#8C092F"/>
<defs>
<linearGradient id="paint0_linear_18_39" x1="6.71273" y1="19.3746" x2="9.99971" y2="0.624803" gradientUnits="userSpaceOnUse">
<stop stop-color="#D90947"/>
<stop offset="1" stop-color="#FF585B"/>
</linearGradient>
</defs>
</svg>
