<svg width="22" height="22" viewBox="0 0 22 22" fill="none" xmlns="http://www.w3.org/2000/svg">
<g clip-path="url(#clip0_62_21)">
<path d="M15.4799 4.94476V0.34375C15.4799 0.252582 15.5161 0.165148 15.5806 0.100682C15.645 0.0362164 15.7325 0 15.8236 0L20.8002 0C20.8914 0 20.9788 0.0362164 21.0433 0.100682C21.1078 0.165148 21.144 0.252582 21.144 0.34375C21.144 0.434918 21.1078 0.522352 21.0433 0.586818C20.9788 0.651284 20.8914 0.6875 20.8002 0.6875H16.1674V4.60101H20.4565V3.02281L19.5183 3.87423C19.4551 3.9317 19.3727 3.96351 19.2873 3.96344C19.2422 3.96349 19.1975 3.95463 19.1557 3.93735C19.114 3.92007 19.0761 3.89472 19.0442 3.86276L18.0689 2.88741C18.0364 2.85563 18.0105 2.81771 17.9927 2.77585C17.975 2.73399 17.9657 2.68903 17.9655 2.64356C17.9652 2.5981 17.974 2.55304 17.9913 2.51098C18.0085 2.46893 18.034 2.43072 18.0661 2.39857C18.0983 2.36642 18.1365 2.34097 18.1785 2.32369C18.2206 2.30641 18.2657 2.29764 18.3111 2.2979C18.3566 2.29815 18.4016 2.30742 18.4434 2.32517C18.4853 2.34292 18.5232 2.3688 18.555 2.40131L19.2988 3.1451L21.4252 1.21533C21.4927 1.15406 21.5818 1.12212 21.6728 1.12653C21.7639 1.13095 21.8495 1.17136 21.9107 1.23888C21.972 1.30639 22.004 1.39548 21.9995 1.48655C21.9951 1.57761 21.9547 1.66319 21.8872 1.72446L21.144 2.3989V4.9448C21.144 5.03597 21.1078 5.1234 21.0433 5.18787C20.9788 5.25233 20.8914 5.28855 20.8002 5.28855H15.8236C15.7325 5.28854 15.645 5.25231 15.5806 5.18784C15.5161 5.12337 15.4799 5.03593 15.4799 4.94476ZM21.4252 9.57103L19.2988 11.5008L18.555 10.757C18.5232 10.7245 18.4853 10.6986 18.4434 10.6809C18.4016 10.6631 18.3566 10.6539 18.3111 10.6536C18.2657 10.6533 18.2206 10.6621 18.1785 10.6794C18.1365 10.6967 18.0983 10.7221 18.0661 10.7543C18.034 10.7864 18.0085 10.8246 17.9913 10.8667C17.974 10.9087 17.9652 10.9538 17.9655 10.9993C17.9657 11.0447 17.975 11.0897 17.9927 11.1316C18.0105 11.1734 18.0364 11.2113 18.0689 11.2431L19.0442 12.2185C19.0761 12.2504 19.114 12.2758 19.1557 12.2931C19.1975 12.3103 19.2422 12.3192 19.2873 12.3191C19.3727 12.3192 19.4551 12.2874 19.5183 12.2299L20.4565 11.3785V12.9567H16.1674V9.0432H20.8002C20.8914 9.0432 20.9788 9.00699 21.0433 8.94252C21.1078 8.87806 21.144 8.79062 21.144 8.69945C21.144 8.60828 21.1078 8.52085 21.0433 8.45639C20.9788 8.39192 20.8914 8.3557 20.8002 8.3557H15.8236C15.7325 8.3557 15.645 8.39192 15.5806 8.45639C15.5161 8.52085 15.4799 8.60828 15.4799 8.69945V13.3005C15.4799 13.3916 15.5161 13.4791 15.5806 13.5435C15.645 13.608 15.7325 13.6442 15.8236 13.6442H20.8002C20.8914 13.6442 20.9788 13.608 21.0433 13.5435C21.1078 13.4791 21.144 13.3916 21.144 13.3005V10.7608C21.144 10.7588 21.1437 10.7569 21.1437 10.7549L21.8872 10.0801C21.921 10.0499 21.9486 10.0133 21.9683 9.97237C21.9879 9.93145 21.9993 9.88704 22.0016 9.84171C22.004 9.79638 21.9974 9.75103 21.9822 9.70826C21.967 9.6655 21.9434 9.62617 21.9129 9.59256C21.8824 9.55894 21.8456 9.5317 21.8045 9.51241C21.7634 9.49312 21.7189 9.48215 21.6735 9.48015C21.6282 9.47815 21.5829 9.48515 21.5403 9.50075C21.4976 9.51635 21.4585 9.54023 21.4252 9.57103ZM21.4252 17.9268L19.2988 19.8565L18.555 19.1127C18.5232 19.0802 18.4853 19.0543 18.4434 19.0366C18.4016 19.0188 18.3566 19.0096 18.3111 19.0093C18.2657 19.009 18.2206 19.0178 18.1785 19.0351C18.1365 19.0524 18.0983 19.0778 18.0661 19.11C18.034 19.1421 18.0085 19.1803 17.9913 19.2224C17.974 19.2644 17.9652 19.3095 17.9655 19.355C17.9657 19.4004 17.975 19.4454 17.9927 19.4873C18.0105 19.5291 18.0364 19.567 18.0689 19.5988L19.0442 20.5742C19.0761 20.6061 19.114 20.6315 19.1557 20.6488C19.1975 20.666 19.2422 20.6749 19.2873 20.6748C19.3727 20.6749 19.4551 20.6431 19.5183 20.5856L20.4565 19.7342V21.3125H16.1674V17.3989H20.8002C20.8914 17.3989 20.9788 17.3627 21.0433 17.2983C21.1078 17.2338 21.144 17.1464 21.144 17.0552C21.144 16.964 21.1078 16.8766 21.0433 16.8121C20.9788 16.7477 20.8914 16.7114 20.8002 16.7114H15.8236C15.7325 16.7114 15.645 16.7477 15.5806 16.8121C15.5161 16.8766 15.4799 16.964 15.4799 17.0552V21.6562C15.4799 21.7474 15.5161 21.8349 15.5806 21.8993C15.645 21.9638 15.7325 22 15.8236 22H20.8002C20.8914 22 20.9788 21.9638 21.0433 21.8993C21.1078 21.8349 21.144 21.7474 21.144 21.6562V19.1104L21.8872 18.4359C21.9547 18.3746 21.9951 18.2891 21.9995 18.198C22.0039 18.1069 21.972 18.0179 21.9107 17.9503C21.8495 17.8828 21.7639 17.8424 21.6728 17.838C21.5818 17.8336 21.4927 17.8655 21.4252 17.9268ZM14.4977 11.3438C14.5889 11.3438 14.6763 11.3075 14.7408 11.2431C14.8053 11.1786 14.8415 11.0912 14.8415 11C14.8415 10.9088 14.8053 10.8214 14.7408 10.7569C14.6763 10.6925 14.5889 10.6562 14.4977 10.6562H13.0753V2.98813L14.4977 2.98818C14.5889 2.98818 14.6763 2.95196 14.7408 2.88749C14.8052 2.82303 14.8414 2.73559 14.8414 2.64443C14.8414 2.55326 14.8052 2.46582 14.7408 2.40136C14.6763 2.33689 14.5889 2.30068 14.4977 2.30068L12.7316 2.30063C12.6404 2.30063 12.553 2.33685 12.4885 2.40131C12.4241 2.46578 12.3878 2.55321 12.3878 2.64438V10.6562H11.2381C11.147 10.6562 11.0595 10.6925 10.9951 10.7569C10.9306 10.8214 10.8944 10.9088 10.8944 11C10.8944 11.0912 10.9306 11.1786 10.9951 11.2431C11.0595 11.3075 11.147 11.3438 11.2381 11.3438H12.3878V19.3556C12.3878 19.4468 12.4241 19.5342 12.4885 19.5987C12.553 19.6632 12.6404 19.6994 12.7316 19.6994L14.4977 19.6993C14.5889 19.6993 14.6763 19.6631 14.7408 19.5986C14.8052 19.5341 14.8414 19.4467 14.8414 19.3555C14.8414 19.2644 14.8052 19.1769 14.7408 19.1125C14.6763 19.048 14.5889 19.0118 14.4977 19.0118L13.0753 19.0118V11.3438H14.4977ZM10.3422 10.1072C10.3643 10.2435 10.3592 10.3827 10.3271 10.517C10.2951 10.6512 10.2367 10.7777 10.1554 10.8893C9.99079 11.1165 9.74754 11.266 9.47048 11.3102C9.24242 11.3473 9.00849 11.3073 8.80571 11.1965V14.422C8.80571 15.1688 8.19818 15.7764 7.45138 15.7764H2.90391C2.15716 15.7764 1.54958 15.1688 1.54958 14.422V11.1971C1.34665 11.3074 1.11282 11.3472 0.884811 11.3102C0.74847 11.2888 0.617724 11.2406 0.500142 11.1683C0.38256 11.0961 0.280477 11.0012 0.199803 10.8893C0.0351468 10.6621 -0.031154 10.3843 0.0130608 10.1072C0.0344588 9.9709 0.0826775 9.84017 0.154928 9.72258C0.227178 9.60501 0.322025 9.50292 0.433983 9.42223L4.56087 6.42387C4.93749 6.15098 5.43851 6.15562 5.8092 6.4347L9.92157 9.42249C10.1484 9.58689 10.2979 9.83013 10.3422 10.1072ZM5.81341 12.0425C5.81341 11.9712 5.75313 11.9109 5.6818 11.9109H4.67345C4.60212 11.9109 4.54184 11.9712 4.54184 12.0425V15.0888H5.81341V12.0425ZM8.11817 14.422V10.7091L5.17765 8.57269L2.23708 10.7091V14.422C2.23708 14.7897 2.53619 15.0888 2.90391 15.0888H3.85434V12.0425C3.85434 11.5909 4.22181 11.2234 4.67345 11.2234H5.6818C6.13344 11.2234 6.50091 11.5909 6.50091 12.0425V15.0888H7.45134C7.81906 15.0888 8.11817 14.7897 8.11817 14.422ZM9.66328 10.2156C9.6559 10.1685 9.63925 10.1233 9.61428 10.0827C9.58931 10.0421 9.55653 10.0068 9.51783 9.97893L5.40254 6.989L5.39687 6.98479C5.2708 6.88918 5.09313 6.88729 4.96469 6.98032L0.837803 9.97868C0.799037 10.0066 0.766189 10.0419 0.741163 10.0825C0.716137 10.1232 0.69943 10.1684 0.69201 10.2156C0.68436 10.2627 0.686121 10.3108 0.697192 10.3572C0.708263 10.4036 0.728423 10.4473 0.756506 10.4858C0.784381 10.5245 0.819651 10.5573 0.860276 10.5823C0.9009 10.6072 0.946072 10.6239 0.993178 10.6313C1.04019 10.6389 1.08825 10.6372 1.13459 10.6262C1.18092 10.6151 1.2246 10.595 1.26311 10.567L4.97556 7.86973C5.03427 7.82702 5.10501 7.80403 5.1776 7.80407C5.2485 7.80407 5.3194 7.82594 5.37964 7.86973L9.09214 10.567C9.13064 10.5951 9.17432 10.6152 9.22065 10.6262C9.26697 10.6373 9.31503 10.639 9.36203 10.6313C9.40914 10.6239 9.45431 10.6073 9.49494 10.5823C9.53556 10.5573 9.57083 10.5246 9.5987 10.4859C9.62681 10.4473 9.64699 10.4036 9.65807 10.3572C9.66916 10.3108 9.67093 10.2627 9.66328 10.2156Z" fill="black"/>
</g>
<defs>
<clipPath id="clip0_62_21">
<rect width="22" height="22" fill="white"/>
</clipPath>
</defs>
</svg>
