<svg width="18" height="18" viewBox="0 0 18 18" fill="none" xmlns="http://www.w3.org/2000/svg">
<g clip-path="url(#clip0_39_36)">
<path d="M13.1508 10.1862C13.1006 10.1867 13.0508 10.1762 13.005 10.1556C12.9187 10.1163 12.8514 10.0445 12.8177 9.95591C12.784 9.86727 12.7866 9.76891 12.825 9.6822C12.917 9.45995 13.0646 9.26516 13.2538 9.11665C13.443 8.96814 13.6673 8.87093 13.905 8.8344L14.3658 8.7696C14.5247 8.74636 14.67 8.66693 14.7754 8.54573C14.8807 8.42453 14.9391 8.26959 14.94 8.109V8.0892C14.9391 7.92909 14.8809 7.7746 14.7759 7.65374C14.6709 7.53288 14.526 7.45364 14.3676 7.4304L13.9068 7.3638C13.6681 7.3283 13.4427 7.23158 13.2526 7.08305C13.0624 6.93453 12.9139 6.73927 12.8217 6.5163C12.7294 6.29333 12.6965 6.05026 12.7261 5.81078C12.7557 5.5713 12.8468 5.34358 12.9906 5.1498L13.2696 4.7772C13.3648 4.64835 13.4107 4.48972 13.3992 4.32996C13.3876 4.1702 13.3193 4.01983 13.2066 3.906L13.194 3.8934C13.0806 3.78004 12.9301 3.71128 12.7702 3.69972C12.6102 3.68815 12.4514 3.73454 12.3228 3.8304L11.9502 4.1094C11.7584 4.25465 11.5321 4.3476 11.2936 4.37916C11.0551 4.41071 10.8124 4.37978 10.5894 4.2894L10.5678 4.2804C10.3475 4.18788 10.155 4.03968 10.0092 3.85035C9.86345 3.66102 9.76937 3.43705 9.73623 3.2004L9.66963 2.7396C9.64792 2.57957 9.56911 2.43278 9.44772 2.32627C9.32632 2.21976 9.17052 2.16071 9.00903 2.16H9.00003C8.83971 2.16083 8.68498 2.21899 8.56382 2.32398C8.44266 2.42896 8.36306 2.57384 8.33943 2.7324L8.27283 3.1932C8.23733 3.43188 8.1406 3.65729 7.99208 3.84747C7.84355 4.03765 7.64829 4.18611 7.42532 4.27838C7.20236 4.37064 6.95929 4.40358 6.71981 4.37396C6.48033 4.34435 6.2526 4.2532 6.05883 4.1094L5.68623 3.8304C5.55765 3.73454 5.39886 3.68815 5.2389 3.69972C5.07893 3.71128 4.92847 3.78004 4.81503 3.8934L4.80243 3.906C4.68906 4.01945 4.62031 4.16991 4.60874 4.32987C4.59717 4.48984 4.64356 4.64862 4.73943 4.7772L5.01843 5.1498C5.16223 5.34358 5.25338 5.5713 5.28299 5.81078C5.3126 6.05026 5.27967 6.29333 5.1874 6.5163C5.09513 6.73927 4.94667 6.93453 4.7565 7.08305C4.56632 7.23158 4.34091 7.3283 4.10223 7.3638L3.64143 7.4304C3.48137 7.45167 3.33439 7.53004 3.22756 7.6511C3.12072 7.77216 3.06122 7.92775 3.06003 8.0892V8.109C3.06085 8.26932 3.11902 8.42405 3.224 8.54521C3.32899 8.66637 3.47386 8.74597 3.63243 8.7696L4.09323 8.8344C4.3308 8.86992 4.55514 8.96634 4.7444 9.11428C4.93366 9.26221 5.0814 9.45663 5.17323 9.6786C5.20951 9.76692 5.20922 9.86603 5.17243 9.95414C5.13563 10.0422 5.06534 10.1121 4.97703 10.1484C4.88871 10.1847 4.7896 10.1844 4.70149 10.1476C4.61339 10.1108 4.54351 10.0405 4.50723 9.9522C4.46398 9.84478 4.39368 9.75036 4.30316 9.67814C4.21264 9.60591 4.10497 9.55832 3.99063 9.54L3.52983 9.4752C3.2012 9.42672 2.90071 9.26241 2.68254 9.0119C2.46438 8.76139 2.34291 8.44118 2.34003 8.109V8.0892C2.34162 7.7561 2.46252 7.43459 2.6808 7.18296C2.89907 6.93133 3.20028 6.76623 3.52983 6.7176L3.99063 6.66C4.10712 6.64283 4.21715 6.59564 4.30988 6.52307C4.40262 6.45049 4.47487 6.35504 4.51955 6.24609C4.56422 6.13713 4.57977 6.01843 4.56467 5.90164C4.54957 5.78486 4.50434 5.67401 4.43343 5.58L4.15443 5.2074C3.9559 4.93962 3.85982 4.6096 3.88359 4.27711C3.90737 3.94461 4.04942 3.63161 4.28403 3.3948L4.29843 3.3822C4.53494 3.14773 4.84763 3.00575 5.17982 2.98197C5.51201 2.95819 5.84173 3.05421 6.10923 3.2526L6.48003 3.5334C6.57419 3.60378 6.68498 3.64855 6.8016 3.66337C6.91822 3.67818 7.03669 3.66253 7.14546 3.61794C7.25423 3.57334 7.34959 3.50132 7.42224 3.40891C7.4949 3.31649 7.54237 3.20683 7.56003 3.0906L7.62483 2.6298C7.67355 2.29965 7.83916 1.99795 8.09154 1.7796C8.34392 1.56124 8.6663 1.44074 9.00003 1.44H9.01803C9.35144 1.44117 9.67339 1.56187 9.92539 1.78019C10.1774 1.9985 10.3428 2.29996 10.3914 2.6298L10.44 3.0906C10.4572 3.2071 10.5044 3.31712 10.577 3.40986C10.6495 3.5026 10.745 3.57485 10.8539 3.61952C10.9629 3.66419 11.0816 3.67974 11.1984 3.66464C11.3152 3.64954 11.426 3.60432 11.52 3.5334L11.8926 3.2544C12.16 3.05565 12.4898 2.95942 12.8221 2.9832C13.1544 3.00698 13.4671 3.1492 13.7034 3.384L13.7178 3.3984C13.9523 3.63492 14.0943 3.9476 14.1181 4.2798C14.1418 4.61199 14.0458 4.94171 13.8474 5.2092L13.5666 5.58C13.4957 5.67401 13.4505 5.78486 13.4354 5.90164C13.4203 6.01843 13.4358 6.13713 13.4805 6.24609C13.5252 6.35504 13.5974 6.45049 13.6902 6.52307C13.7829 6.59564 13.8929 6.64283 14.0094 6.66L14.4702 6.7248C14.7986 6.77324 15.0988 6.93729 15.3169 7.18742C15.5351 7.43756 15.6567 7.75734 15.66 8.0892V8.109C15.6589 8.44242 15.5382 8.76436 15.3198 9.01637C15.1015 9.26837 14.8001 9.43373 14.4702 9.4824L14.0094 9.54C13.8952 9.55707 13.7873 9.60331 13.6962 9.67426C13.6051 9.7452 13.5338 9.83846 13.4892 9.945V9.9666C13.4612 10.0328 13.414 10.0891 13.3537 10.1283C13.2934 10.1674 13.2227 10.1876 13.1508 10.1862Z" fill="#16404D"/>
<path d="M3.96001 16.56C3.88294 16.5598 3.80798 16.5349 3.74614 16.4889C3.68431 16.4429 3.63886 16.3782 3.6165 16.3045C3.59413 16.2307 3.59602 16.1518 3.62189 16.0792C3.64776 16.0066 3.69624 15.9442 3.76021 15.9012L5.92021 14.4612C5.96052 14.4343 6.00585 14.4158 6.05348 14.4068C6.10112 14.3979 6.15007 14.3986 6.19741 14.409L11.5344 15.5952C11.8235 15.6596 12.1242 15.6488 12.4079 15.5637C12.6915 15.4786 12.9486 15.3221 13.1544 15.1092L17.154 10.998C16.8282 10.6742 16.3875 10.4924 15.9282 10.4924C15.4689 10.4924 15.0282 10.6742 14.7024 10.998L12.1338 13.5738C12.0934 13.6143 12.0439 13.6446 11.9894 13.6621C11.9349 13.6796 11.8771 13.6839 11.8206 13.6746L7.50061 12.9546C7.43122 12.9429 7.36678 12.9111 7.31526 12.8632C7.26375 12.8152 7.22741 12.7532 7.21075 12.6849C7.19409 12.6165 7.19783 12.5447 7.22152 12.4785C7.2452 12.4122 7.28779 12.3543 7.34401 12.312L9.90001 10.4004C9.62815 10.1291 9.27418 9.95532 8.89326 9.90616C8.51233 9.857 8.12585 9.93521 7.79401 10.1286L0.540009 14.3514C0.499034 14.3775 0.453214 14.3949 0.405305 14.4028C0.357396 14.4107 0.308388 14.4088 0.261229 14.3973C0.214071 14.3857 0.169736 14.3647 0.130892 14.3356C0.0920486 14.3065 0.0594987 14.2698 0.0352007 14.2278C0.0109028 14.1857 -0.00464108 14.1392 -0.0104957 14.091C-0.0163503 14.0428 -0.0123948 13.9939 0.00113304 13.9473C0.0146609 13.9007 0.0374813 13.8573 0.0682217 13.8197C0.098962 13.7821 0.136987 13.7511 0.180009 13.7286L7.42141 9.50401C7.89071 9.23102 8.43707 9.12078 8.9755 9.19045C9.51393 9.26011 10.0142 9.50577 10.3986 9.88921L10.6938 10.1844C10.7307 10.2208 10.7592 10.2647 10.7776 10.3132C10.7959 10.3617 10.8036 10.4135 10.8 10.4652C10.7957 10.5166 10.7807 10.5666 10.7559 10.6119C10.7311 10.6572 10.6971 10.6967 10.656 10.728L8.44921 12.384L11.7558 12.9348L14.193 10.4976C14.4449 10.2443 14.749 10.0489 15.0841 9.92513C15.4192 9.80136 15.7773 9.75215 16.1334 9.78094C16.4895 9.80972 16.835 9.91582 17.1459 10.0918C17.4567 10.2678 17.7255 10.5095 17.9334 10.8C17.982 10.8687 18.005 10.9522 17.9984 11.036C17.9918 11.1199 17.9561 11.1988 17.8974 11.259L13.68 15.6114C13.3884 15.9135 13.0238 16.1353 12.6215 16.2554C12.2192 16.3755 11.7927 16.3899 11.3832 16.2972L6.19201 15.1452L4.15981 16.5006C4.1003 16.5392 4.03093 16.5598 3.96001 16.56ZM10.9908 8.46001C10.8953 8.46001 10.8038 8.42208 10.7363 8.35457C10.6687 8.28705 10.6308 8.19548 10.6308 8.10001C10.6308 7.66749 10.459 7.25269 10.1532 6.94686C9.84732 6.64102 9.43252 6.46921 9.00001 6.46921C8.56749 6.46921 8.15269 6.64102 7.84686 6.94686C7.54103 7.25269 7.36921 7.66749 7.36921 8.10001C7.36921 8.19548 7.33128 8.28705 7.26377 8.35457C7.19625 8.42208 7.10469 8.46001 7.00921 8.46001C6.91373 8.46001 6.82216 8.42208 6.75465 8.35457C6.68714 8.28705 6.64921 8.19548 6.64921 8.10001C6.64921 7.47654 6.89688 6.8786 7.33774 6.43774C7.7786 5.99688 8.37654 5.74921 9.00001 5.74921C9.62348 5.74921 10.2214 5.99688 10.6623 6.43774C11.1031 6.8786 11.3508 7.47654 11.3508 8.10001C11.3508 8.19548 11.3129 8.28705 11.2454 8.35457C11.1779 8.42208 11.0863 8.46001 10.9908 8.46001Z" fill="#16404D"/>
</g>
<defs>
<clipPath id="clip0_39_36">
<rect width="18" height="18" fill="white"/>
</clipPath>
</defs>
</svg>
