<svg width="26" height="26" viewBox="0 0 26 26" fill="none" xmlns="http://www.w3.org/2000/svg">
<g clip-path="url(#clip0_62_33)">
<g clip-path="url(#clip1_62_33)">
<path d="M7.84062 26C7.81624 26 7.7878 25.9959 7.76343 25.9919C7.55218 25.9472 7.41405 25.74 7.45468 25.5288C8.82374 18.8013 6.47562 15.2181 6.45124 15.1816C6.32937 15.0028 6.37812 14.755 6.55687 14.6331C6.73562 14.5113 6.97937 14.5559 7.10124 14.7388C7.20687 14.8931 9.66468 18.6063 8.22249 25.6872C8.18999 25.87 8.02343 26 7.84062 26ZM18.1675 26C17.9847 26 17.8181 25.87 17.7816 25.6831C16.3394 18.6022 18.7972 14.8931 18.9028 14.7388C19.0247 14.56 19.2684 14.5113 19.4512 14.6372C19.63 14.7591 19.6787 15.0028 19.5569 15.1816C19.5325 15.2181 17.1884 18.7972 18.5575 25.5247C18.6022 25.7359 18.4641 25.9472 18.2487 25.9878C18.2203 25.9959 18.1959 26 18.1675 26ZM17.7816 7.5075C17.7409 7.5075 17.7003 7.49938 17.6556 7.48719C17.4484 7.41813 17.3387 7.19469 17.4078 6.9875C18.1228 4.83438 17.7856 3.39625 17.3712 2.5675C17.03 1.88094 16.3881 1.34063 15.6041 1.07657C12.7156 0.10969 9.66874 1.89719 9.6403 1.9175C9.5753 1.95813 9.50624 1.97844 9.42499 1.97438C8.88468 1.95813 8.51093 2.08 8.29155 2.35625C7.68624 3.10782 8.16155 4.95219 8.50687 6.30094L8.60843 6.69094C8.66124 6.90219 8.5353 7.1175 8.32405 7.17031C8.11687 7.22313 7.89749 7.09719 7.84468 6.88594L7.74718 6.5C7.33687 4.9075 6.82905 2.925 7.68218 1.86875C8.04374 1.41781 8.59624 1.19438 9.33155 1.19438C9.33562 1.19438 9.33968 1.19438 9.34374 1.19438C9.9328 0.865315 12.9106 -0.645935 15.8641 0.345315C16.8391 0.674377 17.6516 1.36094 18.0822 2.23031C18.5616 3.18906 18.9637 4.8425 18.1594 7.25157C18.0984 7.40188 17.9441 7.5075 17.7816 7.5075Z" fill="black"/>
<path d="M22.62 25.6181C22.6159 25.8294 22.4413 26 22.2259 26H3.77407C3.55876 26 3.38407 25.8294 3.38001 25.6181C3.27438 21.7506 3.71313 18.7566 4.68001 16.7091C5.22439 15.5553 6.24813 14.6331 7.47907 14.1862L7.52782 14.17L8.45001 13.8369C8.65313 13.7638 8.88064 13.8694 8.95376 14.0725C9.02689 14.2756 8.92126 14.5031 8.71813 14.5763L7.79595 14.9094C7.79595 14.9134 7.75532 14.9256 7.75126 14.9256C6.7072 15.3034 5.85001 16.0753 5.39501 17.0462C4.78157 18.3381 4.08282 20.7959 4.16001 25.2119H21.84C21.9172 20.7959 21.2184 18.3381 20.605 17.0462C20.15 16.0753 19.2928 15.3034 18.2488 14.9256L18.0172 14.8444L17.2819 14.5763C17.0788 14.5031 16.9731 14.2756 17.0463 14.0725C17.1194 13.8694 17.3469 13.7638 17.55 13.8369L18.5088 14.1822C19.7519 14.6331 20.7756 15.5553 21.32 16.7131C22.2869 18.7566 22.7256 21.7506 22.62 25.6181Z" fill="black"/>
<path d="M13 17.5541C10.1482 17.5541 7.8244 15.2344 7.8244 12.3784V5.33812C7.8244 3.57093 9.26253 2.13687 11.0257 2.13687H14.9703C16.7375 2.13687 18.1716 3.575 18.1716 5.33812V12.3784C18.1757 15.2303 15.8519 17.5541 13 17.5541ZM11.0257 2.92093C9.69315 2.92093 8.61253 4.00562 8.61253 5.33406V12.3744C8.61253 14.7916 10.5788 16.7619 13 16.7619C15.4213 16.7619 17.3875 14.7956 17.3875 12.3744V5.33812C17.3875 4.00562 16.3028 2.925 14.9744 2.925H11.0257V2.92093Z" fill="black"/>
<path d="M16.3109 10.6234H9.68905C9.3803 10.6234 9.12842 10.3716 9.12842 10.0628V7.15813C9.12842 6.84938 9.3803 6.5975 9.68905 6.5975H16.3069C16.6156 6.5975 16.8675 6.84938 16.8675 7.15813V10.0628C16.8675 10.3716 16.6156 10.6234 16.3109 10.6234ZM9.92061 9.83532H16.0794V7.38563H9.92061V9.83532ZM18.3381 10.4975H17.7815C17.5622 10.4975 17.3875 10.3228 17.3875 10.1034C17.3875 9.88407 17.5622 9.70938 17.7815 9.70938H18.3381L18.334 7.49938L17.7815 7.50344C17.5622 7.50344 17.3875 7.32875 17.3875 7.10938C17.3875 6.89 17.5622 6.71532 17.7815 6.71532H18.3381C18.7687 6.71532 19.1222 7.06875 19.1222 7.49938V9.71344C19.1222 10.1481 18.7687 10.4975 18.3381 10.4975ZM8.19811 10.4975H7.64155C7.21092 10.4975 6.85748 10.1481 6.85748 9.71344V7.49938C6.85748 7.06875 7.20686 6.71532 7.64155 6.71532H8.19811C8.41748 6.71532 8.59217 6.89 8.59217 7.10938C8.59217 7.32875 8.41748 7.50344 8.19811 7.50344H7.64155L7.64561 9.71344L8.19811 9.70938C8.41748 9.70938 8.59217 9.88407 8.59217 10.1034C8.59217 10.3228 8.41748 10.4975 8.19811 10.4975Z" fill="black"/>
</g>
</g>
<defs>
<clipPath id="clip0_62_33">
<rect width="26" height="26" fill="white"/>
</clipPath>
<clipPath id="clip1_62_33">
<rect width="26" height="26" fill="white"/>
</clipPath>
</defs>
</svg>
