<svg width="22" height="22" viewBox="0 0 22 22" fill="none" xmlns="http://www.w3.org/2000/svg">
<path d="M8.85499 19.9283C8.61666 19.9283 8.36916 19.9008 8.13083 19.8183C7.44333 19.5983 6.98499 19.0667 6.57249 18.6083C6.35249 18.3608 6.14166 18.1225 5.93083 17.9667C5.71999 17.8108 5.42666 17.6825 5.11499 17.545C4.54666 17.2975 3.91416 17.0225 3.49249 16.445C3.07999 15.8767 3.00666 15.1892 2.95166 14.575C2.91499 14.2358 2.88749 13.915 2.80499 13.6583C2.72249 13.42 2.56666 13.1542 2.40166 12.87C2.08999 12.3383 1.72333 11.7333 1.72333 11C1.72333 10.2667 2.08083 9.66166 2.40166 9.13C2.56666 8.84583 2.73166 8.58 2.80499 8.34166C2.88749 8.085 2.92416 7.76416 2.95166 7.425C3.01583 6.82 3.07999 6.12333 3.49249 5.555C3.90499 4.9775 4.54666 4.7025 5.11499 4.455C5.42666 4.3175 5.71999 4.18916 5.93083 4.03333C6.14166 3.8775 6.35249 3.63916 6.57249 3.39166C6.98499 2.92416 7.44333 2.40166 8.13083 2.18166C8.79083 1.97083 9.45999 2.1175 10.0558 2.24583C10.7342 2.3925 11.2567 2.3925 11.935 2.24583C12.5308 2.1175 13.2 1.97083 13.86 2.18166C14.5475 2.40166 15.0058 2.93333 15.4183 3.39166C15.6383 3.63916 15.8492 3.8775 16.06 4.03333C16.2708 4.18916 16.5642 4.3175 16.8758 4.455C17.4442 4.7025 18.0767 4.9775 18.4983 5.555C18.9108 6.12333 18.9842 6.81083 19.0392 7.425C19.0758 7.76416 19.1033 8.085 19.1858 8.34166C19.2683 8.58 19.4242 8.84583 19.5892 9.13C19.9008 9.66166 20.2675 10.2667 20.2675 11C20.2675 11.7333 19.91 12.3383 19.5892 12.87C19.4242 13.1542 19.2592 13.42 19.1858 13.6583C19.1033 13.915 19.0667 14.2358 19.0392 14.575C18.975 15.18 18.9108 15.8767 18.4983 16.445C18.0858 17.0225 17.4442 17.2975 16.8758 17.545C16.5642 17.6825 16.2708 17.8108 16.06 17.9667C15.8492 18.1225 15.6383 18.3608 15.4183 18.6083C15.0058 19.0758 14.5475 19.5983 13.86 19.8183C13.2092 20.0292 12.5308 19.8825 11.935 19.7542C11.2567 19.6075 10.7342 19.6075 10.0558 19.7542C9.67999 19.8367 9.27666 19.9283 8.85499 19.9283ZM8.85499 3.45583C8.74499 3.45583 8.64416 3.465 8.55249 3.50166C8.22249 3.61166 7.92916 3.95083 7.60833 4.3175C7.35166 4.61083 7.07666 4.9225 6.74666 5.16083C6.40749 5.40833 6.03166 5.57333 5.66499 5.72916C5.22499 5.92166 4.80333 6.105 4.61083 6.37083C4.41833 6.63666 4.37249 7.08583 4.32666 7.5625C4.28999 7.95666 4.24416 8.36916 4.11583 8.7725C3.98749 9.1575 3.78583 9.50583 3.58416 9.83583C3.33666 10.2575 3.09833 10.6517 3.09833 11.0092C3.09833 11.3667 3.33666 11.7608 3.58416 12.1825C3.78583 12.5217 3.98749 12.8608 4.11583 13.2458C4.24416 13.6492 4.28999 14.0617 4.32666 14.4558C4.37249 14.9325 4.41833 15.3817 4.61083 15.6475C4.81249 15.9225 5.22499 16.0967 5.66499 16.2892C6.03166 16.445 6.40749 16.61 6.74666 16.8575C7.07666 17.0958 7.35166 17.4075 7.60833 17.7008C7.92916 18.0675 8.23166 18.4067 8.55249 18.5167C8.85499 18.6175 9.29499 18.5167 9.75333 18.4158C10.1475 18.3242 10.56 18.2417 10.9908 18.2417C11.4217 18.2417 11.8342 18.3333 12.2283 18.4158C12.6958 18.5167 13.1267 18.6175 13.4292 18.5167C13.7592 18.4067 14.0525 18.0675 14.3733 17.7008C14.63 17.4075 14.905 17.0958 15.235 16.8575C15.5742 16.61 15.95 16.445 16.3167 16.2892C16.7567 16.0967 17.1783 15.9133 17.3708 15.6475C17.5633 15.3817 17.6092 14.9325 17.655 14.4558C17.6917 14.0617 17.7375 13.6492 17.8658 13.2458C17.9942 12.8608 18.1958 12.5125 18.3975 12.1825C18.645 11.7608 18.8833 11.3667 18.8833 11.0092C18.8833 10.6517 18.645 10.2575 18.3975 9.83583C18.1958 9.49666 17.9942 9.1575 17.8658 8.7725C17.7375 8.36916 17.6917 7.95666 17.655 7.5625C17.6092 7.08583 17.5633 6.63666 17.3708 6.37083C17.1692 6.09583 16.7567 5.92166 16.3167 5.72916C15.95 5.57333 15.5742 5.40833 15.235 5.16083C14.905 4.9225 14.63 4.61083 14.3733 4.3175C14.0525 3.95083 13.75 3.61166 13.4292 3.50166C13.1267 3.41 12.6867 3.50166 12.2283 3.6025C11.8342 3.69416 11.4217 3.77666 10.9908 3.77666C10.56 3.77666 10.1475 3.685 9.75333 3.6025C9.42333 3.52916 9.11166 3.465 8.85499 3.465V3.45583Z" fill="#DDA853"/>
<path d="M10.0834 13.5208C9.90919 13.5208 9.73503 13.4567 9.59753 13.3192L7.76419 11.4858C7.49836 11.22 7.49836 10.78 7.76419 10.5142C8.03003 10.2483 8.47003 10.2483 8.73586 10.5142L10.0834 11.8617L13.2642 8.68084C13.53 8.415 13.97 8.415 14.2359 8.68084C14.5017 8.94667 14.5017 9.38667 14.2359 9.6525L10.5692 13.3192C10.4317 13.4567 10.2575 13.5208 10.0834 13.5208Z" fill="#16404D"/>
</svg>
