<svg width="22" height="22" viewBox="0 0 22 22" fill="none" xmlns="http://www.w3.org/2000/svg">
<path fill-rule="evenodd" clip-rule="evenodd" d="M5.72231 13.0017H4.20788V14.5161H5.72231V13.0017ZM3.80157 12.1891H6.12862C6.35301 12.1891 6.53494 12.371 6.53494 12.5954V14.9224C6.53494 15.1468 6.35301 15.3288 6.12862 15.3288H3.80157C3.57718 15.3288 3.39525 15.1468 3.39525 14.9224V12.5954C3.39525 12.371 3.57718 12.1891 3.80157 12.1891ZM5.72231 8.69082H4.20788V10.2052H5.72231V8.69082ZM3.80157 7.87819H6.12862C6.35301 7.87819 6.53494 8.06012 6.53494 8.2845V10.6116C6.53494 10.8359 6.35301 11.0179 6.12862 11.0179H3.80157C3.57718 11.0179 3.39525 10.8359 3.39525 10.6116V8.2845C3.39525 8.06012 3.57718 7.87819 3.80157 7.87819ZM4.75698 1.50012H4.21914C4.17505 1.50012 4.13466 1.51847 4.10514 1.54799C4.07562 1.57751 4.05727 1.6179 4.05727 1.66199V3.33863C4.05727 3.38271 4.07562 3.42311 4.10514 3.45262C4.13466 3.48214 4.17505 3.50049 4.21914 3.50049H4.75698C4.80106 3.50049 4.84145 3.48214 4.87097 3.45262C4.90049 3.42311 4.91884 3.38271 4.91884 3.33863V1.66199C4.91884 1.6179 4.90049 1.57751 4.87097 1.54799C4.84145 1.51847 4.80106 1.50012 4.75698 1.50012ZM14.2464 1.50012H13.7086C13.6645 1.50012 13.6241 1.51847 13.5946 1.54799C13.5651 1.57751 13.5467 1.6179 13.5467 1.66199V3.33863C13.5467 3.38271 13.5651 3.42311 13.5946 3.45262C13.6241 3.48214 13.6645 3.50049 13.7086 3.50049H14.2464C14.2905 3.50049 14.3309 3.48214 14.3604 3.45262C14.3899 3.42311 14.4083 3.38271 14.4083 3.33863V1.66199C14.4083 1.6179 14.3899 1.57751 14.3604 1.54799C14.3309 1.51847 14.2905 1.50012 14.2464 1.50012ZM9.50167 1.50012H8.96383C8.91975 1.50012 8.87935 1.51847 8.84984 1.54799C8.82032 1.57751 8.80197 1.6179 8.80197 1.66199V3.33863C8.80197 3.38271 8.82032 3.42311 8.84984 3.45262C8.87935 3.48214 8.91975 3.50049 8.96383 3.50049H9.50167C9.54576 3.50049 9.58615 3.48214 9.61567 3.45262C9.64519 3.42311 9.66353 3.38271 9.66353 3.33863V1.66199C9.66353 1.6179 9.64519 1.57751 9.61567 1.54799C9.58615 1.51847 9.54576 1.50012 9.50167 1.50012ZM10.4762 2.85123H12.7341V3.33863C12.7341 3.60701 12.8436 3.85077 13.02 4.02716C13.1965 4.20359 13.4402 4.31312 13.7086 4.31312H14.2464C14.5148 4.31312 14.7586 4.20359 14.9349 4.02716C15.1114 3.85073 15.2209 3.60701 15.2209 3.33863V2.85123H16.149C16.2805 2.85123 16.398 2.89927 16.4814 2.97666C16.5573 3.04709 16.6044 3.14213 16.6044 3.2447V5.93897H1.86595V3.2447C1.86595 3.14209 1.91305 3.04704 1.98893 2.97666C2.07229 2.89927 2.18981 2.85123 2.32133 2.85123H3.24465V3.33863C3.24465 3.60701 3.35417 3.85077 3.5306 4.02716C3.70703 4.20359 3.95075 4.31312 4.21914 4.31312H4.75698C5.02536 4.31312 5.26908 4.20359 5.44551 4.02716C5.62194 3.85073 5.73146 3.60701 5.73146 3.33863V2.85123H7.98939V3.33863C7.98939 3.60701 8.09891 3.85077 8.27534 4.02716C8.45177 4.20359 8.69549 4.31312 8.96387 4.31312H9.50171C9.7701 4.31312 10.0138 4.20359 10.1902 4.02716C10.3667 3.85073 10.4762 3.60701 10.4762 3.33863L10.4762 2.85123ZM16.9949 11.7348C16.2751 11.015 15.2805 10.5697 14.182 10.5697C13.0834 10.5697 12.0888 11.015 11.369 11.7348C10.6491 12.4547 10.2038 13.4493 10.2038 14.5478C10.2038 15.6463 10.6491 16.6409 11.369 17.3608C12.0888 18.0806 13.0834 18.5259 14.182 18.5259C15.2805 18.5259 16.2751 18.0806 16.9949 17.3608C17.7148 16.6409 18.1601 15.6464 18.1601 14.5478C18.1601 13.4492 17.7148 12.4547 16.9949 11.7348ZM14.182 9.75709C15.5048 9.75709 16.7025 10.2933 17.5695 11.1603C18.4365 12.0273 18.9727 13.225 18.9727 14.5478C18.9727 15.8706 18.4365 17.0683 17.5695 17.9353C16.7025 18.8023 15.5048 19.3386 14.182 19.3386C12.8591 19.3386 11.6614 18.8023 10.7944 17.9353C9.92745 17.0683 9.3912 15.8707 9.3912 14.5478C9.3912 13.2249 9.92745 12.0273 10.7944 11.1603C11.6614 10.2933 12.8591 9.75709 14.182 9.75709ZM13.7756 11.6894C13.7756 11.465 13.9576 11.2831 14.182 11.2831C14.4063 11.2831 14.5883 11.465 14.5883 11.6894V14.1415H16.1415C16.3658 14.1415 16.5478 14.3234 16.5478 14.5478C16.5478 14.7722 16.3658 14.9541 16.1415 14.9541H14.182C13.9576 14.9541 13.7756 14.7722 13.7756 14.5478V11.6894ZM18.3907 10.339C19.4678 11.4161 20.134 12.9041 20.134 14.5478C20.134 16.1915 19.4678 17.6795 18.3907 18.7566C17.3136 19.8337 15.8256 20.4999 14.182 20.4999C12.5383 20.4999 11.0502 19.8336 9.97317 18.7566C8.89607 17.6795 8.22988 16.1915 8.22988 14.5478C8.22988 12.9041 8.89607 11.4161 9.97317 10.339C11.0503 9.26196 12.5383 8.59573 14.182 8.59573C15.8256 8.59573 17.3136 9.26191 18.3907 10.339ZM8.99516 10.2052C9.1232 10.0525 9.25778 9.90537 9.39863 9.76452C9.58593 9.57722 9.78423 9.40087 9.99237 9.23648V8.69082H8.47794V10.2052H8.99516ZM17.417 8.60548C17.988 8.91696 18.5091 9.30828 18.9653 9.76452C20.1895 10.9887 20.9467 12.6799 20.9467 14.5478C20.9467 16.4158 20.1895 18.107 18.9653 19.3312C17.7411 20.5553 16.05 21.3125 14.182 21.3125C12.314 21.3125 10.6229 20.5553 9.39867 19.3312C8.80553 18.7381 8.32201 18.0353 7.98118 17.2559H2.32133C1.97892 17.2559 1.66559 17.124 1.43656 16.9115C1.20011 16.692 1.05328 16.3871 1.05328 16.0499V3.2447C1.05328 2.90744 1.20006 2.60253 1.43656 2.38305C1.66555 2.17052 1.97887 2.03861 2.32129 2.03861H3.2446V1.66199C3.2446 1.39361 3.35413 1.14989 3.53056 0.973457C3.70699 0.797027 3.95071 0.6875 4.21909 0.6875H4.75693C5.02532 0.6875 5.26903 0.797027 5.44546 0.973457C5.62189 1.14989 5.73142 1.39361 5.73142 1.66199V2.03861H7.98934V1.66199C7.98934 1.39361 8.09887 1.14989 8.2753 0.973457C8.45173 0.797027 8.69545 0.6875 8.96383 0.6875H9.50167C9.77005 0.6875 10.0138 0.797027 10.1902 0.973457C10.3666 1.14989 10.4762 1.39361 10.4762 1.66199V2.03861H12.7341V1.66199C12.7341 1.39361 12.8436 1.14989 13.02 0.973457C13.1965 0.797027 13.4402 0.6875 13.7086 0.6875H14.2464C14.5148 0.6875 14.7586 0.797027 14.9349 0.973457C15.1114 1.14989 15.2209 1.39361 15.2209 1.66199V2.03861H16.149C16.4914 2.03861 16.8047 2.17052 17.0337 2.38305C17.2702 2.60253 17.417 2.90744 17.417 3.2447V8.60548H17.417ZM14.182 7.7831C12.9521 7.7831 11.7988 8.11143 10.805 8.6851V8.28446C10.805 8.06008 10.6231 7.87815 10.3987 7.87815H8.07163C7.84725 7.87815 7.66532 8.06008 7.66532 8.28446V10.6115C7.66532 10.8359 7.84725 11.0178 8.07163 11.0178H8.41039C7.78051 12.0455 7.4173 13.2542 7.4173 14.5478C7.4173 15.2058 7.5114 15.8418 7.68663 16.4433H2.32133C2.18981 16.4433 2.07229 16.3952 1.98893 16.3179C1.91305 16.2474 1.86595 16.1524 1.86595 16.0498V6.75159H16.6044V8.22993C15.8523 7.94136 15.0356 7.78314 14.182 7.78314L14.182 7.7831Z" fill="black"/>
</svg>
