<svg width="14" height="14" viewBox="0 0 14 14" fill="none" xmlns="http://www.w3.org/2000/svg">
<path d="M9.0337 7.8003C8.95836 7.78926 8.88521 7.72685 8.82521 7.68426L8.59257 7.51798C7.37218 6.64653 6.36707 5.27538 6.07454 3.79882C6.04225 3.63587 6.01254 3.47529 6.00869 3.30884C6.00346 3.08322 6.02928 3.03061 6.28169 3.02888L6.51792 3.02606C7.21825 3.00207 7.94984 2.48892 8.45261 2.04594L8.81867 1.70164C8.87097 1.64973 8.91352 1.60334 8.98234 1.5733L9.01318 1.57035C9.12015 1.56529 9.18227 1.66056 9.24989 1.72855L9.47146 1.94491C10.0444 2.48848 10.8023 3.00565 11.6177 3.0267C11.7508 3.03013 12.0037 2.97816 12.0075 3.18555C12.0118 3.42069 11.9622 3.67037 11.9138 3.89982C11.5959 5.40751 10.6205 6.72386 9.37976 7.6155C9.28568 7.68312 9.15377 7.79755 9.0337 7.8003ZM9.02497 2.00747C8.88189 2.1673 8.71844 2.30583 8.55466 2.44386C7.91532 2.98262 7.25865 3.33807 6.41994 3.38324L6.37783 3.38525C6.59195 4.97243 7.50103 6.23554 8.76334 7.19865L9.0339 7.39409L9.0542 7.40524C9.09795 7.3866 9.14071 7.34769 9.17906 7.31927L9.4817 7.08254C10.6169 6.14815 11.4694 4.86173 11.6515 3.38652C10.8161 3.32107 10.1396 2.98855 9.50213 2.44756L9.21139 2.18341C9.15012 2.12468 9.09031 2.06157 9.02497 2.00747Z" fill="#16404D"/>
<path d="M7.73389 5.27732L7.58374 5.11444C7.52794 5.05827 7.4533 5.00148 7.41246 4.93332C7.30962 4.76173 7.534 4.58979 7.69745 4.63993C7.94083 4.71454 8.57295 5.54428 8.68399 5.74405L8.76105 5.60619C9.17843 4.90217 9.73421 4.21317 10.4216 3.75817C10.5618 3.66535 10.7124 3.57059 10.8766 3.52855L10.8898 3.52748C11.1578 3.50969 11.2627 3.78597 10.9653 3.95868L10.5419 4.23846C9.977 4.6669 9.52114 5.23873 9.15651 5.84242L8.98477 6.15602C8.78085 6.54854 8.67686 6.56257 8.42313 6.19426L8.22321 5.90196C8.07094 5.68568 7.90535 5.47857 7.73389 5.27732ZM10.3983 9.94101L9.26031 10.6685C8.35438 11.1548 7.50188 11.5314 6.45333 11.4451C5.6795 11.3814 4.80194 11.0989 4.06138 10.8755C4.03367 11.0708 3.91751 11.2222 3.73993 11.3131C3.60328 11.383 3.47572 11.3729 3.32601 11.3731L2.56601 11.3729C2.20774 11.3722 1.95817 11.2427 1.8837 10.8504C1.86125 10.732 1.8738 10.5952 1.87377 10.4743L1.87641 7.73078C1.88915 7.41337 2.17742 7.25449 2.46136 7.23538L3.22762 7.23524C3.33922 7.23548 3.45374 7.23087 3.56493 7.2394C3.81061 7.2583 3.99585 7.45238 4.04356 7.69005C4.43295 7.69254 4.6188 7.65349 4.99577 7.5976C5.70818 7.49197 6.29104 7.64098 6.9248 7.98984C7.39476 8.24854 7.5277 8.29023 8.06593 8.39678C8.35971 8.45493 8.8083 8.52392 8.9305 8.84953L8.93411 8.85929C9.19595 8.77441 9.44382 8.65309 9.6942 8.53989C10.1436 8.33667 10.5919 8.13247 11.0669 7.9954C11.2971 7.92901 11.6563 7.82305 11.8441 8.03784C12.0396 8.26144 11.8566 8.50752 11.7093 8.69514C11.34 9.16525 10.8676 9.57357 10.3983 9.94101ZM2.48356 7.58789C2.37487 7.58903 2.2334 7.61366 2.22321 7.74677C2.2103 7.91492 2.22102 8.09137 2.22104 8.26068V10.2664C2.22119 10.4364 2.21045 10.6149 2.22546 10.7837C2.24751 11.0317 2.43426 11.0261 2.6347 11.0263L3.28123 11.0274C3.34183 11.0285 3.40411 11.0339 3.46448 11.0283C3.6376 11.0223 3.71998 10.9291 3.7118 10.7564L3.70252 8.01594C3.70272 7.75779 3.77366 7.59294 3.45728 7.58879L2.48356 7.58789ZM5.40398 7.90528C5.19578 7.91952 4.99693 7.96237 4.79124 7.99243C4.54423 8.02852 4.30269 8.04512 4.05312 8.04569L4.05375 10.5099C4.08462 10.53 4.12996 10.5339 4.16544 10.545L4.60835 10.6801C5.48343 10.9358 6.46455 11.2492 7.38444 11.0585C8.38706 10.8508 9.56223 10.1665 10.3417 9.54212C10.6825 9.26912 11.2898 8.70984 11.5253 8.35352L11.5714 8.26829C11.4871 8.26236 11.4122 8.26895 11.3288 8.28115C10.7165 8.40468 10.1418 8.72449 9.5734 8.96993C9.38057 9.05321 9.20017 9.14447 8.9942 9.19242C8.72393 9.79053 7.8777 9.64268 7.35545 9.60722C7.01132 9.58383 6.67265 9.60695 6.35854 9.76192C6.25812 9.81146 6.13343 9.91088 6.01661 9.85865C5.93189 9.82076 5.8895 9.71508 5.93386 9.63137C6.00003 9.50653 6.40124 9.36534 6.53149 9.33028C6.78935 9.2608 7.05224 9.26203 7.31717 9.26914C7.49628 9.27397 8.7581 9.44827 8.637 9.04052C8.57811 8.84225 8.37343 8.82521 8.20208 8.78671L7.79046 8.69848C7.3166 8.60403 7.19653 8.54387 6.76667 8.30419C6.36051 8.07772 5.87655 7.88528 5.40398 7.90528Z" fill="#16404D"/>
<path d="M3.1492 8.47489C2.70568 8.54728 2.5738 7.9348 3.02943 7.82846C3.47319 7.79648 3.56885 8.3571 3.1492 8.47489ZM3.06362 10.8408C2.44202 10.9031 2.31475 10.0173 2.91507 9.9139C3.56154 9.86105 3.63808 10.7355 3.06362 10.8408ZM2.95702 10.2545C2.79751 10.3023 2.83905 10.4961 3.01014 10.4938C3.15547 10.4408 3.13211 10.2481 2.95702 10.2545Z" fill="#16404D"/>
</svg>
