<svg width="10" height="11" viewBox="0 0 10 11" fill="none" xmlns="http://www.w3.org/2000/svg">
<path fill-rule="evenodd" clip-rule="evenodd" d="M4.99997 0C2.67119 0 0.769681 1.81488 0.769681 4.03314V5.50073C0.769681 6.62875 0.305851 7.58221 0.118394 7.93939C-0.258059 8.65815 0.310855 9.53094 1.15306 9.53094H3.11539C3.294 10.3663 4.07385 11 5.00151 11C5.92917 11 6.70902 10.3663 6.88762 9.53094H8.84995C9.69216 9.53094 10.2572 8.65669 9.88154 7.93939C9.69524 7.58368 9.23411 6.62912 9.23411 5.50073V4.03314C9.23411 1.81451 7.32874 0 4.99997 0ZM4.99997 0.730497C6.90918 0.730497 8.46657 2.21386 8.46657 4.03314V5.50073C8.46657 6.81724 8.99084 7.88145 9.19407 8.26944C9.3288 8.52687 9.15135 8.80044 8.84995 8.80044H1.15306C0.84936 8.80044 0.671141 8.52797 0.806634 8.2698C1.00949 7.88218 1.53644 6.81761 1.53644 5.50073V4.03314C1.53644 2.2135 3.09037 0.730497 4.99997 0.730497ZM4.99997 1.46393C3.51417 1.46393 2.30629 2.61725 2.30629 4.03314C2.30629 4.1304 2.34684 4.22367 2.41903 4.29244C2.49122 4.36122 2.58912 4.39985 2.69121 4.39985C2.7933 4.39985 2.8912 4.36122 2.96339 4.29244C3.03558 4.22367 3.07613 4.1304 3.07613 4.03314C3.07434 3.79187 3.12287 3.55266 3.21889 3.3294C3.31491 3.10613 3.45651 2.90326 3.63548 2.73255C3.81445 2.56184 4.02723 2.42669 4.26146 2.33494C4.49569 2.24319 4.74672 2.19668 4.99997 2.19809C5.10216 2.19809 5.20016 2.15942 5.27242 2.09058C5.34468 2.02174 5.38527 1.92837 5.38527 1.83101C5.38527 1.73365 5.34468 1.64029 5.27242 1.57144C5.20016 1.5026 5.10216 1.46393 4.99997 1.46393ZM2.69198 5.13255C2.58989 5.13255 2.49199 5.17119 2.4198 5.23996C2.34761 5.30873 2.30706 5.40201 2.30706 5.49927C2.30706 5.59653 2.34761 5.6898 2.4198 5.75857C2.49199 5.82735 2.58989 5.86598 2.69198 5.86598C2.79407 5.86598 2.89197 5.82735 2.96416 5.75857C3.03635 5.6898 3.0769 5.59653 3.0769 5.49927C3.0769 5.40201 3.03635 5.30873 2.96416 5.23996C2.89197 5.17119 2.79407 5.13255 2.69198 5.13255ZM3.91603 9.53094H6.08699C6.00924 9.74612 5.86278 9.93274 5.66813 10.0647C5.47347 10.1966 5.24038 10.2672 5.00151 10.2666C4.76263 10.2672 4.52954 10.1966 4.33489 10.0647C4.14024 9.93274 3.99378 9.74612 3.91603 9.53094Z" fill="#16404D"/>
</svg>
