<svg width="47" height="15" viewBox="0 0 47 15" fill="#16404D" xmlns="http://www.w3.org/2000/svg">
<path d="M20.3749 14.75H16.5398L18.9367 0.258934H22.7722L20.3749 14.75ZM13.3135 0.258934L9.6573 10.226L9.22466 8.07969L9.22505 8.08047L7.9346 1.56369C7.9346 1.56369 7.77856 0.258934 6.11536 0.258934H0.0709257L0 0.504302C0 0.504302 1.8484 0.882626 4.01163 2.16063L7.34355 14.7504H11.3394L17.441 0.258934H13.3135ZM43.4785 14.75H47L43.9297 0.258547H40.8468C39.4232 0.258547 39.0764 1.33848 39.0764 1.33848L33.3567 14.75H37.3545L38.154 12.5975H43.0294L43.4785 14.75ZM39.2585 9.624L41.2736 4.2011L42.4072 9.624H39.2585ZM33.6565 3.7437L34.2038 0.631831C34.2038 0.631831 32.515 0 30.7545 0C28.8513 0 24.3318 0.81828 24.3318 4.79727C24.3318 8.54097 29.6362 8.58749 29.6362 10.5539C29.6362 12.5203 24.8783 12.168 23.3081 10.928L22.7379 14.1817C22.7379 14.1817 24.4504 15 27.0668 15C29.6839 15 33.6321 13.6669 33.6321 10.0388C33.6321 6.27103 28.28 5.92023 28.28 4.28211C28.2804 2.64362 32.0154 2.8541 33.6565 3.7437Z" fill="#16404D"/>
</svg>
